SplineFontDB: 3.2
FontName: Quikhand1.1
FullName: Quikhand 1.1
FamilyName: Quikhand 1.1
Weight: Book
Copyright: Quikhand (c) (contact@jotaylor.me). 2011. All Rights Reserved
Version: 1.10 May 12, 2014
ItalicAngle: 0
UnderlinePosition: -292
UnderlineWidth: 150
Ascent: 1638
Descent: 410
InvalidEm: 0
sfntRevision: 0x0001199a
LayerCount: 2
Layer: 0 1 "Hinten" 1
Layer: 1 1 "Vorne" 0
XUID: [1021 320 -1686439052 24398]
StyleMap: 0x0040
FSType: 8
OS2Version: 3
OS2_WeightWidthSlopeOnly: 0
OS2_UseTypoMetrics: 0
CreationTime: 1310325641
ModificationTime: 1732560443
PfmFamily: 17
TTFWeight: 400
TTFWidth: 5
LineGap: 286
VLineGap: 0
Panose: 2 0 5 0 0 0 0 0 0 0
OS2TypoAscent: 1765
OS2TypoAOffset: 0
OS2TypoDescent: -444
OS2TypoDOffset: 0
OS2TypoLinegap: 205
OS2WinAscent: 1828
OS2WinAOffset: 0
OS2WinDescent: 444
OS2WinDOffset: 0
HheadAscent: 1828
HheadAOffset: 0
HheadDescent: -444
HheadDOffset: 0
OS2SubXSize: 1434
OS2SubYSize: 1331
OS2SubXOff: 0
OS2SubYOff: 283
OS2SupXSize: 1434
OS2SupYSize: 1331
OS2SupXOff: 0
OS2SupYOff: 977
OS2StrikeYSize: 102
OS2StrikeYPos: 530
OS2Vendor: 'HL  '
OS2CodePages: 20000011.00000000
OS2UnicodeRanges: 800000a7.5000004a.00000000.00000000
Lookup: 1 0 0 "'frac' Diagonale Br+APwA-che in Lateinisch Nachschlagetabelle 0" { "'frac' Diagonale Br+APwA-che in Lateinisch Nachschlagetabelle 0 Subtabelle"  } ['frac' ('latn' <'dflt' > ) ]
Lookup: 4 0 0 "'frac' Diagonale Br+APwA-che in Lateinisch Nachschlagetabelle 1" { "'frac' Diagonale Br+APwA-che in Lateinisch Nachschlagetabelle 1 Subtabelle"  } ['frac' ('latn' <'dflt' > ) ]
Lookup: 4 0 0 "'clig' Kontextuelle Ligaturen in Lateinisch Nachschlagetabelle 2" { "'clig' Kontextuelle Ligaturen in Lateinisch Nachschlagetabelle 2 Subtabelle"  } ['clig' ('latn' <'dflt' > ) ]
DEI: 91125
TtTable: prep
MPPEM
PUSHW_1
 200
GT
IF
PUSHB_2
 1
 1
INSTCTRL
EIF
PUSHW_2
 2048
 2048
MUL
DUP
PUSHB_1
 1
SWAP
WCVTP
DUP
PUSHB_1
 3
SWAP
WCVTF
PUSHB_1
 31
RCVT
DUP
DUP
MPPEM
PUSHW_1
 14
LTEQ
MPPEM
PUSHB_1
 6
GTEQ
AND
IF
PUSHB_1
 52
ELSE

StartChar: .notdef
Encoding: 65536 -1 0
Width: 1024
GlyphClass: 1
Flags: W
LayerCount: 2
Fore
SplineSet
100 0 m 1,0,-1
 100 1434 l 1,1,-1
 924 1434 l 1,2,-1
 924 0 l 1,3,-1
 100 0 l 1,0,-1
150 50 m 1,4,-1
 874 50 l 1,5,-1
 874 1384 l 1,6,-1
 150 1384 l 1,7,-1
 150 50 l 1,4,-1
325 1148 m 1,8,9
 356 1176 356 1176 383 1191 c 0,10,11
 436 1221 436 1221 495 1221 c 0,12,13
 587 1221 587 1221 643 1173.5 c 128,-1,14
 699 1126 699 1126 699 1046 c 0,15,16
 699 997 699 997 676 947.5 c 128,-1,17
 653 898 653 898 589 818 c 0,18,19
 526 738 526 738 490 686 c 128,-1,20
 454 634 454 634 454 587 c 0,21,22
 454 549 454 549 478 454 c 1,23,-1
 446 454 l 1,24,25
 411 551 411 551 411 602 c 0,26,27
 411 678 411 678 492.5 820 c 128,-1,28
 574 962 574 962 574 1037 c 0,29,30
 574 1094 574 1094 541 1127 c 128,-1,31
 508 1160 508 1160 450 1160 c 0,32,33
 412 1160 412 1160 381 1143 c 0,34,35
 355 1128 355 1128 325 1103 c 1,36,-1
 325 1148 l 1,8,9
389 334 m 2,37,-1
 446 392 l 2,38,39
 457 402 457 402 466 402 c 0,40,41
 476 402 476 402 488 391 c 2,42,-1
 544 331 l 2,43,44
 553 320 553 320 553 311 c 0,45,46
 553 300 553 300 543 289 c 2,47,-1
 487 227 l 2,48,49
 473 213 473 213 466 213 c 0,50,51
 455 213 455 213 446 223 c 2,52,-1
 385 294 l 2,53,54
 378 303 378 303 378 312 c 0,55,56
 378 322 378 322 389 334 c 2,37,-1
EndSplineSet
EndChar

StartChar: exclam
Encoding: 33 33 4
Width: 461
GlyphClass: 1
Flags: W
LayerCount: 2
Fore
SplineSet
241 1510 m 1,0,1
 334 1478 334 1478 342 1443 c 1,2,-1
 342 1376 l 1,3,-1
 324 1359 l 1,4,-1
 342 1342 l 1,5,-1
 342 1326 l 1,6,-1
 324 1259 l 1,7,-1
 342 1242 l 1,8,-1
 342 1225 l 1,9,-1
 324 1209 l 1,10,-1
 319 891 l 1,11,-1
 302 891 l 1,12,-1
 319 874 l 1,13,-1
 319 707 l 1,14,-1
 338 589 l 1,15,-1
 319 572 l 1,16,-1
 355 572 l 1,17,-1
 355 539 l 1,18,-1
 302 489 l 1,19,-1
 319 472 l 1,20,-1
 319 422 l 1,21,-1
 302 422 l 2,22,23
 142 422 142 422 135 1359 c 1,24,-1
 135 1376 l 1,25,26
 161 1510 161 1510 241 1510 c 1,0,1
241 289 m 1,27,28
 374 240 374 240 374 96 c 1,29,30
 324 96 324 96 324 19 c 1,31,-1
 307 0 l 1,32,-1
 290 0 l 1,33,34
 157 65 157 65 157 212 c 2,35,-1
 157 231 l 2,36,37
 157 275 157 275 241 289 c 1,27,28
EndSplineSet
EndChar

StartChar: quotedbl
Encoding: 34 34 5
Width: 861
GlyphClass: 1
Flags: W
LayerCount: 2
Fore
SplineSet
704 1540 m 1,0,-1
 688 1375 l 1,1,-1
 704 1317 l 1,2,-1
 688 1305 l 1,3,-1
 688 1294 l 1,4,-1
 704 1282 l 1,5,-1
 658 1094 l 1,6,-1
 673 1059 l 1,7,-1
 642 1036 l 1,8,-1
 658 989 l 1,9,-1
 642 977 l 1,10,-1
 627 977 l 2,11,12
 590 977 590 977 565 1212 c 1,13,-1
 580 1271 l 1,14,-1
 565 1282 l 1,15,-1
 549 1282 l 1,16,-1
 565 1328 l 1,17,-1
 518 1656 l 1,18,19
 583 1704 583 1704 642 1704 c 0,20,21
 704 1704 704 1704 704 1540 c 1,0,-1
379 1668 m 2,22,-1
 379 1575 l 1,23,-1
 363 1481 l 1,24,-1
 379 1375 l 1,25,-1
 363 1235 l 1,26,-1
 379 1223 l 1,27,-1
 379 1212 l 1,28,-1
 332 1142 l 1,29,-1
 363 1024 l 1,30,31
 332 1024 332 1024 332 966 c 1,32,-1
 302 966 l 1,33,-1
 270 1071 l 1,34,-1
 270 1129 l 1,35,-1
 286 1142 l 1,36,37
 255 1163 255 1163 239 1387 c 1,38,39
 219 1387 219 1387 209 1470 c 1,40,-1
 224 1481 l 1,41,-1
 224 1493 l 1,42,-1
 209 1527 l 1,43,-1
 224 1563 l 1,44,-1
 193 1586 l 1,45,-1
 193 1645 l 1,46,-1
 286 1704 l 1,47,48
 379 1692 379 1692 379 1668 c 2,22,-1
EndSplineSet
EndChar

StartChar: numbersign
Encoding: 35 35 6
Width: 749
GlyphClass: 1
Flags: W
LayerCount: 2
Fore
SplineSet
343 1401 m 1,0,1
 343 1364 343 1364 374 1364 c 1,2,-1
 384 1345 l 1,3,-1
 384 1308 l 1,4,-1
 353 1046 l 1,5,-1
 395 1027 l 1,6,7
 463 1027 463 1027 509 1289 c 1,8,9
 530 1289 530 1289 530 1364 c 1,10,-1
 582 1364 l 1,11,12
 613 1345 613 1345 613 1252 c 1,13,14
 598 1250 598 1250 550 1009 c 1,15,-1
 561 1009 l 2,16,17
 619 1009 619 1009 634 934 c 1,18,19
 685 934 685 934 685 897 c 1,20,-1
 675 878 l 1,21,-1
 530 878 l 1,22,-1
 467 654 l 1,23,-1
 467 616 l 1,24,-1
 478 635 l 1,25,-1
 488 635 l 2,26,27
 509 635 509 635 509 579 c 1,28,-1
 519 598 l 1,29,-1
 530 598 l 1,30,-1
 540 579 l 1,31,-1
 550 579 l 1,32,-1
 571 616 l 1,33,34
 592 616 592 616 592 560 c 1,35,36
 727 547 727 547 727 504 c 1,37,-1
 717 486 l 1,38,-1
 675 486 l 1,39,-1
 665 504 l 1,40,-1
 634 486 l 1,41,-1
 592 504 l 1,42,-1
 499 486 l 1,43,-1
 478 486 l 1,44,-1
 467 504 l 1,45,-1
 457 504 l 1,46,47
 426 436 426 436 405 224 c 1,48,49
 384 224 384 224 384 112 c 1,50,-1
 332 0 l 1,51,-1
 322 0 l 1,52,-1
 322 19 l 1,53,-1
 353 243 l 1,54,-1
 343 374 l 1,55,-1
 374 411 l 1,56,-1
 364 486 l 1,57,-1
 280 486 l 2,58,59
 212 486 212 486 177 205 c 1,60,-1
 145 149 l 1,61,-1
 135 149 l 1,62,-1
 125 168 l 1,63,-1
 114 168 l 1,64,65
 121 280 121 280 156 280 c 1,66,-1
 156 299 l 1,67,-1
 114 355 l 1,68,-1
 145 448 l 1,69,-1
 145 467 l 1,70,-1
 52 504 l 1,71,-1
 21 486 l 1,72,-1
 0 635 l 1,73,-1
 62 672 l 1,74,-1
 62 654 l 1,75,-1
 73 672 l 1,76,-1
 83 672 l 1,77,-1
 197 654 l 1,78,-1
 218 729 l 1,79,-1
 197 766 l 1,80,-1
 228 859 l 1,81,-1
 228 878 l 1,82,-1
 177 878 l 1,83,-1
 104 859 l 1,84,-1
 104 878 l 1,85,-1
 93 859 l 1,86,-1
 83 859 l 1,87,-1
 42 934 l 1,88,-1
 42 971 l 1,89,-1
 73 1027 l 1,90,-1
 145 1027 l 2,91,92
 260 1027 260 1027 260 1121 c 1,93,94
 294 1382 294 1382 312 1382 c 1,95,-1
 343 1401 l 1,0,1
270 654 m 1,96,-1
 270 635 l 1,97,-1
 312 654 l 1,98,-1
 353 635 l 1,99,100
 387 635 387 635 415 859 c 1,101,-1
 415 934 l 1,102,103
 291 867 291 867 291 710 c 1,104,-1
 270 654 l 1,96,-1
EndSplineSet
EndChar

StartChar: dollar
Encoding: 36 36 7
Width: 903
GlyphClass: 1
Flags: W
LayerCount: 2
Fore
SplineSet
399 1715 m 1,0,1
 511 1698 511 1698 511 1612 c 1,2,-1
 496 1509 l 1,3,-1
 511 1509 l 1,4,-1
 479 1365 l 1,5,-1
 496 1282 l 1,6,-1
 479 1260 l 1,7,-1
 511 1260 l 2,8,9
 548 1260 548 1260 576 1509 c 1,10,-1
 593 1529 l 1,11,-1
 576 1591 l 1,12,-1
 657 1674 l 1,13,-1
 688 1674 l 1,14,-1
 720 1632 l 1,15,-1
 720 1591 l 2,16,17
 720 1379 720 1379 672 1302 c 1,18,-1
 672 1240 l 1,19,-1
 688 1240 l 1,20,-1
 752 1260 l 1,21,22
 826 1220 826 1220 834 1179 c 1,23,-1
 834 1137 l 2,24,25
 834 1076 834 1076 657 1054 c 1,26,-1
 625 807 l 1,27,28
 849 710 849 710 849 435 c 1,29,-1
 769 188 l 1,30,31
 720 188 720 188 720 105 c 1,32,-1
 640 105 l 1,33,-1
 608 64 l 1,34,-1
 625 44 l 1,35,-1
 593 -162 l 1,36,-1
 608 -184 l 1,37,-1
 608 -204 l 1,38,-1
 593 -286 l 1,39,-1
 608 -369 l 1,40,-1
 608 -411 l 1,41,-1
 560 -472 l 1,42,-1
 543 -452 l 1,43,-1
 543 -184 l 1,44,45
 496 -104 496 -104 496 2 c 2,46,-1
 496 64 l 1,47,-1
 448 64 l 1,48,49
 448 -59 448 -59 399 -59 c 1,50,-1
 399 -101 l 1,51,-1
 431 -162 l 1,52,-1
 431 -225 l 1,53,-1
 399 -267 l 1,54,55
 351 -267 351 -267 351 -18 c 1,56,-1
 367 2 l 1,57,-1
 335 44 l 1,58,-1
 351 64 l 1,59,-1
 351 85 l 1,60,-1
 287 64 l 1,61,62
 153 64 153 64 78 250 c 1,63,-1
 110 333 l 1,64,65
 175 311 175 311 175 250 c 1,66,-1
 239 250 l 1,67,-1
 319 230 l 1,68,-1
 335 435 l 1,69,-1
 319 518 l 1,70,-1
 335 601 l 1,71,-1
 319 663 l 1,72,-1
 335 683 l 1,73,74
 161 783 161 783 110 910 c 1,75,76
 110 1111 110 1111 319 1179 c 1,77,78
 345 1220 345 1220 367 1529 c 1,79,-1
 351 1551 l 1,80,-1
 351 1571 l 1,81,-1
 384 1632 l 1,82,-1
 367 1654 l 1,83,-1
 367 1674 l 1,84,-1
 399 1715 l 1,0,1
464 993 m 1,85,-1
 479 910 l 1,86,-1
 511 952 l 1,87,-1
 496 1013 l 1,88,-1
 479 993 l 1,89,-1
 464 993 l 1,85,-1
272 932 m 1,90,-1
 272 910 l 1,91,-1
 335 910 l 1,92,-1
 335 993 l 1,93,-1
 319 993 l 1,94,-1
 272 932 l 1,90,-1
464 890 m 1,95,-1
 464 849 l 1,96,-1
 479 849 l 1,97,-1
 511 890 l 1,98,-1
 464 890 l 1,95,-1
464 683 m 1,99,-1
 448 477 l 1,100,-1
 464 394 l 1,101,-1
 448 374 l 1,102,-1
 448 353 l 1,103,-1
 464 250 l 1,104,-1
 496 250 l 1,105,-1
 496 271 l 1,106,-1
 479 291 l 1,107,-1
 479 311 l 1,108,-1
 496 374 l 1,109,-1
 479 394 l 1,110,-1
 479 415 l 1,111,-1
 496 477 l 1,112,-1
 479 601 l 1,113,-1
 496 683 l 1,114,-1
 464 683 l 1,99,-1
625 601 m 1,115,-1
 625 497 l 1,116,-1
 608 415 l 1,117,-1
 625 353 l 1,118,-1
 593 311 l 1,119,-1
 593 291 l 1,120,-1
 608 291 l 2,121,122
 646 291 646 291 705 435 c 1,123,-1
 688 457 l 1,124,-1
 688 477 l 1,125,-1
 705 497 l 1,126,127
 674 592 674 592 640 601 c 1,128,-1
 625 601 l 1,115,-1
EndSplineSet
EndChar

StartChar: percent
Encoding: 37 37 8
Width: 1150
GlyphClass: 1
Flags: W
LayerCount: 2
Fore
SplineSet
386 1758 m 1,0,1
 426 1750 426 1750 480 1658 c 1,2,3
 553 1658 553 1658 643 1440 c 1,4,-1
 643 1419 l 2,5,6
 643 1189 643 1189 535 1102 c 1,7,-1
 278 962 l 1,8,-1
 265 962 l 1,9,-1
 223 981 l 1,10,-1
 210 962 l 1,11,-1
 196 962 l 1,12,13
 33 1021 33 1021 33 1201 c 2,14,-1
 33 1241 l 1,15,-1
 61 1301 l 1,16,-1
 48 1400 l 1,17,18
 75 1400 75 1400 75 1499 c 1,19,20
 186 1698 186 1698 386 1758 c 1,0,1
358 1519 m 1,21,22
 358 1440 358 1440 278 1440 c 1,23,24
 278 1347 278 1347 156 1201 c 1,25,-1
 156 1142 l 1,26,-1
 223 1121 l 1,27,28
 548 1266 548 1266 548 1381 c 2,29,-1
 548 1419 l 1,30,31
 508 1419 508 1419 508 1499 c 1,32,-1
 371 1519 l 1,33,-1
 358 1519 l 1,21,22
860 1499 m 1,34,-1
 900 1499 l 1,35,-1
 955 1419 l 1,36,37
 955 1257 955 1257 805 1161 c 1,38,39
 805 1115 805 1115 426 643 c 1,40,41
 303 416 303 416 115 245 c 1,42,-1
 88 285 l 1,43,-1
 236 503 l 1,44,-1
 223 564 l 1,45,46
 266 564 266 564 386 823 c 1,47,48
 747 1293 747 1293 860 1499 c 1,34,-1
900 782 m 1,49,50
 1016 782 1016 782 1103 583 c 1,51,-1
 1090 503 l 1,52,-1
 1103 425 l 1,53,54
 988 186 988 186 792 27 c 1,55,56
 792 -13 792 -13 656 -34 c 1,57,-1
 643 -53 l 1,58,-1
 603 -53 l 2,59,60
 453 -53 453 -53 453 205 c 0,61,62
 455 294 455 294 508 385 c 1,63,-1
 508 425 l 1,64,-1
 535 484 l 1,65,66
 535 670 535 670 900 782 c 1,49,50
575 126 m 1,67,-1
 588 126 l 1,68,69
 995 353 995 353 995 543 c 1,70,-1
 873 604 l 1,71,72
 746 604 746 604 711 465 c 1,73,74
 674 465 674 465 616 245 c 1,75,76
 575 245 575 245 575 126 c 1,67,-1
EndSplineSet
EndChar

StartChar: ampersand
Encoding: 38 38 9
Width: 1115
GlyphClass: 1
Flags: W
LayerCount: 2
Fore
SplineSet
381 1637 m 1,0,-1
 551 1637 l 1,1,2
 839 1583 839 1583 839 1306 c 2,3,-1
 839 1196 l 2,4,5
 839 1012 839 1012 533 711 c 1,6,-1
 601 600 l 1,7,-1
 585 578 l 1,8,-1
 585 557 l 1,9,10
 644 538 644 538 754 379 c 1,11,-1
 771 379 l 1,12,-1
 906 490 l 1,13,14
 906 578 906 578 941 578 c 2,15,-1
 974 578 l 1,16,-1
 991 557 l 1,17,-1
 1008 557 l 1,18,19
 1019 688 1019 688 1059 688 c 1,20,-1
 1076 666 l 1,21,-1
 1076 644 l 1,22,-1
 1059 511 l 1,23,-1
 1076 490 l 1,24,25
 1022 490 1022 490 873 203 c 1,26,27
 1076 25 1076 25 1076 -17 c 1,28,29
 1050 -106 1050 -106 1025 -106 c 2,30,-1
 958 -106 l 1,31,32
 906 -40 906 -40 839 -40 c 1,33,-1
 754 115 l 1,34,-1
 703 115 l 1,35,-1
 669 70 l 1,36,-1
 653 92 l 1,37,-1
 635 92 l 1,38,39
 588 27 588 27 313 5 c 1,40,-1
 262 27 l 1,41,-1
 245 5 l 1,42,-1
 228 5 l 2,43,44
 48 5 48 5 25 335 c 1,45,-1
 25 357 l 1,46,47
 271 755 271 755 347 755 c 1,48,49
 195 1039 195 1039 195 1306 c 1,50,51
 242 1547 242 1547 381 1637 c 1,0,-1
347 1240 m 1,52,53
 403 909 403 909 448 909 c 2,54,-1
 483 909 l 1,55,56
 716 1146 716 1146 720 1285 c 1,57,58
 720 1430 720 1430 533 1439 c 1,59,60
 415 1439 415 1439 347 1240 c 1,52,53
178 225 m 1,61,-1
 313 181 l 1,62,63
 466 199 466 199 466 246 c 1,64,-1
 516 225 l 1,65,66
 618 246 618 246 618 292 c 1,67,68
 591 292 591 292 448 578 c 1,69,-1
 432 578 l 1,70,71
 313 504 313 504 245 379 c 1,72,73
 178 379 178 379 178 225 c 1,61,-1
EndSplineSet
EndChar

StartChar: quotesingle
Encoding: 39 39 10
Width: 391
GlyphClass: 1
Flags: W
LayerCount: 2
Fore
SplineSet
188 1611 m 1,0,-1
 202 1611 l 2,1,2
 255 1611 255 1611 274 1439 c 1,3,-1
 260 1427 l 1,4,-1
 260 1416 l 1,5,-1
 274 1404 l 1,6,7
 256 1210 256 1210 202 1140 c 1,8,-1
 217 1082 l 1,9,-1
 202 1071 l 1,10,-1
 188 1071 l 1,11,-1
 159 1094 l 1,12,-1
 159 1105 l 1,13,-1
 174 1117 l 1,14,-1
 174 1128 l 1,15,16
 149 1128 149 1128 131 1186 c 1,17,-1
 145 1197 l 1,18,-1
 145 1209 l 1,19,-1
 102 1439 l 1,20,-1
 116 1473 l 1,21,-1
 102 1565 l 1,22,-1
 188 1611 l 1,0,-1
EndSplineSet
EndChar

StartChar: parenleft
Encoding: 40 40 11
Width: 494
GlyphClass: 1
Flags: W
LayerCount: 2
Fore
SplineSet
418 1648 m 1,0,1
 481 1617 481 1617 487 1585 c 1,2,-1
 487 1570 l 1,3,-1
 404 1476 l 1,4,-1
 418 1460 l 1,5,-1
 418 1444 l 1,6,7
 383 1444 383 1444 377 1366 c 1,8,9
 301 1366 301 1366 197 834 c 1,10,-1
 183 756 l 1,11,-1
 197 740 l 1,12,-1
 197 725 l 1,13,-1
 183 708 l 1,14,-1
 183 693 l 1,15,-1
 197 630 l 1,16,-1
 169 584 l 1,17,-1
 211 223 l 1,18,-1
 197 223 l 1,19,20
 279 -103 279 -103 377 -213 c 1,21,-1
 363 -230 l 1,22,-1
 363 -245 l 1,23,-1
 377 -293 l 1,24,-1
 211 -167 l 1,25,-1
 225 -152 l 1,26,-1
 225 -121 l 1,27,28
 184 -121 184 -121 156 -58 c 1,29,-1
 169 -11 l 1,30,31
 137 -11 137 -11 73 208 c 1,32,-1
 86 223 l 1,33,-1
 59 255 l 1,34,-1
 59 286 l 1,35,-1
 73 302 l 1,36,37
 45 427 45 427 45 630 c 1,38,-1
 59 647 l 1,39,-1
 59 662 l 1,40,-1
 45 678 l 1,41,-1
 86 991 l 1,42,-1
 73 1007 l 1,43,-1
 73 1022 l 1,44,45
 225 1648 225 1648 418 1648 c 1,0,1
EndSplineSet
EndChar

StartChar: parenright
Encoding: 41 41 12
Width: 592
GlyphClass: 1
Flags: W
LayerCount: 2
Fore
SplineSet
131 1670 m 1,0,1
 259 1670 259 1670 388 1452 c 1,2,3
 475 1383 475 1383 539 1078 c 1,4,-1
 524 1078 l 1,5,-1
 554 985 l 1,6,-1
 554 688 l 1,7,-1
 539 673 l 1,8,-1
 554 657 l 1,9,10
 554 457 554 457 358 49 c 1,11,12
 326 -29 326 -29 146 -262 c 1,13,-1
 116 -262 l 1,14,15
 116 -86 116 -86 221 -12 c 1,16,-1
 207 3 l 1,17,18
 388 405 388 405 388 518 c 1,19,-1
 403 532 l 1,20,-1
 388 548 l 1,21,-1
 418 735 l 1,22,23
 418 1286 418 1286 70 1577 c 1,24,25
 70 1639 70 1639 131 1639 c 1,26,-1
 131 1670 l 1,0,1
EndSplineSet
EndChar

StartChar: asterisk
Encoding: 42 42 13
Width: 659
GlyphClass: 1
Flags: W
LayerCount: 2
Fore
SplineSet
327 1595 m 1,0,1
 378 1586 378 1586 378 1567 c 2,2,-1
 378 1493 l 1,3,-1
 370 1447 l 1,4,-1
 387 1447 l 1,5,6
 453 1528 453 1528 490 1549 c 1,7,8
 525 1536 525 1536 542 1502 c 1,9,-1
 542 1465 l 1,10,11
 520 1465 520 1465 516 1428 c 1,12,13
 481 1423 481 1423 481 1400 c 2,14,-1
 481 1391 l 1,15,-1
 533 1391 l 1,16,-1
 559 1363 l 1,17,-1
 567 1372 l 1,18,-1
 636 1372 l 1,19,-1
 636 1345 l 1,20,-1
 490 1326 l 1,21,-1
 464 1335 l 1,22,23
 395 1326 395 1326 395 1308 c 1,24,25
 436 1268 436 1268 490 1150 c 1,26,-1
 490 1104 l 1,27,28
 524 1099 524 1099 524 1076 c 2,29,-1
 524 1067 l 1,30,-1
 516 1067 l 2,31,32
 485 1067 485 1067 378 1215 c 1,33,-1
 370 1224 l 1,34,-1
 361 1224 l 1,35,-1
 361 1196 l 1,36,-1
 370 1131 l 1,37,38
 355 1131 355 1131 344 1085 c 1,39,-1
 353 1048 l 1,40,-1
 344 1048 l 1,41,-1
 301 1113 l 1,42,-1
 301 1215 l 1,43,-1
 292 1215 l 1,44,45
 181 1094 181 1094 155 1094 c 1,46,-1
 155 1104 l 1,47,-1
 189 1159 l 1,48,-1
 181 1169 l 1,49,-1
 181 1187 l 1,50,-1
 267 1298 l 1,51,-1
 267 1308 l 1,52,-1
 189 1289 l 1,53,-1
 181 1289 l 1,54,-1
 181 1298 l 1,55,-1
 189 1308 l 1,56,-1
 189 1317 l 1,57,58
 112 1317 112 1317 112 1363 c 1,59,60
 148 1400 148 1400 181 1400 c 2,61,-1
 232 1400 l 1,62,-1
 232 1419 l 1,63,64
 215 1419 215 1419 129 1502 c 1,65,-1
 129 1512 l 1,66,-1
 138 1521 l 1,67,-1
 129 1530 l 1,68,-1
 129 1539 l 2,69,70
 129 1563 129 1563 164 1567 c 1,71,72
 204 1567 204 1567 292 1484 c 1,73,-1
 301 1484 l 1,74,-1
 292 1493 l 1,75,-1
 292 1512 l 1,76,-1
 301 1521 l 1,77,-1
 292 1530 l 1,78,-1
 292 1567 l 2,79,80
 292 1590 292 1590 327 1595 c 1,0,1
EndSplineSet
EndChar

StartChar: plus
Encoding: 43 43 14
Width: 914
GlyphClass: 1
Flags: W
LayerCount: 2
Fore
SplineSet
369 1049 m 1,0,-1
 393 1049 l 2,1,2
 491 1049 491 1049 491 843 c 0,3,4
 491 788 491 788 515 788 c 2,5,-1
 539 788 l 1,6,-1
 661 802 l 1,7,-1
 673 788 l 1,8,-1
 771 843 l 1,9,-1
 795 843 l 1,10,11
 832 802 832 802 880 802 c 1,12,-1
 832 665 l 1,13,-1
 758 692 l 1,14,-1
 698 679 l 1,15,-1
 685 692 l 1,16,-1
 673 692 l 1,17,-1
 600 679 l 1,18,-1
 576 706 l 1,19,20
 576 624 576 624 551 624 c 1,21,-1
 503 637 l 1,22,-1
 503 624 l 1,23,-1
 515 610 l 1,24,-1
 515 596 l 1,25,-1
 503 583 l 1,26,-1
 503 569 l 1,27,-1
 515 500 l 1,28,-1
 503 445 l 1,29,-1
 515 432 l 1,30,-1
 515 418 l 1,31,-1
 503 404 l 1,32,-1
 515 336 l 1,33,-1
 515 322 l 1,34,-1
 503 267 l 1,35,-1
 515 212 l 1,36,-1
 515 144 l 1,37,-1
 503 130 l 1,38,-1
 503 116 l 1,39,40
 454 116 454 116 430 226 c 1,41,-1
 442 240 l 1,42,-1
 442 253 l 1,43,-1
 405 377 l 1,44,-1
 417 391 l 1,45,-1
 393 637 l 1,46,-1
 308 624 l 1,47,-1
 283 624 l 1,48,49
 283 575 283 575 137 569 c 1,50,51
 137 600 137 600 52 624 c 1,52,-1
 52 637 l 1,53,-1
 64 651 l 1,54,-1
 64 665 l 1,55,-1
 52 706 l 1,56,57
 52 733 52 733 381 761 c 1,58,-1
 344 953 l 1,59,-1
 344 1022 l 1,60,-1
 369 1049 l 1,0,-1
EndSplineSet
EndChar

StartChar: comma
Encoding: 44 44 15
Width: 345
GlyphClass: 1
Flags: W
LayerCount: 2
Fore
SplineSet
180 272 m 1,0,1
 277 240 277 240 277 180 c 0,2,3
 277 75 277 75 13 -221 c 1,4,-1
 -15 -221 l 1,5,6
 40 -73 40 -73 55 46 c 1,7,-1
 82 72 l 1,8,-1
 68 112 l 1,9,10
 102 112 102 112 110 218 c 1,11,12
 148 272 148 272 180 272 c 1,0,1
EndSplineSet
EndChar

StartChar: hyphen
Encoding: 45 45 16
AltUni2: 0000ad.ffffffff.0 0000ad.ffffffff.0
Width: 899
GlyphClass: 1
Flags: W
LayerCount: 2
Fore
SplineSet
540 629 m 2,0,-1
 601 629 l 2,1,2
 799 629 799 629 830 543 c 1,3,4
 876 543 876 543 876 509 c 2,5,-1
 876 492 l 1,6,-1
 845 492 l 1,7,-1
 784 509 l 1,8,-1
 388 475 l 1,9,-1
 373 492 l 1,10,-1
 373 475 l 1,11,-1
 388 406 l 1,12,-1
 296 406 l 1,13,-1
 220 389 l 1,14,-1
 220 406 l 1,15,-1
 235 423 l 1,16,-1
 235 440 l 1,17,-1
 174 440 l 1,18,-1
 190 423 l 1,19,-1
 190 389 l 1,20,-1
 98 389 l 1,21,-1
 37 458 l 1,22,-1
 37 526 l 2,23,24
 37 629 37 629 540 629 c 2,0,-1
266 458 m 1,25,-1
 266 423 l 1,26,-1
 296 458 l 1,27,-1
 266 458 l 1,25,-1
EndSplineSet
EndChar

StartChar: period
Encoding: 46 46 17
Width: 508
GlyphClass: 1
Flags: W
LayerCount: 2
Fore
SplineSet
324 284 m 1,0,-1
 351 254 l 1,1,-1
 365 270 l 1,2,-1
 391 179 l 1,3,4
 369 80 369 80 271 0 c 1,5,-1
 230 0 l 1,6,7
 150 51 150 51 150 90 c 0,8,9
 150 254 150 254 244 254 c 1,10,11
 244 274 244 274 324 284 c 1,0,-1
EndSplineSet
EndChar

StartChar: slash
Encoding: 47 47 18
Width: 921
GlyphClass: 1
Flags: W
LayerCount: 2
Fore
SplineSet
787 1641 m 1,0,1
 914 1632 914 1632 914 1551 c 0,2,3
 914 1531 914 1531 907 1507 c 1,4,5
 397 479 397 479 360 346 c 1,6,7
 298 346 298 346 298 323 c 0,8,9
 298 321 298 321 299 319 c 2,10,-1
 299 310 l 2,11,12
 299 271 299 271 254 138 c 0,13,14
 201 -15 201 -15 186 -15 c 0,15,16
 119 -13 119 -13 51 61 c 1,17,18
 501 1013 501 1013 501 1038 c 0,19,20
 501 1062 501 1062 787 1641 c 1,0,1
EndSplineSet
Substitution2: "'frac' Diagonale Br+APwA-che in Lateinisch Nachschlagetabelle 0 Subtabelle" fraction
EndChar

StartChar: zero
Encoding: 48 48 19
Width: 1217
GlyphClass: 1
Flags: W
LayerCount: 2
Fore
SplineSet
742 1604 m 1,0,1
 742 1580 742 1580 855 1542 c 1,2,-1
 869 1527 l 1,3,-1
 869 1495 l 1,4,-1
 855 1479 l 1,5,-1
 855 1464 l 1,6,7
 984 1464 984 1464 1040 1215 c 1,8,-1
 1082 1137 l 1,9,-1
 1068 1090 l 1,10,-1
 1111 873 l 1,11,-1
 1082 779 l 1,12,-1
 1111 748 l 1,13,14
 1068 748 1068 748 1068 670 c 1,15,-1
 1040 670 l 1,16,-1
 1054 608 l 1,17,18
 1013 449 1013 449 855 218 c 1,19,20
 785 189 785 189 785 125 c 1,21,22
 699 109 699 109 699 46 c 1,23,-1
 685 46 l 1,24,-1
 685 78 l 1,25,-1
 656 78 l 1,26,-1
 670 63 l 1,27,-1
 670 46 l 1,28,29
 603 0 603 0 457 0 c 0,30,31
 163 0 163 0 45 591 c 1,32,-1
 59 591 l 1,33,-1
 45 608 l 1,34,-1
 45 623 l 2,35,36
 45 1086 45 1086 443 1527 c 1,37,38
 495 1569 495 1569 742 1604 c 1,0,1
735 1380 m 1,39,40
 722 1206 722 1206 685 1206 c 2,41,-1
 660 1206 l 1,42,-1
 660 1278 l 1,43,-1
 634 1337 l 1,44,-1
 609 1337 l 1,45,46
 403 1212 403 1212 359 1060 c 1,47,48
 322 1060 322 1060 322 1002 c 1,49,-1
 296 973 l 1,50,-1
 308 958 l 1,51,-1
 308 943 l 1,52,-1
 246 814 l 1,53,-1
 258 741 l 1,54,-1
 234 741 l 1,55,-1
 234 669 l 1,56,-1
 208 581 l 1,57,58
 243 581 243 581 272 450 c 1,59,-1
 283 435 l 1,60,-1
 272 421 l 1,61,-1
 272 406 l 2,62,63
 272 316 272 316 421 204 c 1,64,-1
 484 204 l 2,65,66
 647 204 647 204 785 435 c 1,67,68
 844 435 844 435 922 858 c 1,69,-1
 922 914 l 1,70,-1
 910 1162 l 1,71,72
 871 1162 871 1162 848 1278 c 1,73,74
 779 1380 779 1380 735 1380 c 1,39,40
EndSplineSet
EndChar

StartChar: one
Encoding: 49 49 20
Width: 772
GlyphClass: 1
Flags: W
LayerCount: 2
Fore
SplineSet
433 1644 m 0,0,1
 569 1644 569 1644 569 1329 c 1,2,-1
 530 1284 l 1,3,-1
 550 1269 l 1,4,-1
 550 1254 l 1,5,-1
 530 1239 l 1,6,-1
 550 1223 l 1,7,-1
 550 1208 l 1,8,-1
 530 1193 l 1,9,-1
 530 1178 l 1,10,-1
 550 1104 l 1,11,12
 521 1043 521 1043 491 1043 c 1,13,-1
 511 1028 l 1,14,-1
 511 1013 l 1,15,-1
 491 969 l 1,16,-1
 550 804 l 1,17,-1
 472 653 l 1,18,-1
 511 533 l 1,19,-1
 491 518 l 1,20,-1
 491 503 l 1,21,-1
 511 444 l 1,22,-1
 491 353 l 1,23,-1
 511 338 l 1,24,-1
 511 323 l 1,25,-1
 491 264 l 1,26,-1
 511 188 l 1,27,-1
 491 173 l 1,28,-1
 472 173 l 1,29,-1
 511 113 l 1,30,-1
 491 98 l 1,31,-1
 491 83 l 1,32,-1
 511 8 l 1,33,-1
 452 -22 l 1,34,-1
 433 -22 l 1,35,-1
 433 8 l 1,36,-1
 452 23 l 1,37,38
 438 110 438 110 355 158 c 1,39,-1
 355 203 l 1,40,41
 316 203 316 203 316 249 c 1,42,-1
 335 293 l 1,43,-1
 296 488 l 1,44,-1
 316 503 l 1,45,-1
 316 518 l 1,46,-1
 296 594 l 1,47,-1
 355 683 l 1,48,49
 296 683 296 683 296 713 c 2,50,-1
 296 969 l 1,51,-1
 277 1028 l 1,52,-1
 316 1119 l 1,53,-1
 296 1178 l 1,54,-1
 335 1208 l 1,55,-1
 296 1254 l 1,56,-1
 316 1299 l 1,57,-1
 296 1373 l 1,58,-1
 316 1388 l 1,59,-1
 316 1404 l 1,60,-1
 296 1494 l 1,61,-1
 296 1539 l 2,62,63
 296 1644 296 1644 433 1644 c 0,0,1
EndSplineSet
EndChar

StartChar: two
Encoding: 50 50 21
Width: 1026
GlyphClass: 1
Flags: W
LayerCount: 2
Fore
SplineSet
499 1625 m 1,0,1
 710 1554 710 1554 710 1299 c 2,2,-1
 710 1145 l 1,3,4
 676 973 676 973 632 973 c 1,5,-1
 409 437 l 1,6,7
 409 360 409 360 355 245 c 1,8,-1
 366 245 l 1,9,-1
 542 284 l 1,10,-1
 542 264 l 1,11,-1
 555 284 l 1,12,-1
 710 284 l 1,13,-1
 754 264 l 1,14,-1
 799 284 l 1,15,-1
 887 284 l 1,16,-1
 897 264 l 1,17,-1
 909 284 l 1,18,-1
 921 284 l 1,19,-1
 953 245 l 1,20,-1
 1009 245 l 1,21,-1
 1009 207 l 1,22,23
 980 168 980 168 577 92 c 1,24,25
 577 54 577 54 277 -3 c 1,26,-1
 267 -23 l 1,27,-1
 211 -23 l 1,28,-1
 188 15 l 1,29,-1
 188 54 l 1,30,31
 134 67 134 67 134 112 c 2,32,-1
 134 131 l 1,33,34
 174 331 174 331 510 954 c 1,35,36
 598 1206 598 1206 598 1299 c 2,37,-1
 598 1318 l 1,38,39
 560 1415 560 1415 476 1415 c 1,40,-1
 444 1376 l 1,41,-1
 433 1395 l 1,42,-1
 433 1415 l 1,43,-1
 366 1357 l 1,44,-1
 344 1357 l 1,45,-1
 344 1395 l 1,46,-1
 311 1357 l 1,47,-1
 277 1376 l 1,48,-1
 244 1299 l 1,49,-1
 244 1338 l 1,50,-1
 232 1338 l 1,51,-1
 89 1203 l 1,52,53
 22 1222 22 1222 22 1261 c 2,54,-1
 22 1318 l 1,55,56
 105 1495 105 1495 409 1606 c 1,57,-1
 499 1625 l 1,0,1
EndSplineSet
EndChar

StartChar: three
Encoding: 51 51 22
Width: 998
GlyphClass: 1
Flags: W
LayerCount: 2
Fore
SplineSet
625 1635 m 1,0,1
 890 1635 890 1635 890 1529 c 1,2,-1
 917 1406 l 1,3,4
 663 1242 663 1242 570 1071 c 1,5,-1
 555 1071 l 1,6,-1
 555 1036 l 1,7,-1
 611 1036 l 1,8,9
 917 926 917 926 917 806 c 1,10,11
 949 806 949 806 973 594 c 1,12,-1
 973 453 l 1,13,14
 881 200 881 200 694 65 c 1,15,-1
 667 65 l 1,16,-1
 653 82 l 1,17,-1
 640 82 l 1,18,19
 640 17 640 17 584 -24 c 1,20,-1
 584 -6 l 1,21,-1
 541 -41 l 1,22,-1
 444 -24 l 1,23,-1
 236 -24 l 1,24,25
 168 17 168 17 111 118 c 1,26,-1
 111 224 l 1,27,28
 282 136 282 136 348 136 c 0,29,30
 471 136 471 136 528 188 c 1,31,-1
 541 170 l 1,32,-1
 555 170 l 1,33,-1
 737 330 l 1,34,35
 847 510 847 510 847 612 c 0,36,37
 847 753 847 753 723 823 c 1,38,-1
 708 806 l 1,39,-1
 694 806 l 1,40,-1
 667 841 l 1,41,-1
 653 823 l 1,42,-1
 584 841 l 1,43,-1
 541 841 l 2,44,45
 507 841 507 841 444 771 c 1,46,-1
 402 717 l 1,47,-1
 319 859 l 1,48,49
 350 1063 350 1063 640 1441 c 1,50,-1
 640 1458 l 1,51,-1
 611 1458 l 1,52,-1
 570 1441 l 1,53,-1
 555 1458 l 1,54,55
 555 1395 555 1395 361 1370 c 1,56,-1
 361 1388 l 1,57,-1
 278 1353 l 1,58,-1
 222 1370 l 1,59,-1
 195 1370 l 1,60,-1
 195 1388 l 1,61,62
 69 1388 69 1388 69 1476 c 256,63,64
 69 1564 69 1564 625 1635 c 1,0,1
EndSplineSet
EndChar

StartChar: four
Encoding: 52 52 23
Width: 1062
GlyphClass: 1
Flags: W
LayerCount: 2
Fore
SplineSet
147 1655 m 1,0,-1
 228 1655 l 2,1,2
 299 1655 299 1655 309 1425 c 1,3,-1
 309 1380 l 2,4,5
 309 1306 309 1306 261 1251 c 1,6,-1
 261 1222 l 1,7,-1
 277 1165 l 1,8,-1
 244 1078 l 1,9,-1
 261 1006 l 1,10,-1
 212 877 l 1,11,-1
 228 877 l 1,12,-1
 407 891 l 1,13,-1
 456 862 l 1,14,15
 489 862 489 862 554 1237 c 1,16,-1
 538 1251 l 1,17,-1
 571 1380 l 1,18,-1
 554 1425 l 1,19,20
 564 1554 564 1554 604 1554 c 0,21,22
 734 1554 734 1554 734 1468 c 1,23,-1
 767 1265 l 1,24,-1
 734 1237 l 1,25,-1
 734 1193 l 1,26,-1
 750 1179 l 1,27,-1
 750 1165 l 1,28,-1
 702 1150 l 1,29,-1
 702 1136 l 1,30,-1
 718 1064 l 1,31,-1
 669 1035 l 1,32,-1
 685 992 l 1,33,-1
 669 977 l 1,34,-1
 669 963 l 1,35,-1
 685 949 l 1,36,-1
 685 934 l 1,37,-1
 669 891 l 1,38,-1
 702 862 l 1,39,-1
 718 877 l 1,40,-1
 767 877 l 1,41,42
 1141 860 1141 860 1141 819 c 0,43,44
 1141 767 1141 767 1011 746 c 1,45,-1
 995 760 l 1,46,-1
 978 760 l 1,47,-1
 881 746 l 1,48,-1
 864 746 l 1,49,-1
 848 760 l 1,50,-1
 832 746 l 1,51,-1
 750 746 l 1,52,-1
 734 760 l 1,53,54
 669 751 669 751 653 688 c 1,55,-1
 636 703 l 1,56,-1
 620 703 l 1,57,-1
 571 660 l 1,58,-1
 620 660 l 1,59,60
 607 573 607 573 588 573 c 1,61,-1
 604 559 l 1,62,-1
 571 357 l 1,63,-1
 571 155 l 1,64,-1
 538 -18 l 1,65,-1
 505 -18 l 1,66,67
 423 146 423 146 423 314 c 1,68,-1
 440 314 l 1,69,-1
 423 329 l 1,70,-1
 423 401 l 1,71,-1
 440 415 l 1,72,-1
 423 429 l 1,73,-1
 456 717 l 1,74,-1
 440 732 l 1,75,-1
 65 674 l 1,76,-1
 65 688 l 1,77,-1
 0 775 l 1,78,-1
 0 789 l 1,79,80
 57 789 57 789 114 1540 c 1,81,-1
 114 1626 l 1,82,-1
 147 1655 l 1,0,-1
EndSplineSet
EndChar

StartChar: five
Encoding: 53 53 24
Width: 987
GlyphClass: 1
Flags: W
LayerCount: 2
Fore
SplineSet
516 1630 m 1,0,-1
 533 1613 l 1,1,-1
 722 1630 l 1,2,-1
 816 1630 l 2,3,4
 902 1630 902 1630 942 1549 c 1,5,-1
 942 1517 l 2,6,7
 942 1432 942 1432 894 1419 c 1,8,-1
 768 1419 l 1,9,-1
 675 1404 l 1,10,-1
 659 1419 l 1,11,-1
 642 1419 l 1,12,-1
 627 1404 l 1,13,-1
 612 1404 l 1,14,-1
 564 1419 l 1,15,-1
 533 1387 l 1,16,-1
 516 1404 l 1,17,-1
 312 1323 l 1,18,-1
 297 1257 l 1,19,-1
 312 1242 l 1,20,-1
 264 919 l 1,21,-1
 281 903 l 1,22,-1
 297 903 l 1,23,-1
 501 967 l 1,24,25
 864 908 864 908 864 629 c 2,26,-1
 864 595 l 2,27,28
 864 374 864 374 705 176 c 1,29,30
 642 112 642 112 453 63 c 1,31,32
 453 -1 453 -1 264 -1 c 1,33,-1
 264 14 l 1,34,-1
 249 -1 l 1,35,-1
 234 -1 l 1,36,-1
 218 14 l 1,37,-1
 201 14 l 1,38,-1
 171 -18 l 1,39,40
 60 31 60 31 60 144 c 2,41,-1
 60 176 l 1,42,-1
 108 224 l 1,43,-1
 186 224 l 1,44,-1
 234 192 l 1,45,46
 705 260 705 260 705 629 c 1,47,-1
 642 789 l 1,48,-1
 564 774 l 1,49,-1
 501 806 l 1,50,-1
 327 742 l 1,51,-1
 344 693 l 1,52,-1
 249 595 l 1,53,-1
 218 629 l 1,54,-1
 155 629 l 1,55,56
 155 580 155 580 123 580 c 2,57,-1
 108 580 l 1,58,59
 108 655 108 655 75 693 c 1,60,-1
 75 742 l 1,61,-1
 92 806 l 1,62,-1
 75 822 l 1,63,-1
 155 1323 l 1,64,-1
 138 1338 l 1,65,-1
 138 1355 l 1,66,-1
 155 1419 l 1,67,-1
 123 1452 l 1,68,-1
 123 1517 l 1,69,-1
 249 1613 l 1,70,-1
 327 1581 l 1,71,-1
 407 1597 l 1,72,-1
 407 1581 l 1,73,74
 516 1602 516 1602 516 1630 c 1,0,-1
EndSplineSet
EndChar

StartChar: six
Encoding: 54 54 25
Width: 1069
GlyphClass: 1
Flags: W
LayerCount: 2
Fore
SplineSet
587 1658 m 1,0,-1
 643 1658 l 2,1,2
 677 1658 677 1658 714 1536 c 1,3,4
 714 1432 714 1432 459 1276 c 1,5,6
 383 1114 383 1114 317 1051 c 1,7,8
 317 900 317 900 247 843 c 1,9,-1
 233 687 l 1,10,-1
 247 669 l 1,11,-1
 247 652 l 1,12,-1
 219 565 l 1,13,-1
 247 409 l 1,14,-1
 290 409 l 1,15,-1
 290 461 l 2,16,17
 290 591 290 591 487 721 c 1,18,19
 487 756 487 756 686 808 c 1,20,21
 969 765 969 765 969 565 c 1,22,23
 1025 565 1025 565 1025 392 c 1,24,-1
 997 323 l 1,25,-1
 1011 271 l 1,26,27
 874 11 874 11 544 11 c 1,28,-1
 487 -7 l 1,29,30
 261 101 261 101 261 131 c 1,31,32
 173 131 173 131 77 461 c 1,33,-1
 77 669 l 1,34,35
 117 1097 117 1097 473 1554 c 1,36,-1
 587 1658 l 1,0,-1
643 600 m 1,37,-1
 601 548 l 1,38,-1
 587 565 l 1,39,-1
 572 565 l 1,40,41
 445 451 445 451 445 375 c 1,42,-1
 431 375 l 1,43,44
 431 201 431 201 544 201 c 1,45,-1
 658 219 l 1,46,-1
 658 201 l 1,47,48
 869 283 869 283 869 409 c 2,49,-1
 869 496 l 1,50,51
 827 496 827 496 785 565 c 1,52,-1
 729 583 l 1,53,-1
 672 565 l 1,54,-1
 643 600 l 1,37,-1
EndSplineSet
EndChar

StartChar: seven
Encoding: 55 55 26
Width: 906
GlyphClass: 1
Flags: W
LayerCount: 2
Fore
SplineSet
868 1641 m 1,0,-1
 911 1582 l 1,1,-1
 898 1523 l 1,2,3
 941 1523 941 1523 941 1493 c 1,4,5
 866 1417 866 1417 795 1390 c 1,6,-1
 678 1095 l 1,7,-1
 562 520 l 1,8,-1
 577 505 l 1,9,-1
 577 490 l 1,10,-1
 547 431 l 1,11,-1
 562 416 l 1,12,-1
 562 387 l 1,13,-1
 533 357 l 1,14,-1
 547 343 l 1,15,-1
 547 328 l 1,16,-1
 519 255 l 1,17,-1
 533 240 l 1,18,19
 519 99 519 99 475 63 c 1,20,-1
 475 -11 l 1,21,-1
 446 -11 l 1,22,-1
 417 122 l 1,23,-1
 402 122 l 1,24,-1
 431 357 l 1,25,-1
 417 372 l 1,26,-1
 417 387 l 1,27,28
 426 535 426 535 446 535 c 1,29,-1
 431 550 l 1,30,31
 479 971 479 971 620 1347 c 1,32,33
 650 1347 650 1347 650 1434 c 1,34,-1
 664 1449 l 1,35,-1
 650 1464 l 1,36,-1
 577 1478 l 1,37,-1
 547 1449 l 1,38,-1
 533 1449 l 1,39,-1
 475 1464 l 1,40,-1
 359 1434 l 1,41,-1
 344 1449 l 1,42,-1
 329 1449 l 1,43,-1
 314 1434 l 1,44,-1
 301 1434 l 1,45,-1
 256 1449 l 1,46,-1
 213 1434 l 1,47,48
 91 1434 91 1434 38 1552 c 1,49,-1
 38 1567 l 2,50,51
 38 1605 38 1605 96 1611 c 2,52,-1
 868 1641 l 1,0,-1
EndSplineSet
EndChar

StartChar: eight
Encoding: 56 56 27
Width: 1023
GlyphClass: 1
Flags: W
LayerCount: 2
Fore
SplineSet
675 1655 m 1,0,1
 801 1655 801 1655 801 1498 c 1,2,-1
 753 1419 l 1,3,4
 870 1419 870 1419 895 1184 c 1,5,6
 850 925 850 925 691 807 c 1,7,8
 659 807 659 807 659 728 c 1,9,-1
 675 728 l 1,10,11
 753 708 753 708 863 587 c 1,12,-1
 863 571 l 1,13,-1
 848 556 l 1,14,-1
 848 540 l 1,15,-1
 863 525 l 1,16,-1
 879 525 l 1,17,-1
 910 556 l 1,18,-1
 1005 337 l 1,19,-1
 974 273 l 1,20,-1
 989 226 l 1,21,-1
 974 226 l 1,22,-1
 848 70 l 1,23,24
 793 70 793 70 691 -25 c 1,25,26
 659 -25 659 -25 659 22 c 1,27,-1
 596 -25 l 1,28,-1
 580 -9 l 1,29,-1
 565 -25 l 1,30,-1
 549 -25 l 1,31,32
 518 6 518 6 407 6 c 1,33,34
 171 149 171 149 171 399 c 1,35,36
 221 555 221 555 328 681 c 1,37,-1
 124 902 l 1,38,-1
 61 1105 l 1,39,-1
 76 1121 l 1,40,-1
 61 1137 l 1,41,-1
 45 1137 l 1,42,43
 45 1396 45 1396 485 1608 c 1,44,-1
 675 1655 l 1,0,1
250 1184 m 1,45,-1
 250 1137 l 1,46,47
 202 1137 202 1137 202 1105 c 1,48,49
 345 854 345 854 407 854 c 1,50,-1
 454 838 l 1,51,-1
 706 1152 l 1,52,-1
 706 1216 l 2,53,54
 706 1351 706 1351 580 1404 c 1,55,-1
 533 1404 l 2,56,57
 415 1404 415 1404 250 1184 c 1,45,-1
518 604 m 1,58,-1
 392 414 l 1,59,-1
 359 352 l 1,60,-1
 359 242 l 1,61,62
 439 147 439 147 549 147 c 1,63,64
 817 191 817 191 817 368 c 0,65,66
 817 468 817 468 518 604 c 1,58,-1
EndSplineSet
EndChar

StartChar: nine
Encoding: 57 57 28
Width: 1108
GlyphClass: 1
Flags: W
LayerCount: 2
Fore
SplineSet
713 1647 m 1,0,-1
 774 1631 l 1,1,-1
 790 1647 l 1,2,-1
 805 1647 l 1,3,4
 1019 1596 1019 1596 1019 1491 c 2,5,-1
 1019 1475 l 2,6,7
 1019 1355 1019 1355 912 926 c 1,8,-1
 928 911 l 1,9,-1
 928 895 l 1,10,-1
 835 379 l 1,11,-1
 851 332 l 1,12,-1
 835 316 l 1,13,-1
 835 301 l 1,14,-1
 851 285 l 1,15,-1
 851 269 l 1,16,-1
 835 223 l 1,17,-1
 851 128 l 1,18,-1
 851 65 l 1,19,-1
 821 34 l 1,20,-1
 835 18 l 1,21,-1
 835 -12 l 1,22,-1
 805 -44 l 1,23,-1
 790 4 l 1,24,-1
 774 4 l 1,25,-1
 728 -27 l 1,26,-1
 713 -12 l 1,27,-1
 713 4 l 1,28,-1
 698 -12 l 1,29,-1
 683 -12 l 1,30,-1
 652 18 l 1,31,-1
 652 176 l 1,32,-1
 667 191 l 1,33,-1
 652 207 l 1,34,-1
 652 223 l 1,35,-1
 698 566 l 1,36,-1
 683 582 l 1,37,-1
 683 598 l 1,38,-1
 774 1146 l 1,39,40
 458 911 458 911 254 911 c 1,41,42
 102 1021 102 1021 102 1068 c 1,43,-1
 56 1146 l 1,44,45
 56 1423 56 1423 362 1569 c 1,46,47
 595 1647 595 1647 713 1647 c 1,0,-1
240 1177 m 1,48,-1
 254 1099 l 1,49,50
 553 1178 553 1178 774 1427 c 1,51,-1
 774 1444 l 1,52,-1
 652 1444 l 1,53,-1
 576 1427 l 1,54,-1
 560 1444 l 1,55,-1
 530 1411 l 1,56,-1
 411 1399 l 1,57,58
 294 1319 294 1319 240 1177 c 1,48,-1
EndSplineSet
EndChar

StartChar: colon
Encoding: 58 58 29
Width: 452
GlyphClass: 1
Flags: W
LayerCount: 2
Fore
SplineSet
172 906 m 1,0,-1
 250 906 l 1,1,2
 367 850 367 850 367 704 c 1,3,-1
 348 681 l 1,4,-1
 367 659 l 1,5,-1
 348 636 l 1,6,-1
 289 636 l 2,7,8
 182 636 182 636 114 771 c 1,9,-1
 114 839 l 1,10,-1
 172 906 l 1,0,-1
192 367 m 1,11,12
 278 367 278 367 367 165 c 1,13,-1
 367 120 l 1,14,-1
 328 75 l 1,15,-1
 211 75 l 1,16,-1
 146 127 l 1,17,-1
 75 232 l 1,18,19
 75 331 75 331 192 367 c 1,11,12
EndSplineSet
EndChar

StartChar: semicolon
Encoding: 59 59 30
AltUni2: 00037e.ffffffff.0 00037e.ffffffff.0
Width: 457
GlyphClass: 1
Flags: W
LayerCount: 2
Fore
SplineSet
333 959 m 1,0,-1
 358 931 l 1,1,-1
 370 945 l 1,2,-1
 395 860 l 1,3,4
 375 766 375 766 283 690 c 1,5,-1
 246 690 l 1,6,7
 172 750 172 750 172 803 c 0,8,9
 172 933 172 933 333 959 c 1,0,-1
283 435 m 1,10,11
 370 400 370 400 370 336 c 0,12,13
 370 226 370 226 135 -89 c 1,14,-1
 110 -89 l 1,15,-1
 246 421 l 1,16,-1
 283 435 l 1,10,11
EndSplineSet
EndChar

StartChar: less
Encoding: 60 60 31
Width: 876
GlyphClass: 1
Flags: W
LayerCount: 2
Fore
SplineSet
226 689 m 1,0,-1
 407 675 l 1,1,-1
 472 689 l 1,2,-1
 485 675 l 1,3,-1
 498 675 l 1,4,-1
 511 689 l 1,5,-1
 718 646 l 1,6,-1
 756 660 l 1,7,-1
 782 632 l 1,8,-1
 834 646 l 1,9,-1
 847 632 l 1,10,-1
 847 617 l 2,11,12
 847 583 847 583 588 560 c 1,13,-1
 524 574 l 1,14,-1
 511 560 l 1,15,-1
 511 546 l 1,16,-1
 459 560 l 1,17,-1
 97 517 l 1,18,19
 45 577 45 577 45 632 c 0,20,21
 45 689 45 689 226 689 c 1,0,-1
EndSplineSet
EndChar

StartChar: equal
Encoding: 61 61 32
Width: 876
GlyphClass: 1
Flags: W
LayerCount: 2
Fore
SplineSet
238 712 m 1,0,-1
 395 700 l 1,1,-1
 451 712 l 1,2,-1
 462 700 l 1,3,-1
 473 700 l 1,4,-1
 484 712 l 1,5,-1
 663 677 l 1,6,-1
 697 688 l 1,7,-1
 719 665 l 1,8,-1
 764 677 l 1,9,-1
 775 665 l 1,10,-1
 775 653 l 2,11,12
 775 625 775 625 551 606 c 1,13,-1
 495 617 l 1,14,-1
 484 606 l 1,15,-1
 484 594 l 1,16,-1
 440 606 l 1,17,-1
 127 570 l 1,18,19
 82 620 82 620 82 665 c 0,20,21
 82 712 82 712 238 712 c 1,0,-1
116 464 m 2,22,-1
 205 464 l 1,23,-1
 294 452 l 1,24,-1
 395 464 l 1,25,-1
 529 452 l 1,26,-1
 540 464 l 1,27,-1
 551 464 l 1,28,-1
 618 428 l 1,29,-1
 730 452 l 1,30,31
 730 428 730 428 786 428 c 1,32,-1
 786 405 l 1,33,-1
 685 381 l 1,34,-1
 630 381 l 1,35,-1
 618 393 l 1,36,37
 598 369 598 369 384 357 c 1,38,39
 384 342 384 342 305 334 c 1,40,-1
 294 346 l 1,41,-1
 283 346 l 1,42,-1
 250 334 l 1,43,-1
 216 346 l 1,44,-1
 194 322 l 1,45,-1
 138 322 l 1,46,-1
 82 393 l 1,47,48
 93 464 93 464 116 464 c 2,22,-1
EndSplineSet
EndChar

StartChar: greater
Encoding: 62 62 33
Width: 689
GlyphClass: 1
Flags: W
LayerCount: 2
Fore
SplineSet
104 936 m 1,0,-1
 614 646 l 1,1,2
 614 515 614 515 527 459 c 1,3,-1
 490 408 l 1,4,-1
 452 442 l 1,5,6
 452 379 452 379 340 357 c 1,7,-1
 228 237 l 1,8,-1
 191 254 l 1,9,-1
 191 237 l 1,10,-1
 54 135 l 1,11,-1
 29 203 l 1,12,-1
 29 220 l 1,13,14
 59 220 59 220 166 357 c 1,15,-1
 415 561 l 1,16,-1
 415 578 l 2,17,18
 415 619 415 619 178 663 c 1,19,20
 178 697 178 697 104 697 c 1,21,22
 29 793 29 793 29 902 c 1,23,-1
 104 936 l 1,0,-1
EndSplineSet
EndChar

StartChar: question
Encoding: 63 63 34
Width: 885
GlyphClass: 1
Flags: W
LayerCount: 2
Fore
SplineSet
462 1648 m 1,0,-1
 477 1632 l 1,1,-1
 490 1648 l 1,2,3
 736 1648 736 1648 793 1399 c 1,4,-1
 793 1228 l 1,5,6
 735 1169 735 1169 735 1071 c 1,7,8
 449 652 449 652 419 651 c 1,9,-1
 419 590 l 2,10,11
 419 558 419 558 477 558 c 1,12,-1
 490 542 l 1,13,-1
 490 512 l 1,14,-1
 433 480 l 1,15,-1
 347 480 l 1,16,-1
 260 574 l 1,17,-1
 260 620 l 2,18,19
 260 703 260 703 606 1165 c 1,20,-1
 648 1259 l 1,21,-1
 648 1336 l 1,22,-1
 634 1415 l 1,23,-1
 648 1430 l 1,24,25
 544 1492 544 1492 490 1492 c 1,26,-1
 448 1477 l 1,27,-1
 448 1492 l 1,28,-1
 146 1305 l 1,29,-1
 60 1290 l 1,30,-1
 45 1336 l 1,31,32
 235 1648 235 1648 462 1648 c 1,0,-1
396 232 m 1,33,34
 442 231 442 231 497 106 c 1,35,-1
 497 70 l 1,36,-1
 430 -1 l 1,37,-1
 396 -1 l 1,38,-1
 278 106 l 1,39,-1
 278 178 l 2,40,41
 278 214 278 214 396 232 c 1,33,34
EndSplineSet
EndChar

StartChar: at
Encoding: 64 64 35
Width: 1390
GlyphClass: 1
Flags: W
LayerCount: 2
Fore
SplineSet
638 1592 m 1,0,-1
 638 1570 l 1,1,-1
 653 1592 l 1,2,-1
 668 1592 l 2,3,4
 1122 1592 1122 1592 1282 1042 c 1,5,6
 1312 1042 1312 1042 1312 931 c 1,7,-1
 1341 888 l 1,8,9
 1341 467 1341 467 1005 316 c 1,10,-1
 975 316 l 1,11,12
 856 381 856 381 799 558 c 1,13,-1
 786 558 l 1,14,15
 786 479 786 479 536 360 c 1,16,-1
 506 360 l 1,17,18
 376 404 376 404 376 470 c 1,19,-1
 389 492 l 1,20,-1
 389 513 l 1,21,-1
 361 558 l 1,22,23
 361 885 361 885 668 1130 c 1,24,25
 668 1179 668 1179 829 1196 c 1,26,27
 946 1161 946 1161 946 756 c 1,28,-1
 931 667 l 1,29,-1
 931 624 l 1,30,-1
 961 580 l 1,31,-1
 1005 580 l 2,32,33
 1153 580 1153 580 1209 822 c 1,34,-1
 1209 866 l 1,35,36
 1044 1349 1044 1349 858 1349 c 1,37,-1
 858 1394 l 1,38,-1
 844 1394 l 1,39,-1
 756 1349 l 1,40,-1
 727 1394 l 1,41,42
 630 1394 630 1394 506 1306 c 1,43,-1
 419 1284 l 1,44,-1
 419 1262 l 1,45,-1
 434 1240 l 1,46,-1
 434 1217 l 1,47,48
 335 1201 335 1201 214 866 c 1,49,50
 214 451 214 451 376 294 c 1,51,52
 437 169 437 169 756 74 c 1,53,54
 916 95 916 95 946 140 c 1,55,-1
 961 140 l 1,56,-1
 1033 52 l 1,57,-1
 903 -80 l 1,58,-1
 858 -58 l 1,59,-1
 829 -102 l 1,60,-1
 814 -80 l 1,61,-1
 799 -102 l 1,62,-1
 786 -102 l 1,63,-1
 565 -58 l 1,64,-1
 506 -80 l 1,65,66
 506 8 506 8 376 8 c 1,67,-1
 170 294 l 1,68,69
 99 459 99 459 68 734 c 1,70,71
 68 1085 68 1085 287 1416 c 1,72,73
 417 1526 417 1526 638 1592 c 1,0,-1
493 624 m 1,74,-1
 493 537 l 1,75,-1
 521 537 l 1,76,77
 560 602 560 602 638 602 c 1,78,-1
 786 778 l 1,79,-1
 771 799 l 1,80,-1
 771 822 l 1,81,-1
 786 931 l 1,82,-1
 771 953 l 1,83,-1
 756 953 l 1,84,85
 553 822 553 822 493 624 c 1,74,-1
EndSplineSet
EndChar

StartChar: A
Encoding: 65 65 36
Width: 995
GlyphClass: 1
Flags: W
LayerCount: 2
Fore
SplineSet
505 1689 m 2,0,-1
 541 1689 l 1,1,-1
 596 1599 l 1,2,-1
 614 1536 l 1,3,-1
 605 1498 l 1,4,-1
 623 1471 l 1,5,-1
 605 1433 l 1,6,7
 661 1433 661 1433 696 1100 c 1,8,-1
 723 974 l 1,9,-1
 714 922 l 1,10,-1
 714 909 l 1,11,-1
 732 909 l 1,12,-1
 732 896 l 1,13,-1
 714 845 l 1,14,15
 737 845 737 845 778 640 c 1,16,-1
 805 666 l 1,17,18
 805 637 805 637 868 614 c 1,19,-1
 868 602 l 1,20,-1
 877 614 l 1,21,-1
 886 614 l 1,22,-1
 895 602 l 1,23,-1
 905 602 l 1,24,-1
 941 614 l 1,25,-1
 959 589 l 1,26,-1
 877 537 l 1,27,-1
 859 537 l 1,28,-1
 832 564 l 1,29,-1
 823 564 l 1,30,31
 823 526 823 526 796 526 c 1,32,-1
 796 513 l 1,33,34
 844 397 844 397 860 397 c 1,35,-1
 851 384 l 1,36,-1
 851 372 l 1,37,38
 910 131 910 131 968 65 c 1,39,-1
 986 -89 l 1,40,41
 959 -89 959 -89 959 -127 c 1,42,-1
 950 -140 l 1,43,-1
 941 -140 l 1,44,45
 890 -71 890 -71 858 -64 c 1,46,47
 858 -12 858 -12 831 -12 c 1,48,49
 808 27 808 27 786 27 c 1,50,-1
 786 51 l 1,51,-1
 795 116 l 1,52,53
 746 116 746 116 704 321 c 1,54,-1
 686 346 l 1,55,-1
 704 372 l 1,56,57
 685 372 685 372 659 461 c 0,58,59
 643 510 643 510 587 517 c 1,60,61
 496 492 496 492 496 449 c 1,62,-1
 469 461 l 1,63,-1
 314 430 l 1,64,-1
 296 430 l 1,65,-1
 287 444 l 1,66,-1
 278 444 l 1,67,68
 276 298 276 298 244 298 c 1,69,-1
 244 284 l 1,70,-1
 263 246 l 1,71,72
 232 232 232 232 171 121 c 1,73,-1
 199 106 l 1,74,75
 127 -7 127 -7 90 -7 c 1,76,-1
 71 44 l 1,77,-1
 44 58 l 1,78,-1
 -10 108 l 1,79,-1
 -10 121 l 1,80,-1
 -1 198 l 1,81,-1
 -10 211 l 1,82,-1
 -10 224 l 1,83,-1
 44 435 l 1,84,85
 70 653 70 653 117 653 c 1,86,87
 181 883 181 883 224 883 c 1,88,-1
 215 947 l 1,89,-1
 224 960 l 1,90,-1
 234 960 l 1,91,-1
 224 974 l 1,92,-1
 224 1023 l 1,93,94
 270 1023 270 1023 270 1126 c 1,95,96
 322 1168 322 1168 342 1217 c 1,97,-1
 315 1217 l 1,98,-1
 315 1228 l 1,99,-1
 360 1317 l 1,100,-1
 351 1382 l 1,101,102
 419 1411 419 1411 442 1651 c 1,103,104
 475 1689 475 1689 505 1689 c 2,0,-1
467 980 m 1,105,-1
 476 968 l 1,106,-1
 476 944 l 1,107,108
 432 900 432 900 421 812 c 1,109,-1
 403 812 l 1,110,111
 380 678 380 678 367 678 c 1,112,-1
 376 666 l 1,113,-1
 376 654 l 1,114,-1
 417 618 l 1,115,-1
 444 593 l 1,116,-1
 507 618 l 1,117,-1
 516 606 l 1,118,-1
 516 593 l 1,119,-1
 543 606 l 1,120,-1
 579 593 l 1,121,122
 618 604 618 604 643 690 c 1,123,124
 605 690 605 690 579 908 c 1,125,-1
 570 920 l 1,126,-1
 570 1004 l 1,127,-1
 546 1115 l 1,128,-1
 525 1130 l 1,129,-1
 467 980 l 1,105,-1
EndSplineSet
EndChar

StartChar: B
Encoding: 66 66 37
Width: 1058
GlyphClass: 1
Flags: W
LayerCount: 2
Fore
SplineSet
493 1606 m 1,0,-1
 504 1594 l 1,1,-1
 504 1581 l 1,2,-1
 534 1594 l 1,3,4
 676 1594 676 1594 820 1393 c 1,5,-1
 810 1381 l 1,6,7
 861 1317 861 1317 861 1218 c 1,8,-1
 851 1206 l 1,9,-1
 840 1206 l 1,10,-1
 851 1142 l 1,11,-1
 851 1129 l 1,12,-1
 800 1056 l 1,13,-1
 800 1042 l 1,14,15
 779 1018 779 1018 769 1004 c 1,16,-1
 748 1004 l 1,17,-1
 738 941 l 1,18,-1
 759 941 l 1,19,-1
 779 955 l 1,20,-1
 779 941 l 1,21,-1
 789 929 l 1,22,-1
 800 941 l 1,23,-1
 830 941 l 1,24,-1
 830 917 l 1,25,26
 927 917 927 917 942 828 c 1,27,28
 973 828 973 828 973 704 c 1,29,-1
 962 692 l 1,30,-1
 993 654 l 1,31,32
 979 603 979 603 911 542 c 1,33,-1
 921 529 l 1,34,-1
 921 516 l 2,35,36
 921 469 921 469 861 356 c 1,37,-1
 850 393 l 1,38,39
 794 333 794 333 769 322 c 1,40,-1
 769 275 l 1,41,-1
 779 287 l 1,42,-1
 759 248 l 1,43,-1
 738 248 l 1,44,-1
 738 263 l 1,45,-1
 707 253 l 1,46,47
 629 219 629 219 585 163 c 1,48,-1
 524 139 l 1,49,-1
 493 163 l 1,50,-1
 483 120 l 1,51,-1
 483 95 l 1,52,-1
 331 33 l 1,53,54
 331 4 331 4 279 -5 c 1,55,-1
 279 9 l 1,56,-1
 177 -11 l 1,57,58
 77 23 77 23 55 78 c 1,59,-1
 86 90 l 1,60,-1
 86 102 l 1,61,-1
 65 140 l 1,62,-1
 117 191 l 1,63,-1
 136 153 l 1,64,-1
 187 203 l 1,65,-1
 208 228 l 1,66,67
 228 228 228 228 228 166 c 1,68,-1
 249 166 l 1,69,-1
 524 342 l 1,70,71
 557 342 557 342 687 478 c 1,72,73
 810 595 810 595 810 692 c 2,74,-1
 810 717 l 1,75,-1
 769 729 l 1,76,-1
 656 734 l 1,77,-1
 646 747 l 1,78,-1
 636 747 l 1,79,-1
 401 646 l 1,80,-1
 341 616 l 1,81,-1
 341 604 l 1,82,-1
 361 614 l 1,83,-1
 351 579 l 1,84,-1
 300 591 l 1,85,-1
 279 591 l 1,86,-1
 249 503 l 1,87,-1
 269 478 l 1,88,-1
 249 454 l 1,89,-1
 249 441 l 1,90,91
 279 441 279 441 279 403 c 1,92,-1
 269 391 l 1,93,-1
 269 379 l 1,94,-1
 290 303 l 1,95,96
 276 228 276 228 259 228 c 1,97,-1
 218 253 l 1,98,-1
 127 241 l 1,99,-1
 117 253 l 1,100,-1
 117 266 l 1,101,-1
 127 303 l 1,102,-1
 117 303 l 1,103,-1
 96 327 l 1,104,-1
 106 342 l 1,105,-1
 106 354 l 1,106,107
 93 428 93 428 76 428 c 1,108,-1
 86 441 l 1,109,-1
 86 454 l 2,110,111
 86 502 86 502 35 554 c 1,112,-1
 65 579 l 1,113,114
 35 650 35 650 35 742 c 1,115,-1
 45 742 l 1,116,-1
 35 755 l 1,117,-1
 35 779 l 1,118,-1
 45 792 l 1,119,-1
 45 804 l 1,120,121
 24 804 24 804 24 843 c 1,122,-1
 35 855 l 1,123,-1
 35 868 l 1,124,-1
 24 905 l 1,125,-1
 45 955 l 1,126,-1
 24 980 l 1,127,-1
 24 1018 l 1,128,-1
 45 1056 l 1,129,-1
 24 1080 l 1,130,-1
 24 1142 l 1,131,-1
 35 1230 l 1,132,-1
 4 1242 l 1,133,-1
 4 1280 l 1,134,-1
 24 1280 l 1,135,-1
 14 1293 l 1,136,-1
 14 1342 l 1,137,-1
 24 1357 l 1,138,-1
 14 1369 l 1,139,-1
 14 1381 l 2,140,141
 14 1443 14 1443 86 1468 c 1,142,-1
 117 1456 l 1,143,-1
 290 1581 l 1,144,145
 362 1606 362 1606 493 1606 c 1,0,-1
372 1398 m 1,146,-1
 341 1410 l 1,147,-1
 259 1320 l 1,148,-1
 228 1333 l 1,149,-1
 228 1267 l 1,150,-1
 208 1229 l 1,151,-1
 208 1189 l 1,152,-1
 228 1163 l 1,153,-1
 208 1112 l 1,154,-1
 218 1099 l 1,155,-1
 218 863 l 1,156,-1
 238 837 l 1,157,158
 320 868 320 868 372 929 c 1,159,-1
 401 916 l 1,160,161
 501 916 501 916 596 1071 c 1,162,-1
 606 1059 l 1,163,-1
 636 1059 l 1,164,165
 636 1108 636 1108 687 1176 c 1,166,-1
 718 1267 l 1,167,-1
 666 1398 l 1,168,-1
 666 1410 l 1,169,-1
 656 1410 l 1,170,-1
 625 1384 l 1,171,-1
 596 1424 l 1,172,-1
 575 1424 l 1,173,-1
 575 1410 l 1,174,-1
 442 1436 l 1,175,-1
 372 1398 l 1,146,-1
EndSplineSet
EndChar

StartChar: C
Encoding: 67 67 38
Width: 980
GlyphClass: 1
Flags: W
LayerCount: 2
Fore
SplineSet
569 1639 m 1,0,-1
 616 1639 l 1,1,2
 681 1601 681 1601 681 1458 c 1,3,-1
 672 1444 l 1,4,-1
 672 1430 l 1,5,-1
 681 1374 l 1,6,-1
 550 1276 l 1,7,-1
 532 1305 l 1,8,9
 513 1276 513 1276 457 1276 c 1,10,-1
 261 1025 l 1,11,-1
 280 1025 l 1,12,-1
 280 1013 l 1,13,14
 196 916 196 916 196 873 c 1,15,-1
 205 831 l 1,16,-1
 177 816 l 1,17,-1
 177 746 l 2,18,19
 177 674 177 674 149 663 c 1,20,-1
 168 469 l 1,21,-1
 159 454 l 1,22,23
 190 411 190 411 224 287 c 1,24,-1
 280 231 l 1,25,-1
 357 215 l 1,26,-1
 441 201 l 1,27,-1
 441 215 l 2,28,29
 441 243 441 243 534 257 c 1,30,-1
 574 240 l 1,31,-1
 589 295 l 1,32,33
 636 316 636 316 667 396 c 1,34,-1
 730 440 l 1,35,-1
 779 560 l 1,36,-1
 798 560 l 1,37,-1
 826 645 l 1,38,-1
 835 645 l 1,39,-1
 863 671 l 1,40,-1
 949 723 l 1,41,-1
 949 666 l 2,42,43
 949 646 949 646 914 539 c 1,44,45
 888 416 888 416 830 385 c 1,46,-1
 802 259 l 1,47,-1
 802 245 l 2,48,49
 802 221 802 221 728 175 c 1,50,51
 688 84 688 84 550 9 c 1,52,53
 532 9 532 9 532 64 c 1,54,-1
 522 64 l 1,55,56
 522 9 522 9 485 -20 c 1,57,-1
 476 -6 l 1,58,-1
 429 -20 l 1,59,-1
 420 -20 l 2,60,61
 341 -20 341 -20 299 9 c 1,62,-1
 243 -6 l 1,63,-1
 224 -6 l 1,64,-1
 224 36 l 1,65,-1
 205 36 l 1,66,67
 205 -6 205 -6 187 -6 c 2,68,-1
 168 -6 l 1,69,70
 168 91 168 91 131 91 c 1,71,-1
 140 105 l 1,72,-1
 140 133 l 1,73,74
 59 133 59 133 0 495 c 1,75,-1
 9 565 l 1,76,-1
 0 676 l 1,77,78
 0 924 0 924 112 1136 c 1,79,-1
 112 1206 l 1,80,81
 166 1206 166 1206 177 1318 c 1,82,83
 224 1318 224 1318 224 1374 c 1,84,85
 357 1548 357 1548 401 1555 c 1,86,-1
 420 1583 l 1,87,-1
 429 1569 l 1,88,-1
 439 1569 l 1,89,-1
 495 1625 l 1,90,-1
 541 1598 l 1,91,-1
 569 1639 l 1,0,-1
EndSplineSet
EndChar

StartChar: D
Encoding: 68 68 39
Width: 1051
GlyphClass: 1
Flags: W
LayerCount: 2
Fore
SplineSet
133 1663 m 1,0,-1
 265 1625 l 1,1,-1
 265 1588 l 1,2,-1
 255 1575 l 1,3,-1
 255 1563 l 1,4,-1
 296 1563 l 1,5,-1
 326 1588 l 1,6,-1
 367 1588 l 1,7,-1
 438 1575 l 1,8,-1
 540 1588 l 1,9,10
 775 1588 775 1588 775 1475 c 1,11,-1
 785 1488 l 1,12,-1
 805 1488 l 1,13,-1
 805 1425 l 1,14,-1
 836 1450 l 1,15,16
 913 1385 913 1385 958 1214 c 1,17,-1
 969 1164 l 1,18,-1
 969 1051 l 1,19,-1
 989 1014 l 1,20,-1
 979 1001 l 1,21,-1
 979 989 l 1,22,-1
 989 951 l 1,23,24
 972 951 972 951 958 865 c 1,25,-1
 938 865 l 1,26,-1
 928 876 l 1,27,28
 887 865 887 865 887 788 c 1,29,-1
 877 727 l 1,30,31
 826 723 826 723 826 702 c 1,32,-1
 816 714 l 1,33,-1
 795 714 l 1,34,-1
 795 652 l 1,35,-1
 581 402 l 1,36,37
 581 314 581 314 561 314 c 1,38,-1
 530 327 l 1,39,-1
 530 314 l 2,40,41
 530 278 530 278 510 278 c 1,42,-1
 489 302 l 1,43,-1
 479 302 l 1,44,-1
 479 278 l 1,45,-1
 469 264 l 1,46,-1
 500 228 l 1,47,-1
 469 203 l 1,48,-1
 449 203 l 1,49,-1
 449 264 l 1,50,-1
 408 178 l 1,51,-1
 398 165 l 1,52,-1
 387 165 l 1,53,-1
 367 190 l 1,54,-1
 224 -10 l 1,55,-1
 214 -10 l 1,56,-1
 163 28 l 1,57,-1
 133 15 l 1,58,59
 133 53 133 53 82 53 c 1,60,-1
 41 140 l 1,61,62
 41 230 41 230 122 264 c 1,63,-1
 133 264 l 1,64,-1
 82 402 l 1,65,-1
 82 427 l 1,66,-1
 102 427 l 1,67,-1
 102 464 l 1,68,-1
 82 502 l 1,69,70
 107 502 107 502 112 552 c 1,71,-1
 133 552 l 1,72,73
 133 577 133 577 102 577 c 1,74,-1
 102 652 l 1,75,-1
 82 652 l 1,76,-1
 82 689 l 1,77,-1
 102 727 l 1,78,-1
 102 764 l 1,79,-1
 92 827 l 1,80,-1
 102 840 l 1,81,-1
 112 840 l 1,82,83
 99 967 99 967 82 989 c 1,84,-1
 102 1014 l 1,85,-1
 102 1064 l 1,86,-1
 82 1101 l 1,87,-1
 102 1126 l 1,88,-1
 102 1164 l 1,89,90
 60 1296 60 1296 0 1326 c 1,91,92
 24 1430 24 1430 71 1475 c 1,93,94
 71 1563 71 1563 102 1563 c 1,95,-1
 92 1575 l 1,96,-1
 92 1588 l 1,97,98
 116 1663 116 1663 133 1663 c 1,0,-1
316 1650 m 1,99,-1
 326 1638 l 1,100,-1
 326 1625 l 1,101,-1
 306 1600 l 1,102,-1
 296 1613 l 1,103,-1
 296 1625 l 1,104,-1
 316 1650 l 1,99,-1
255 1276 m 1,105,-1
 255 1239 l 1,106,-1
 275 1239 l 1,107,-1
 275 1226 l 1,108,-1
 265 1214 l 1,109,-1
 265 1201 l 1,110,-1
 275 1189 l 1,111,-1
 275 1176 l 1,112,-1
 265 1126 l 1,113,-1
 275 1114 l 1,114,-1
 275 1101 l 1,115,-1
 265 1051 l 1,116,-1
 296 1014 l 1,117,-1
 296 1001 l 2,118,119
 296 976 296 976 265 976 c 1,120,-1
 255 964 l 1,121,-1
 255 951 l 1,122,123
 285 951 285 951 285 926 c 2,124,-1
 285 777 l 1,125,-1
 296 639 l 1,126,-1
 285 602 l 1,127,-1
 296 589 l 1,128,-1
 296 577 l 1,129,-1
 265 489 l 1,130,-1
 265 389 l 1,131,-1
 316 377 l 1,132,-1
 326 377 l 1,133,134
 326 434 326 434 591 639 c 1,135,136
 591 692 591 692 673 752 c 1,137,138
 673 802 673 802 724 802 c 1,139,140
 724 855 724 855 785 1014 c 1,141,142
 785 1064 785 1064 805 1064 c 1,143,144
 775 1301 775 1301 754 1301 c 1,145,-1
 714 1289 l 1,146,-1
 591 1339 l 1,147,-1
 551 1326 l 1,148,-1
 469 1339 l 1,149,-1
 255 1276 l 1,105,-1
816 1264 m 1,150,-1
 816 1226 l 1,151,-1
 826 1226 l 1,152,-1
 826 1264 l 1,153,-1
 816 1264 l 1,150,-1
163 602 m 1,154,-1
 163 577 l 1,155,-1
 173 577 l 1,156,-1
 173 602 l 1,157,-1
 163 602 l 1,154,-1
143 464 m 1,158,-1
 163 464 l 1,159,-1
 163 489 l 1,160,-1
 143 464 l 1,158,-1
EndSplineSet
EndChar

StartChar: E
Encoding: 69 69 40
Width: 995
GlyphClass: 1
Flags: W
LayerCount: 2
Fore
SplineSet
663 1617 m 1,0,-1
 672 1617 l 2,1,2
 692 1617 692 1617 692 1576 c 1,3,-1
 741 1590 l 1,4,-1
 760 1563 l 1,5,-1
 809 1576 l 1,6,7
 809 1536 809 1536 916 1522 c 1,8,-1
 955 1536 l 1,9,-1
 984 1481 l 1,10,-1
 984 1468 l 1,11,-1
 916 1481 l 1,12,-1
 896 1481 l 1,13,14
 896 1442 896 1442 877 1442 c 1,15,-1
 857 1468 l 1,16,-1
 838 1468 l 1,17,-1
 770 1401 l 1,18,-1
 750 1401 l 1,19,-1
 653 1415 l 1,20,21
 653 1360 653 1360 624 1360 c 1,22,-1
 614 1374 l 1,23,-1
 604 1374 l 1,24,-1
 380 1292 l 1,25,-1
 351 1292 l 1,26,-1
 283 1401 l 1,27,-1
 283 1442 l 2,28,29
 283 1522 283 1522 351 1522 c 1,30,31
 363 1603 363 1603 614 1603 c 1,32,-1
 624 1590 l 1,33,-1
 624 1576 l 1,34,35
 663 1584 663 1584 663 1617 c 1,0,-1
107 1590 m 1,36,37
 174 1590 174 1590 205 1495 c 1,38,-1
 205 1415 l 1,39,-1
 224 1306 l 1,40,-1
 215 1292 l 1,41,-1
 224 1211 l 1,42,-1
 215 940 l 1,43,-1
 224 954 l 1,44,-1
 234 954 l 1,45,-1
 244 940 l 1,46,-1
 409 981 l 1,47,-1
 439 968 l 1,48,-1
 468 981 l 1,49,-1
 487 954 l 1,50,51
 529 995 529 995 565 995 c 1,52,-1
 575 981 l 1,53,-1
 594 1008 l 1,54,55
 594 981 594 981 624 981 c 1,56,-1
 653 995 l 1,57,-1
 663 981 l 1,58,-1
 682 1008 l 1,59,-1
 809 900 l 1,60,-1
 760 873 l 1,61,-1
 770 805 l 2,62,63
 770 781 770 781 682 765 c 1,64,-1
 653 779 l 1,65,-1
 633 752 l 1,66,-1
 624 752 l 1,67,-1
 575 765 l 1,68,-1
 546 724 l 1,69,-1
 536 724 l 1,70,-1
 516 752 l 1,71,-1
 390 724 l 1,72,-1
 390 738 l 1,73,-1
 331 711 l 1,74,-1
 322 724 l 1,75,76
 322 684 322 684 292 684 c 1,77,78
 248 710 248 710 244 738 c 1,79,-1
 234 724 l 1,80,-1
 215 724 l 1,81,-1
 185 752 l 1,82,-1
 166 752 l 1,83,-1
 166 724 l 1,84,-1
 195 711 l 1,85,-1
 185 697 l 1,86,-1
 195 629 l 1,87,-1
 185 589 l 1,88,-1
 205 521 l 1,89,-1
 195 507 l 1,90,-1
 185 507 l 1,91,-1
 234 250 l 1,92,-1
 283 210 l 1,93,94
 283 233 283 233 526 305 c 1,95,96
 684 399 684 399 711 440 c 1,97,98
 799 440 799 440 838 507 c 1,99,100
 838 468 838 468 877 468 c 1,101,-1
 877 427 l 1,102,103
 842 427 842 427 789 332 c 1,104,-1
 750 305 l 1,105,-1
 741 318 l 1,106,-1
 731 305 l 1,107,-1
 731 291 l 1,108,-1
 750 264 l 1,109,-1
 750 250 l 1,110,111
 692 237 692 237 692 210 c 1,112,-1
 711 169 l 1,113,-1
 585 75 l 1,114,-1
 585 89 l 1,115,-1
 507 34 l 1,116,-1
 478 48 l 1,117,-1
 478 34 l 1,118,-1
 390 -6 l 1,119,-1
 361 7 l 1,120,-1
 351 -6 l 1,121,-1
 351 -20 l 1,122,123
 153 -20 153 -20 88 169 c 1,124,125
 29 401 29 401 29 548 c 1,126,-1
 39 561 l 1,127,-1
 39 575 l 1,128,129
 33 654 33 654 10 697 c 1,130,-1
 29 724 l 1,131,-1
 29 832 l 1,132,-1
 49 981 l 1,133,-1
 29 1022 l 1,134,-1
 68 1090 l 1,135,-1
 59 1157 l 1,136,-1
 68 1197 l 1,137,-1
 59 1211 l 1,138,-1
 59 1224 l 1,139,-1
 68 1279 l 1,140,-1
 59 1292 l 1,141,-1
 68 1347 l 1,142,-1
 59 1508 l 1,143,144
 72 1565 72 1565 107 1590 c 1,36,37
EndSplineSet
EndChar

StartChar: F
Encoding: 70 70 41
Width: 913
GlyphClass: 1
Flags: W
LayerCount: 2
Fore
SplineSet
105 1657 m 1,0,1
 147 1636 147 1636 180 1578 c 1,2,-1
 233 1565 l 1,3,-1
 339 1591 l 1,4,-1
 339 1578 l 1,5,-1
 350 1591 l 1,6,-1
 488 1591 l 1,7,-1
 499 1578 l 1,8,-1
 509 1578 l 1,9,-1
 520 1591 l 1,10,-1
 520 1604 l 1,11,-1
 573 1591 l 1,12,-1
 616 1591 l 1,13,-1
 765 1578 l 1,14,-1
 796 1591 l 1,15,16
 842 1524 842 1524 924 1524 c 1,17,-1
 956 1472 l 1,18,-1
 839 1366 l 1,19,-1
 754 1366 l 1,20,-1
 711 1379 l 1,21,-1
 679 1366 l 1,22,-1
 669 1379 l 1,23,-1
 669 1393 l 1,24,-1
 658 1379 l 1,25,-1
 584 1379 l 1,26,-1
 552 1406 l 1,27,-1
 531 1406 l 1,28,29
 531 1340 531 1340 392 1340 c 1,30,-1
 254 1299 l 1,31,-1
 233 1327 l 1,32,-1
 222 1327 l 1,33,34
 222 1286 222 1286 201 1286 c 1,35,-1
 211 1273 l 1,36,-1
 211 1248 l 1,37,-1
 190 1208 l 1,38,39
 216 1208 216 1208 233 1023 c 1,40,-1
 254 1023 l 2,41,42
 332 1023 332 1023 339 1064 c 1,43,-1
 371 1049 l 1,44,-1
 531 1077 l 1,45,-1
 531 1064 l 1,46,-1
 594 1090 l 1,47,-1
 605 1077 l 1,48,-1
 605 1064 l 1,49,-1
 616 1077 l 1,50,-1
 637 1077 l 2,51,52
 670 1077 670 1077 743 997 c 1,53,54
 818 978 818 978 818 957 c 1,55,56
 762 946 762 946 722 901 c 1,57,-1
 667 906 l 1,58,-1
 646 911 l 1,59,-1
 569 875 l 1,60,-1
 509 865 l 1,61,-1
 283 820 l 1,62,-1
 222 759 l 1,63,-1
 222 746 l 1,64,-1
 243 614 l 1,65,-1
 233 601 l 1,66,-1
 275 258 l 1,67,-1
 265 244 l 1,68,69
 286 244 286 244 297 152 c 1,70,-1
 275 113 l 1,71,-1
 307 46 l 1,72,-1
 286 20 l 1,73,-1
 233 33 l 1,74,-1
 233 -20 l 1,75,-1
 180 46 l 1,76,77
 180 -20 180 -20 148 -20 c 1,78,-1
 94 205 l 1,79,-1
 105 218 l 1,80,-1
 73 481 l 1,81,-1
 84 494 l 1,82,-1
 52 746 l 1,83,-1
 63 798 l 1,84,-1
 52 839 l 1,85,-1
 63 839 l 1,86,-1
 52 852 l 1,87,-1
 52 1036 l 1,88,-1
 41 1090 l 1,89,-1
 52 1103 l 1,90,-1
 41 1169 l 1,91,-1
 41 1182 l 1,92,-1
 52 1195 l 1,93,-1
 31 1286 l 1,94,-1
 41 1340 l 1,95,-1
 31 1353 l 1,96,-1
 20 1353 l 1,97,-1
 31 1393 l 1,98,-1
 20 1498 l 1,99,-1
 31 1537 l 1,100,-1
 20 1578 l 1,101,-1
 105 1657 l 1,0,1
EndSplineSet
EndChar

StartChar: G
Encoding: 71 71 42
Width: 1150
GlyphClass: 1
Flags: W
LayerCount: 2
Fore
SplineSet
515 1634 m 1,0,-1
 693 1634 l 1,1,2
 796 1591 796 1591 796 1391 c 1,3,4
 769 1298 769 1298 731 1268 c 1,5,-1
 721 1283 l 1,6,-1
 721 1295 l 1,7,-1
 712 1283 l 1,8,-1
 693 1283 l 1,9,-1
 693 1295 l 1,10,-1
 702 1363 l 1,11,12
 664 1377 664 1377 664 1417 c 1,13,-1
 609 1417 l 1,14,15
 579 1381 579 1381 497 1363 c 1,16,17
 497 1323 497 1323 450 1323 c 1,18,19
 443 1265 443 1265 291 1134 c 1,20,21
 282 1038 282 1038 245 1038 c 1,22,-1
 198 944 l 1,23,24
 198 754 198 754 151 754 c 1,25,-1
 143 674 l 1,26,-1
 151 633 l 1,27,-1
 143 538 l 1,28,29
 187 267 187 267 245 267 c 1,30,31
 245 227 245 227 300 227 c 1,32,-1
 300 213 l 1,33,-1
 432 254 l 1,34,-1
 432 267 l 1,35,-1
 478 254 l 1,36,37
 514 363 514 363 609 363 c 1,38,39
 609 388 609 388 664 417 c 1,40,41
 668 470 668 470 702 470 c 1,42,43
 702 554 702 554 768 593 c 1,44,45
 805 655 805 655 823 809 c 1,46,-1
 823 822 l 1,47,48
 753 809 753 809 731 782 c 1,49,-1
 683 782 l 1,50,51
 609 827 609 827 609 930 c 0,52,53
 609 1066 609 1066 758 1066 c 1,54,-1
 814 1120 l 1,55,56
 898 1120 898 1120 898 1146 c 1,57,-1
 945 1134 l 1,58,-1
 973 1160 l 1,59,-1
 1020 1160 l 1,60,61
 1066 1122 1066 1122 1066 1079 c 1,62,-1
 1057 1066 l 1,63,-1
 1057 1052 l 1,64,-1
 1066 1011 l 1,65,66
 1023 995 1023 995 1020 956 c 1,67,68
 1057 956 1057 956 1057 930 c 1,69,70
 1033 862 1033 862 982 862 c 1,71,-1
 955 877 l 1,72,-1
 936 795 l 1,73,-1
 955 768 l 1,74,-1
 945 497 l 1,75,76
 951 210 951 210 973 187 c 1,77,-1
 973 66 l 1,78,-1
 992 66 l 1,79,-1
 992 25 l 1,80,-1
 936 -43 l 1,81,82
 838 97 838 97 814 348 c 1,83,-1
 823 363 l 1,84,-1
 823 389 l 1,85,-1
 805 389 l 1,86,87
 767 371 767 371 761 314 c 1,88,-1
 726 254 l 1,89,90
 703 176 703 176 562 108 c 1,91,-1
 534 67 l 1,92,93
 463 48 463 48 413 44 c 1,94,95
 413 4 413 4 338 -30 c 1,96,97
 219 -30 219 -30 179 78 c 1,98,-1
 151 64 l 1,99,-1
 151 78 l 1,100,101
 86 169 86 169 86 241 c 1,102,-1
 68 241 l 1,103,-1
 68 309 l 1,104,105
 30 356 30 356 30 593 c 2,106,-1
 30 648 l 2,107,108
 30 1048 30 1048 264 1417 c 1,109,110
 291 1417 291 1417 291 1458 c 1,111,112
 307 1499 307 1499 357 1499 c 1,113,114
 357 1525 357 1525 432 1567 c 1,115,116
 432 1592 432 1592 515 1634 c 1,0,-1
EndSplineSet
EndChar

StartChar: H
Encoding: 72 72 43
Width: 1090
GlyphClass: 1
Flags: W
LayerCount: 2
Fore
SplineSet
88 1607 m 1,0,-1
 154 1607 l 1,1,-1
 233 1552 l 1,2,-1
 222 1486 l 1,3,-1
 222 1458 l 1,4,-1
 233 1404 l 1,5,-1
 222 1391 l 1,6,-1
 222 1377 l 1,7,-1
 233 1363 l 1,8,-1
 200 1039 l 1,9,-1
 211 999 l 1,10,-1
 200 999 l 1,11,-1
 211 957 l 1,12,-1
 289 971 l 1,13,-1
 300 957 l 1,14,-1
 514 999 l 1,15,-1
 548 985 l 1,16,17
 548 1012 548 1012 637 1025 c 1,18,-1
 637 971 l 1,19,-1
 716 985 l 1,20,-1
 716 1215 l 1,21,-1
 705 1268 l 1,22,-1
 738 1431 l 1,23,-1
 716 1512 l 1,24,25
 734 1512 734 1512 750 1607 c 1,26,-1
 772 1607 l 2,27,28
 829 1607 829 1607 907 1552 c 1,29,-1
 895 1512 l 1,30,-1
 907 1418 l 1,31,-1
 884 1377 l 1,32,-1
 907 1336 l 1,33,34
 895 1197 895 1197 862 1147 c 1,35,-1
 895 1107 l 1,36,-1
 895 1080 l 1,37,-1
 907 891 l 1,38,-1
 895 836 l 1,39,40
 929 836 929 836 929 809 c 2,41,-1
 929 796 l 1,42,-1
 918 728 l 1,43,-1
 941 728 l 1,44,-1
 929 660 l 1,45,-1
 941 578 l 1,46,-1
 929 497 l 1,47,-1
 952 470 l 1,48,-1
 952 457 l 1,49,-1
 941 444 l 1,50,-1
 963 322 l 1,51,-1
 952 322 l 1,52,-1
 996 119 l 1,53,54
 988 -17 988 -17 952 -17 c 2,55,-1
 862 -17 l 1,56,-1
 862 65 l 1,57,-1
 816 91 l 1,58,-1
 828 146 l 1,59,-1
 805 227 l 1,60,-1
 816 241 l 1,61,-1
 816 254 l 1,62,-1
 772 552 l 1,63,-1
 784 606 l 1,64,-1
 761 633 l 1,65,-1
 761 741 l 1,66,-1
 705 754 l 1,67,-1
 604 754 l 1,68,-1
 559 741 l 1,69,-1
 525 754 l 1,70,-1
 457 728 l 1,71,-1
 436 728 l 1,72,-1
 424 741 l 1,73,74
 282 717 282 717 200 646 c 1,75,-1
 222 430 l 1,76,-1
 211 430 l 1,77,-1
 245 254 l 1,78,-1
 233 241 l 1,79,80
 256 241 256 241 267 146 c 1,81,-1
 245 105 l 1,82,-1
 279 38 l 1,83,-1
 256 10 l 1,84,-1
 200 25 l 1,85,-1
 200 10 l 1,86,-1
 211 -3 l 1,87,-1
 211 -17 l 1,88,-1
 200 -30 l 1,89,-1
 188 -30 l 2,90,91
 166 -30 166 -30 166 25 c 1,92,-1
 154 38 l 1,93,-1
 143 38 l 1,94,95
 143 -17 143 -17 121 -17 c 0,96,97
 91 -17 91 -17 54 227 c 1,98,-1
 65 227 l 1,99,-1
 31 484 l 1,100,-1
 43 497 l 1,101,-1
 43 512 l 1,102,-1
 31 552 l 1,103,-1
 54 578 l 1,104,-1
 43 592 l 1,105,-1
 43 606 l 1,106,-1
 54 620 l 1,107,-1
 54 633 l 1,108,-1
 43 701 l 1,109,-1
 54 714 l 1,110,-1
 43 809 l 1,111,-1
 43 931 l 1,112,-1
 20 971 l 1,113,-1
 54 1012 l 1,114,-1
 43 1080 l 1,115,-1
 43 1107 l 1,116,-1
 54 1120 l 1,117,-1
 43 1133 l 1,118,-1
 43 1147 l 1,119,-1
 54 1201 l 1,120,-1
 43 1215 l 1,121,-1
 43 1228 l 1,122,-1
 54 1283 l 1,123,-1
 43 1296 l 1,124,-1
 43 1309 l 1,125,-1
 54 1323 l 1,126,-1
 54 1336 l 1,127,-1
 43 1377 l 1,128,-1
 54 1499 l 1,129,-1
 54 1567 l 1,130,-1
 88 1607 l 1,0,-1
EndSplineSet
EndChar

StartChar: I
Encoding: 73 73 44
Width: 825
GlyphClass: 1
Flags: W
LayerCount: 2
Fore
SplineSet
262 1620 m 1,0,-1
 318 1580 l 1,1,-1
 300 1607 l 1,2,-1
 309 1620 l 1,3,-1
 318 1607 l 1,4,-1
 337 1607 l 1,5,-1
 384 1620 l 1,6,-1
 403 1593 l 1,7,-1
 552 1620 l 1,8,-1
 571 1620 l 1,9,-1
 590 1593 l 1,10,-1
 590 1566 l 1,11,-1
 582 1470 l 1,12,-1
 554 1484 l 1,13,-1
 507 1444 l 1,14,-1
 488 1470 l 1,15,-1
 460 1470 l 1,16,17
 460 1430 460 1430 414 1403 c 1,18,-1
 404 1333 l 1,19,-1
 413 1264 l 1,20,-1
 404 1251 l 1,21,-1
 395 1251 l 1,22,-1
 404 1238 l 1,23,-1
 414 1112 l 1,24,-1
 405 1099 l 1,25,-1
 414 1085 l 1,26,-1
 414 1030 l 2,27,28
 414 963 414 963 395 963 c 1,29,-1
 424 691 l 1,30,-1
 415 678 l 1,31,-1
 433 651 l 1,32,-1
 433 638 l 1,33,-1
 415 611 l 1,34,-1
 433 476 l 1,35,-1
 424 421 l 1,36,-1
 443 394 l 1,37,-1
 443 326 l 1,38,-1
 534 344 l 1,39,-1
 534 330 l 1,40,-1
 543 344 l 1,41,-1
 552 344 l 1,42,-1
 616 336 l 1,43,-1
 635 364 l 1,44,-1
 663 350 l 1,45,-1
 691 364 l 1,46,-1
 710 336 l 1,47,-1
 719 350 l 1,48,-1
 728 350 l 1,49,50
 794 326 794 326 794 295 c 2,51,-1
 794 282 l 1,52,-1
 728 242 l 1,53,-1
 691 242 l 1,54,-1
 663 244 l 1,55,-1
 644 244 l 1,56,57
 644 160 644 160 561 160 c 0,58,59
 532 160 532 160 478 102 c 1,60,61
 430 102 430 102 375 8 c 1,62,-1
 346 8 l 1,63,-1
 239 0 l 1,64,-1
 229 27 l 1,65,-1
 187 -2 l 1,66,-1
 112 8 l 1,67,-1
 84 115 l 1,68,69
 148 221 148 221 253 265 c 1,70,-1
 281 332 l 1,71,-1
 262 414 l 1,72,-1
 272 427 l 1,73,-1
 262 496 l 1,74,-1
 262 671 l 1,75,-1
 243 833 l 1,76,-1
 253 848 l 1,77,-1
 253 861 l 1,78,-1
 243 875 l 1,79,-1
 243 888 l 1,80,-1
 281 997 l 1,81,-1
 243 1037 l 1,82,-1
 243 1064 l 1,83,-1
 253 1146 l 1,84,-1
 243 1159 l 1,85,-1
 253 1254 l 1,86,-1
 253 1336 l 1,87,-1
 140 1322 l 1,88,-1
 112 1322 l 1,89,90
 112 1281 112 1281 94 1281 c 1,91,92
 0 1376 0 1376 0 1430 c 0,93,94
 0 1525 0 1525 169 1566 c 1,95,-1
 178 1552 l 1,96,-1
 187 1552 l 1,97,98
 224 1563 224 1563 262 1620 c 1,0,-1
EndSplineSet
EndChar

StartChar: J
Encoding: 74 74 45
Width: 1097
GlyphClass: 1
Flags: W
LayerCount: 2
Fore
SplineSet
533 1637 m 1,0,-1
 585 1626 l 1,1,-1
 598 1637 l 1,2,-1
 792 1616 l 1,3,-1
 817 1637 l 1,4,-1
 844 1616 l 1,5,-1
 883 1626 l 1,6,7
 913 1606 913 1606 986 1593 c 1,8,-1
 1038 1574 l 1,9,-1
 1051 1563 l 1,10,-1
 1051 1552 l 1,11,12
 895 1533 895 1533 895 1509 c 1,13,-1
 857 1488 l 1,14,15
 727 1475 727 1475 727 1424 c 1,16,-1
 767 1308 l 1,17,-1
 752 1297 l 1,18,-1
 779 1211 l 1,19,-1
 767 1202 l 1,20,-1
 779 1095 l 1,21,-1
 779 999 l 1,22,23
 841 999 841 999 923 926 c 1,24,-1
 960 915 l 1,25,-1
 935 819 l 1,26,-1
 948 788 l 1,27,-1
 935 776 l 1,28,-1
 923 776 l 1,29,-1
 908 788 l 1,30,-1
 908 799 l 1,31,-1
 895 788 l 1,32,-1
 869 788 l 1,33,-1
 805 830 l 1,34,-1
 767 799 l 1,35,-1
 779 744 l 1,36,-1
 740 724 l 1,37,-1
 752 681 l 1,38,-1
 740 670 l 1,39,-1
 740 660 l 1,40,-1
 752 597 l 1,41,-1
 727 575 l 1,42,-1
 715 586 l 1,43,-1
 715 565 l 1,44,-1
 740 565 l 1,45,-1
 740 554 l 1,46,-1
 701 489 l 1,47,-1
 715 479 l 1,48,-1
 715 437 l 1,49,50
 689 412 689 412 689 362 c 1,51,-1
 676 362 l 1,52,-1
 689 352 l 1,53,-1
 689 341 l 1,54,-1
 649 298 l 1,55,-1
 664 266 l 1,56,-1
 558 34 l 1,57,-1
 573 23 l 1,58,-1
 573 13 l 1,59,60
 546 -8 546 -8 546 -83 c 1,61,-1
 508 -104 l 1,62,-1
 520 -115 l 1,63,-1
 520 -126 l 1,64,65
 427 -231 427 -231 405 -231 c 1,66,-1
 365 -221 l 1,67,-1
 351 -231 l 1,68,-1
 351 -242 l 1,69,-1
 377 -262 l 1,70,-1
 314 -307 l 1,71,-1
 299 -307 l 1,72,-1
 299 -295 l 1,73,-1
 314 -262 l 1,74,-1
 299 -262 l 1,75,-1
 222 -273 l 1,76,-1
 92 -189 l 1,77,-1
 55 -136 l 1,78,-1
 67 -126 l 1,79,-1
 67 -115 l 1,80,-1
 28 -29 l 1,81,-1
 40 -19 l 1,82,-1
 15 97 l 1,83,84
 58 332 58 332 118 426 c 1,85,-1
 158 426 l 1,86,-1
 131 458 l 1,87,88
 131 485 131 485 183 489 c 1,89,-1
 171 542 l 1,90,-1
 309 722 l 1,91,-1
 430 819 l 1,92,-1
 442 808 l 1,93,-1
 468 808 l 1,94,95
 468 859 468 859 585 872 c 1,96,-1
 573 883 l 1,97,-1
 573 904 l 1,98,-1
 624 968 l 1,99,-1
 598 1085 l 1,100,-1
 610 1085 l 1,101,-1
 598 1095 l 1,102,-1
 610 1170 l 1,103,-1
 610 1180 l 1,104,-1
 573 1319 l 1,105,-1
 558 1382 l 1,106,-1
 558 1393 l 1,107,-1
 573 1404 l 1,108,-1
 573 1414 l 1,109,110
 520 1424 520 1424 520 1456 c 1,111,-1
 508 1456 l 1,112,113
 407 1404 407 1404 365 1404 c 1,114,115
 282 1424 282 1424 249 1521 c 1,116,117
 249 1592 249 1592 533 1637 c 1,0,-1
592 778 m 1,118,119
 592 720 592 720 487 704 c 1,120,-1
 410 630 l 1,121,-1
 436 610 l 1,122,123
 358 587 358 587 358 513 c 1,124,-1
 267 417 l 1,125,-1
 280 408 l 1,126,127
 280 352 280 352 215 289 c 1,128,-1
 228 237 l 1,129,-1
 228 226 l 1,130,-1
 202 195 l 1,131,-1
 228 163 l 1,132,-1
 202 131 l 1,133,134
 222 -92 222 -92 280 -92 c 0,135,136
 311 -92 311 -92 436 79 c 1,137,-1
 565 471 l 1,138,-1
 552 513 l 1,139,-1
 592 534 l 1,140,-1
 577 566 l 1,141,-1
 592 576 l 1,142,-1
 592 587 l 1,143,-1
 577 599 l 1,144,145
 594 693 594 693 617 693 c 1,146,-1
 604 778 l 1,147,-1
 592 778 l 1,118,119
EndSplineSet
EndChar

StartChar: K
Encoding: 75 75 46
Width: 1076
GlyphClass: 1
Flags: W
LayerCount: 2
Fore
SplineSet
119 1625 m 1,0,1
 149 1608 149 1608 187 1569 c 1,2,-1
 227 1479 l 1,3,-1
 217 1479 l 1,4,-1
 227 1464 l 1,5,-1
 227 1408 l 1,6,-1
 217 1394 l 1,7,-1
 217 1381 l 1,8,-1
 236 1352 l 1,9,-1
 227 1338 l 1,10,-1
 227 1324 l 1,11,-1
 236 1267 l 1,12,-1
 227 1253 l 1,13,-1
 226 1134 l 1,14,-1
 235 1134 l 1,15,-1
 246 1176 l 1,16,-1
 274 1161 l 1,17,18
 362 1208 362 1208 362 1247 c 1,19,-1
 411 1232 l 1,20,-1
 420 1232 l 1,21,-1
 410 1272 l 1,22,-1
 430 1292 l 1,23,-1
 440 1274 l 1,24,-1
 459 1274 l 1,25,26
 600 1321 600 1321 605 1372 c 1,27,-1
 654 1358 l 1,28,-1
 664 1378 l 1,29,30
 664 1403 664 1403 858 1569 c 1,31,-1
 869 1584 l 1,32,-1
 878 1584 l 2,33,34
 946 1584 946 1584 946 1470 c 1,35,-1
 956 1457 l 1,36,37
 903 1316 903 1316 839 1316 c 1,38,-1
 830 1331 l 1,39,-1
 819 1316 l 1,40,-1
 819 1302 l 1,41,-1
 830 1288 l 1,42,43
 791 1288 791 1288 791 1237 c 1,44,-1
 771 1237 l 1,45,-1
 771 1274 l 1,46,-1
 732 1247 l 1,47,-1
 732 1260 l 1,48,-1
 693 1217 l 1,49,-1
 712 1191 l 1,50,-1
 703 1176 l 1,51,-1
 684 1186 l 1,52,-1
 673 1161 l 1,53,-1
 664 1176 l 1,54,-1
 605 1176 l 1,55,56
 544 1092 544 1092 508 1092 c 1,57,-1
 508 1064 l 1,58,-1
 664 783 l 1,59,60
 707 783 707 783 868 428 c 1,61,62
 940 369 940 369 975 175 c 1,63,64
 975 102 975 102 1014 48 c 1,65,-1
 1014 36 l 1,66,-1
 994 6 l 1,67,-1
 985 21 l 1,68,-1
 975 6 l 1,69,-1
 955 6 l 1,70,-1
 966 21 l 1,71,-1
 966 36 l 2,72,73
 966 77 966 77 907 77 c 1,74,75
 907 168 907 168 839 203 c 1,76,-1
 839 244 l 1,77,-1
 848 244 l 1,78,-1
 877 232 l 1,79,-1
 859 288 l 1,80,-1
 829 259 l 1,81,82
 809 259 809 259 809 343 c 1,83,-1
 800 343 l 1,84,85
 800 301 800 301 781 301 c 1,86,-1
 537 671 l 1,87,88
 537 696 537 696 459 798 c 1,89,90
 423 895 423 895 381 895 c 1,91,-1
 392 909 l 1,92,-1
 392 938 l 1,93,-1
 381 938 l 2,94,95
 346 938 346 938 314 882 c 1,96,-1
 255 854 l 1,97,-1
 266 813 l 1,98,-1
 255 798 l 1,99,-1
 265 474 l 1,100,-1
 251 453 l 1,101,-1
 276 431 l 1,102,-1
 251 368 l 1,103,-1
 265 304 l 1,104,-1
 280 170 l 1,105,-1
 275 116 l 1,106,-1
 250 93 l 1,107,-1
 285 30 l 1,108,109
 268 -30 268 -30 177 -40 c 1,110,-1
 117 -20 l 1,111,-1
 117 9 l 1,112,113
 105 154 105 154 98 221 c 1,114,-1
 99 292 l 1,115,-1
 104 392 l 1,116,-1
 128 431 l 1,117,-1
 99 461 l 1,118,-1
 89 614 l 1,119,-1
 98 614 l 1,120,121
 84 811 84 811 70 811 c 1,122,-1
 79 852 l 1,123,-1
 70 1077 l 1,124,-1
 70 1191 l 1,125,-1
 50 1217 l 1,126,-1
 59 1288 l 1,127,-1
 50 1344 l 1,128,-1
 59 1358 l 1,129,-1
 50 1429 l 1,130,131
 80 1513 80 1513 80 1597 c 1,132,-1
 119 1625 l 1,0,1
856 161 m 1,133,-1
 856 133 l 1,134,-1
 866 133 l 1,135,-1
 866 161 l 1,136,-1
 856 161 l 1,133,-1
875 91 m 1,137,-1
 895 63 l 1,138,-1
 895 91 l 1,139,-1
 875 91 l 1,137,-1
EndSplineSet
EndChar

StartChar: L
Encoding: 76 76 47
Width: 839
GlyphClass: 1
Flags: W
LayerCount: 2
Fore
SplineSet
94 1636 m 1,0,1
 170 1636 170 1636 213 1518 c 1,2,-1
 202 1439 l 1,3,-1
 213 1230 l 1,4,-1
 202 1217 l 1,5,-1
 192 1217 l 1,6,-1
 224 1086 l 1,7,-1
 224 1047 l 1,8,-1
 202 1021 l 1,9,-1
 213 982 l 1,10,-1
 202 877 l 1,11,-1
 213 825 l 1,12,-1
 192 746 l 1,13,-1
 202 733 l 1,14,-1
 202 680 l 1,15,-1
 192 667 l 1,16,-1
 213 498 l 1,17,-1
 202 432 l 1,18,19
 224 432 224 432 224 393 c 1,20,-1
 202 327 l 1,21,-1
 235 301 l 1,22,23
 324 301 324 301 549 432 c 1,24,-1
 692 504 l 1,25,-1
 725 504 l 2,26,27
 746 504 746 504 746 470 c 1,28,-1
 759 505 l 1,29,-1
 779 509 l 1,30,-1
 779 477 l 1,31,-1
 801 504 l 1,32,-1
 841 473 l 1,33,34
 822 398 822 398 735 373 c 1,35,36
 735 333 735 333 692 333 c 1,37,38
 692 307 692 307 646 287 c 1,39,-1
 614 248 l 1,40,41
 592 248 592 248 573 239 c 1,42,-1
 552 259 l 1,43,-1
 561 190 l 1,44,-1
 473 170 l 1,45,-1
 441 184 l 1,46,47
 439 145 439 145 393 87 c 1,48,49
 365 79 365 79 342 79 c 2,50,-1
 322 79 l 1,51,52
 322 39 322 39 257 0 c 1,53,-1
 245 13 l 1,54,-1
 245 26 l 1,55,-1
 235 13 l 1,56,-1
 224 13 l 1,57,-1
 160 26 l 1,58,-1
 127 13 l 1,59,60
 40 106 40 106 40 222 c 2,61,-1
 40 1217 l 1,62,-1
 50 1335 l 1,63,-1
 40 1414 l 1,64,-1
 50 1414 l 1,65,-1
 40 1427 l 1,66,-1
 40 1479 l 2,67,68
 40 1556 40 1556 94 1636 c 1,0,1
EndSplineSet
EndChar

StartChar: M
Encoding: 77 77 48
Width: 1464
GlyphClass: 1
Flags: W
LayerCount: 2
Fore
SplineSet
549 1628 m 1,0,1
 688 1542 688 1542 725 1342 c 1,2,3
 725 1232 725 1232 756 1015 c 1,4,5
 787 1232 787 1232 821 1369 c 1,6,-1
 808 1383 l 1,7,-1
 808 1396 l 1,8,-1
 892 1628 l 1,9,-1
 904 1628 l 2,10,11
 1052 1628 1052 1628 1066 1560 c 1,12,13
 1220 1433 1220 1433 1263 1273 c 1,14,-1
 1274 1164 l 1,15,-1
 1299 1136 l 1,16,-1
 1299 1082 l 1,17,-1
 1287 1068 l 1,18,19
 1311 1032 1311 1032 1322 877 c 1,20,-1
 1311 864 l 1,21,-1
 1311 850 l 1,22,-1
 1347 700 l 1,23,-1
 1335 686 l 1,24,-1
 1335 672 l 1,25,26
 1344 430 1344 430 1350 370 c 1,27,-1
 1348 278 l 1,28,-1
 1333 129 l 1,29,-1
 1381 109 l 1,30,31
 1373 80 1373 80 1340 27 c 1,32,-1
 1289 5 l 1,33,34
 1206 28 1206 28 1148 315 c 1,35,-1
 1160 383 l 1,36,-1
 1136 410 l 1,37,-1
 1136 493 l 1,38,-1
 1125 700 l 1,39,-1
 1136 700 l 1,40,-1
 1125 713 l 1,41,-1
 1125 740 l 1,42,-1
 1136 754 l 1,43,-1
 1109 1038 l 1,44,-1
 1132 1038 l 1,45,-1
 1132 1079 l 1,46,47
 1073 1079 1073 1079 1073 1106 c 1,48,-1
 1109 1134 l 1,49,-1
 1042 1273 l 1,50,-1
 987 1273 l 1,51,-1
 977 1205 l 1,52,-1
 954 1151 l 1,53,-1
 966 1082 l 1,54,55
 941 1082 941 1082 941 960 c 1,56,-1
 918 931 l 1,57,-1
 905 931 l 1,58,-1
 918 877 l 1,59,-1
 905 823 l 1,60,-1
 905 809 l 1,61,-1
 918 796 l 1,62,-1
 918 782 l 1,63,-1
 882 740 l 1,64,-1
 885 618 l 1,65,66
 876 448 876 448 869 417 c 1,67,-1
 894 281 l 1,68,-1
 858 253 l 1,69,70
 882 199 882 199 892 103 c 1,71,-1
 892 75 l 1,72,-1
 800 -6 l 1,73,-1
 776 21 l 1,74,-1
 751 21 l 1,75,-1
 751 -20 l 1,76,-1
 740 -20 l 1,77,-1
 668 90 l 1,78,-1
 680 144 l 1,79,-1
 644 403 l 1,80,-1
 644 430 l 1,81,-1
 657 444 l 1,82,-1
 657 457 l 1,83,84
 621 457 621 457 621 485 c 1,85,-1
 632 499 l 1,86,-1
 632 513 l 1,87,-1
 608 700 l 1,88,-1
 608 740 l 1,89,-1
 572 740 l 1,90,-1
 597 782 l 1,91,-1
 585 891 l 1,92,-1
 597 904 l 1,93,-1
 560 1287 l 1,94,-1
 549 1287 l 1,95,-1
 513 1246 l 1,96,-1
 525 1232 l 1,97,-1
 525 1219 l 1,98,-1
 466 1123 l 1,99,-1
 478 1082 l 1,100,101
 430 1055 430 1055 430 1000 c 1,102,-1
 453 973 l 1,103,104
 433 973 433 973 370 796 c 1,105,-1
 381 754 l 1,106,107
 381 686 381 686 358 686 c 1,108,-1
 370 672 l 1,109,-1
 370 632 l 1,110,-1
 346 632 l 1,111,-1
 346 618 l 1,112,-1
 358 540 l 1,113,-1
 335 457 l 1,114,-1
 346 444 l 1,115,-1
 346 430 l 1,116,-1
 335 417 l 1,117,-1
 335 403 l 1,118,-1
 348 195 l 1,119,-1
 336 139 l 1,120,-1
 348 126 l 1,121,-1
 348 112 l 1,122,123
 336 17 336 17 312 17 c 1,124,125
 269 58 269 58 228 58 c 1,126,-1
 228 -11 l 1,127,-1
 205 -11 l 1,128,-1
 145 126 l 1,129,130
 145 434 145 434 71 1027 c 1,131,-1
 48 1055 l 1,132,-1
 36 1055 l 1,133,-1
 36 1082 l 1,134,-1
 60 1082 l 1,135,-1
 36 1178 l 1,136,-1
 48 1191 l 1,137,-1
 48 1205 l 1,138,-1
 36 1219 l 1,139,-1
 36 1232 l 1,140,-1
 48 1246 l 1,141,142
 36 1349 36 1349 0 1396 c 1,143,-1
 24 1423 l 1,144,-1
 0 1518 l 1,145,146
 21 1614 21 1614 48 1614 c 1,147,148
 155 1570 155 1570 155 1518 c 1,149,-1
 191 1437 l 1,150,-1
 191 1342 l 1,151,-1
 215 1259 l 1,152,-1
 202 1205 l 1,153,-1
 227 1123 l 1,154,-1
 227 1082 l 1,155,-1
 215 1068 l 1,156,-1
 227 1055 l 1,157,-1
 251 973 l 1,158,-1
 274 1027 l 1,159,-1
 251 1055 l 1,160,161
 375 1533 375 1533 441 1533 c 1,162,163
 447 1590 447 1590 549 1628 c 1,0,1
EndSplineSet
EndChar

StartChar: N
Encoding: 78 78 49
Width: 1012
GlyphClass: 1
Flags: W
LayerCount: 2
Fore
SplineSet
55 1611 m 0,0,1
 197 1594 197 1594 197 1431 c 1,2,-1
 209 1431 l 1,3,-1
 209 1418 l 1,4,-1
 230 1101 l 1,5,-1
 307 1211 l 1,6,-1
 296 1252 l 1,7,8
 296 1335 296 1335 351 1335 c 1,9,-1
 351 1348 l 1,10,-1
 340 1362 l 1,11,-1
 340 1377 l 1,12,-1
 504 1600 l 1,13,-1
 636 1611 l 1,14,15
 812 1452 812 1452 812 1236 c 1,16,-1
 811 1194 l 1,17,18
 819 1066 819 1066 877 991 c 1,19,-1
 866 977 l 1,20,-1
 866 964 l 1,21,-1
 857 822 l 1,22,-1
 846 808 l 1,23,-1
 846 795 l 1,24,-1
 868 712 l 1,25,-1
 857 658 l 1,26,27
 880 658 880 658 880 519 c 0,28,29
 880 242 880 242 915 199 c 1,30,-1
 923 90 l 1,31,32
 916 51 916 51 912 1 c 1,33,34
 885 1 885 1 880 57 c 1,35,-1
 868 57 l 1,36,-1
 868 -12 l 1,37,-1
 847 -12 l 1,38,39
 847 44 847 44 825 44 c 2,40,-1
 803 44 l 1,41,-1
 803 -12 l 1,42,43
 756 42 756 42 716 167 c 1,44,-1
 726 181 l 1,45,-1
 657 656 l 1,46,-1
 669 697 l 1,47,48
 669 927 669 927 622 1128 c 1,49,-1
 634 1142 l 1,50,-1
 634 1155 l 1,51,52
 609 1335 609 1335 570 1335 c 1,53,54
 548 1238 548 1238 505 1238 c 1,55,56
 505 1198 505 1198 471 1198 c 1,57,58
 471 1123 471 1123 439 1101 c 1,59,60
 419 991 419 991 331 991 c 1,61,-1
 331 976 l 1,62,-1
 352 935 l 1,63,-1
 352 922 l 1,64,-1
 341 908 l 1,65,-1
 352 895 l 1,66,-1
 352 852 l 2,67,68
 352 825 352 825 297 825 c 1,69,-1
 287 812 l 1,70,-1
 287 798 l 1,71,-1
 297 756 l 1,72,-1
 265 646 l 1,73,74
 265 549 265 549 309 549 c 1,75,76
 276 522 276 522 276 493 c 0,77,78
 278 287 278 287 284 219 c 1,79,-1
 274 163 l 1,80,-1
 252 136 l 1,81,-1
 274 10 l 1,82,-1
 264 -3 l 1,83,-1
 241 -3 l 1,84,-1
 241 40 l 1,85,-1
 206 -23 l 1,86,-1
 154 -16 l 1,87,-1
 142 -30 l 1,88,-1
 131 -30 l 1,89,90
 88 42 88 42 66 343 c 1,91,-1
 55 769 l 1,92,-1
 55 895 l 1,93,-1
 33 935 l 1,94,-1
 33 976 l 1,95,-1
 55 1018 l 1,96,-1
 55 1059 l 1,97,-1
 33 1101 l 1,98,-1
 66 1184 l 1,99,-1
 33 1225 l 1,100,-1
 33 1335 l 1,101,-1
 55 1377 l 1,102,103
 21 1377 21 1377 21 1404 c 2,104,-1
 21 1431 l 1,105,-1
 33 1445 l 1,106,-1
 33 1458 l 1,107,108
 0 1474 0 1474 0 1541 c 2,109,-1
 0 1555 l 1,110,111
 23 1611 23 1611 55 1611 c 0,0,1
56 185 m 1,112,-1
 56 181 l 1,113,-1
 48 181 l 1,114,-1
 48 185 l 1,115,-1
 56 185 l 1,112,-1
404 114 m 1,116,-1
 412 114 l 1,117,-1
 412 110 l 1,118,-1
 404 110 l 1,119,-1
 404 114 l 1,116,-1
0 81 m 1,120,-1
 8 81 l 1,121,-1
 8 77 l 1,122,-1
 0 77 l 1,123,-1
 0 81 l 1,120,-1
EndSplineSet
EndChar

StartChar: O
Encoding: 79 79 50
Width: 1263
GlyphClass: 1
Flags: W
LayerCount: 2
Fore
SplineSet
671 1698 m 2,0,-1
 729 1698 l 2,1,2
 751 1698 751 1698 751 1617 c 1,3,-1
 774 1617 l 1,4,5
 774 1657 774 1657 798 1657 c 2,6,-1
 809 1657 l 1,7,-1
 970 1535 l 1,8,9
 970 1500 970 1500 1026 1494 c 1,10,11
 1026 1462 1026 1462 1072 1413 c 1,12,13
 1072 1386 1072 1386 1107 1386 c 1,14,-1
 1096 1372 l 1,15,16
 1143 1200 1143 1200 1153 1047 c 1,17,-1
 1164 1047 l 2,18,19
 1188 1047 1188 1047 1199 896 c 1,20,-1
 1141 870 l 1,21,-1
 1141 843 l 1,22,-1
 1153 843 l 1,23,-1
 1188 856 l 1,24,-1
 1199 843 l 1,25,-1
 1199 829 l 1,26,27
 1164 734 1164 734 1131 734 c 1,28,-1
 1131 719 l 1,29,-1
 1153 666 l 1,30,-1
 1107 585 l 1,31,32
 1131 585 1131 585 1131 545 c 1,33,34
 1099 439 1099 439 1061 421 c 1,35,-1
 1072 408 l 1,36,-1
 1072 394 l 1,37,38
 1039 358 1039 358 1039 313 c 1,39,-1
 990 293 l 1,40,41
 970 258 970 258 908 185 c 1,42,-1
 886 179 l 1,43,44
 876 105 876 105 814 95 c 1,45,-1
 814 82 l 1,46,-1
 774 83 l 1,47,-1
 751 83 l 1,48,-1
 763 68 l 1,49,-1
 763 55 l 2,50,51
 763 4 763 4 568 -13 c 1,52,53
 371 28 371 28 281 123 c 1,54,-1
 235 136 l 1,55,-1
 213 191 l 1,56,57
 121 191 121 191 121 299 c 1,58,59
 85 324 85 324 41 557 c 1,60,-1
 29 570 l 1,61,-1
 64 598 l 1,62,-1
 18 707 l 1,63,-1
 64 856 l 1,64,-1
 44 884 l 1,65,-1
 64 924 l 1,66,67
 127 1224 127 1224 178 1224 c 1,68,-1
 259 1331 l 1,69,70
 259 1426 259 1426 328 1426 c 1,71,72
 328 1454 328 1454 373 1454 c 1,73,-1
 373 1507 l 1,74,-1
 384 1494 l 1,75,-1
 397 1494 l 1,76,77
 397 1609 397 1609 649 1657 c 1,78,79
 649 1698 649 1698 671 1698 c 2,0,-1
729 1521 m 1,80,-1
 695 1535 l 1,81,-1
 695 1521 l 1,82,-1
 671 1494 l 1,83,-1
 592 1507 l 1,84,85
 592 1467 592 1467 488 1467 c 1,86,-1
 477 1454 l 1,87,-1
 477 1413 l 1,88,89
 580 1413 580 1413 580 1345 c 0,90,91
 580 1181 580 1181 499 1181 c 0,92,93
 392 1181 392 1181 316 1005 c 1,94,95
 269 1005 269 1005 259 896 c 0,96,97
 259 870 259 870 224 870 c 1,98,-1
 235 829 l 1,99,-1
 202 626 l 1,100,101
 202 388 202 388 362 286 c 1,102,103
 362 236 362 236 522 217 c 1,104,-1
 557 231 l 1,105,-1
 592 217 l 1,106,107
 877 369 877 369 877 476 c 1,108,-1
 906 476 l 1,109,-1
 912 503 l 1,110,-1
 901 517 l 1,111,-1
 901 530 l 1,112,-1
 983 557 l 1,113,-1
 983 570 l 1,114,115
 958 570 958 570 958 611 c 1,116,-1
 982 638 l 1,117,-1
 970 694 l 1,118,119
 1008 775 1008 775 1026 924 c 1,120,121
 1004 1132 1004 1132 982 1181 c 1,122,-1
 1004 1209 l 1,123,-1
 1004 1236 l 1,124,125
 963 1236 963 1236 936 1345 c 1,126,127
 855 1380 855 1380 855 1467 c 1,128,-1
 844 1454 l 1,129,-1
 833 1454 l 1,130,131
 763 1490 763 1490 763 1549 c 1,132,-1
 729 1521 l 1,80,-1
EndSplineSet
EndChar

StartChar: P
Encoding: 80 80 51
Width: 977
GlyphClass: 1
Flags: W
LayerCount: 2
Fore
SplineSet
556 1611 m 1,0,-1
 577 1611 l 2,1,2
 629 1608 629 1608 629 1586 c 1,3,-1
 640 1599 l 1,4,5
 777 1599 777 1599 923 1370 c 1,6,-1
 934 1269 l 1,7,-1
 923 1269 l 1,8,-1
 934 1256 l 1,9,-1
 934 1155 l 1,10,11
 885 964 885 964 776 876 c 1,12,13
 776 839 776 839 724 839 c 1,14,-1
 713 801 l 1,15,-1
 703 801 l 1,16,-1
 692 813 l 1,17,-1
 682 813 l 1,18,19
 682 768 682 768 493 699 c 1,20,-1
 493 725 l 1,21,-1
 482 725 l 1,22,23
 410 636 410 636 388 636 c 1,24,-1
 377 648 l 1,25,-1
 366 648 l 2,26,27
 325 648 325 648 325 598 c 1,28,-1
 303 598 l 1,29,-1
 293 611 l 1,30,-1
 283 611 l 1,31,-1
 219 535 l 1,32,-1
 219 421 l 1,33,-1
 251 157 l 1,34,-1
 241 157 l 1,35,-1
 251 145 l 1,36,-1
 251 94 l 1,37,-1
 241 82 l 1,38,-1
 251 68 l 1,39,-1
 251 -20 l 1,40,-1
 241 -20 l 2,41,42
 219 -20 219 -20 219 18 c 1,43,-1
 167 5 l 1,44,-1
 156 5 l 1,45,46
 88 48 88 48 83 82 c 1,47,-1
 104 107 l 1,48,49
 72 150 72 150 62 332 c 1,50,-1
 72 370 l 1,51,-1
 62 382 l 1,52,-1
 52 382 l 1,53,-1
 62 472 l 1,54,-1
 62 497 l 1,55,-1
 41 521 l 1,56,-1
 52 585 l 1,57,-1
 31 674 l 1,58,-1
 52 699 l 1,59,-1
 31 725 l 1,60,-1
 52 839 l 1,61,62
 20 839 20 839 20 864 c 0,63,64
 20 943 20 943 52 1015 c 1,65,-1
 31 1041 l 1,66,-1
 41 1054 l 1,67,-1
 31 1092 l 1,68,-1
 41 1155 l 1,69,-1
 31 1205 l 1,70,-1
 52 1319 l 1,71,-1
 41 1332 l 1,72,-1
 41 1345 l 2,73,74
 41 1396 41 1396 94 1421 c 1,75,-1
 188 1409 l 1,76,77
 188 1436 188 1436 303 1509 c 1,78,-1
 335 1560 l 1,79,-1
 409 1548 l 1,80,-1
 409 1560 l 1,81,-1
 430 1586 l 1,82,-1
 441 1573 l 1,83,-1
 556 1611 l 1,0,-1
556 1396 m 1,84,-1
 524 1409 l 1,85,86
 515 1379 515 1379 377 1307 c 1,87,88
 241 1207 241 1207 241 1105 c 1,89,-1
 210 1003 l 1,90,-1
 210 952 l 1,91,-1
 219 902 l 1,92,-1
 210 851 l 1,93,-1
 219 839 l 1,94,-1
 210 825 l 1,95,-1
 199 825 l 1,96,-1
 219 686 l 1,97,-1
 210 674 l 1,98,-1
 219 674 l 1,99,100
 307 719 307 719 335 762 c 1,101,-1
 346 762 l 1,102,-1
 366 771 l 1,103,-1
 357 733 l 1,104,-1
 398 762 l 1,105,-1
 388 813 l 1,106,-1
 398 825 l 1,107,-1
 409 825 l 1,108,-1
 441 813 l 1,109,-1
 441 825 l 2,110,111
 441 873 441 873 535 902 c 1,112,113
 535 929 535 929 651 978 c 1,114,115
 651 1032 651 1032 755 1117 c 1,116,-1
 776 1142 l 1,117,-1
 776 1155 l 1,118,-1
 787 1282 l 1,119,120
 740 1361 740 1361 597 1421 c 1,121,-1
 588 1421 l 1,122,-1
 556 1396 l 1,84,-1
EndSplineSet
EndChar

StartChar: Q
Encoding: 81 81 52
Width: 1231
GlyphClass: 1
Flags: W
LayerCount: 2
Fore
SplineSet
594 1661 m 2,0,-1
 668 1661 l 1,1,-1
 710 1647 l 1,2,-1
 742 1661 l 1,3,-1
 754 1619 l 1,4,-1
 805 1619 l 1,5,-1
 933 1550 l 1,6,-1
 944 1564 l 1,7,-1
 954 1564 l 1,8,9
 1044 1528 1044 1528 1124 1328 c 1,10,-1
 1155 1216 l 1,11,-1
 1144 1202 l 1,12,-1
 1144 1188 l 1,13,-1
 1166 1034 l 1,14,-1
 1155 1034 l 1,15,-1
 1166 1021 l 1,16,-1
 1166 1007 l 1,17,18
 1126 655 1126 655 1081 655 c 0,19,20
 1039 655 1039 655 1039 585 c 1,21,22
 954 460 954 460 891 432 c 1,23,-1
 869 349 l 1,24,-1
 880 334 l 1,25,-1
 838 334 l 1,26,27
 838 223 838 223 891 140 c 1,28,-1
 891 43 l 1,29,-1
 934 -81 l 1,30,-1
 934 -179 l 1,31,32
 972 -179 972 -179 977 -351 c 1,33,-1
 977 -366 l 1,34,-1
 968 -380 l 1,35,-1
 977 -392 l 1,36,-1
 977 -406 l 1,37,-1
 968 -421 l 1,38,-1
 968 -434 l 1,39,40
 874 -434 874 -434 849 -290 c 1,41,42
 822 -290 822 -290 795 -123 c 1,43,44
 777 -123 777 -123 732 98 c 1,45,46
 715 98 715 98 689 223 c 1,47,-1
 679 223 l 1,48,49
 651 178 651 178 584 142 c 1,50,-1
 499 149 l 1,51,-1
 499 78 l 1,52,-1
 393 78 l 2,53,54
 371 78 371 78 371 120 c 1,55,-1
 340 120 l 1,56,57
 340 78 340 78 318 78 c 2,58,-1
 287 78 l 1,59,60
 210 138 210 138 191 211 c 1,61,62
 156 211 156 211 96 363 c 1,63,-1
 96 432 l 1,64,-1
 107 447 l 1,65,-1
 107 460 l 1,66,-1
 96 473 l 1,67,-1
 86 473 l 1,68,-1
 96 544 l 1,69,-1
 96 670 l 1,70,-1
 138 835 l 1,71,72
 160 1093 160 1093 191 1172 c 1,73,-1
 158 1186 l 1,74,-1
 107 1160 l 1,75,76
 107 1101 107 1101 23 980 c 1,77,-1
 11 993 l 1,78,-1
 11 1021 l 1,79,-1
 23 1034 l 1,80,-1
 23 1049 l 1,81,-1
 1 1077 l 1,82,-1
 86 1328 l 1,83,-1
 107 1355 l 1,84,85
 107 1382 107 1382 160 1382 c 1,86,-1
 191 1425 l 1,87,-1
 203 1411 l 1,88,-1
 213 1411 l 1,89,90
 213 1486 213 1486 308 1522 c 1,91,92
 308 1550 308 1550 393 1550 c 1,93,94
 420 1619 420 1619 478 1619 c 2,95,-1
 573 1619 l 1,96,97
 573 1661 573 1661 594 1661 c 2,0,-1
743 1451 m 1,98,99
 743 1429 743 1429 546 1418 c 1,100,101
 539 1380 539 1380 464 1360 c 1,102,-1
 422 1360 l 1,103,-1
 412 1320 l 1,104,-1
 453 1320 l 1,105,-1
 453 1307 l 1,106,107
 365 1116 365 1116 338 985 c 1,108,109
 317 985 317 985 317 834 c 1,110,-1
 297 806 l 1,111,-1
 308 755 l 1,112,113
 235 693 235 693 235 663 c 1,114,-1
 245 650 l 1,115,-1
 245 637 l 1,116,-1
 235 598 l 1,117,-1
 245 558 l 1,118,-1
 235 480 l 1,119,-1
 235 467 l 1,120,121
 267 411 267 411 267 336 c 1,122,123
 324 257 324 257 369 257 c 1,124,-1
 556 323 l 1,125,-1
 628 349 l 1,126,-1
 628 388 l 1,127,128
 556 526 556 526 556 624 c 1,129,-1
 504 624 l 1,130,-1
 504 598 l 1,131,-1
 484 598 l 1,132,-1
 484 624 l 1,133,-1
 504 663 l 1,134,-1
 493 716 l 1,135,136
 493 785 493 785 556 820 c 1,137,-1
 576 820 l 1,138,139
 754 640 754 640 754 467 c 1,140,-1
 763 467 l 1,141,142
 791 472 791 472 846 573 c 1,143,-1
 898 598 l 1,144,-1
 887 611 l 1,145,-1
 887 624 l 1,146,147
 912 630 912 630 940 730 c 1,148,-1
 971 730 l 1,149,150
 971 1038 971 1038 1022 1038 c 1,151,-1
 1022 1051 l 1,152,-1
 960 1234 l 1,153,154
 910 1346 910 1346 867 1372 c 1,155,-1
 867 1398 l 1,156,-1
 804 1398 l 1,157,158
 804 1451 804 1451 743 1451 c 1,98,99
EndSplineSet
EndChar

StartChar: R
Encoding: 82 82 53
Width: 987
GlyphClass: 1
Flags: W
LayerCount: 2
Fore
SplineSet
430 1707 m 1,0,1
 451 1707 451 1707 451 1669 c 1,2,-1
 460 1681 l 1,3,-1
 471 1681 l 1,4,-1
 481 1669 l 1,5,-1
 492 1669 l 1,6,-1
 522 1707 l 1,7,-1
 533 1693 l 1,8,-1
 533 1681 l 1,9,-1
 522 1643 l 1,10,-1
 533 1643 l 2,11,12
 574 1643 574 1643 595 1592 c 1,13,14
 666 1592 666 1592 728 1359 c 1,15,-1
 707 1319 l 1,16,17
 749 1300 749 1300 749 1282 c 2,18,-1
 738 1217 l 1,19,-1
 749 1178 l 1,20,21
 733 1178 733 1178 707 1023 c 1,22,-1
 574 868 l 1,23,-1
 522 868 l 1,24,25
 522 838 522 838 471 810 c 1,26,-1
 451 818 l 1,27,-1
 451 839 l 1,28,-1
 431 829 l 1,29,30
 431 806 431 806 399 785 c 1,31,-1
 389 785 l 1,32,33
 379 804 379 804 348 804 c 1,34,-1
 348 829 l 1,35,-1
 327 829 l 1,36,37
 327 790 327 790 287 790 c 1,38,-1
 287 765 l 1,39,40
 332 765 332 765 348 701 c 1,41,42
 348 675 348 675 440 553 c 1,43,-1
 440 529 l 1,44,-1
 491 529 l 1,45,-1
 627 353 l 1,46,-1
 730 262 l 1,47,-1
 741 262 l 1,48,-1
 812 169 l 1,49,50
 863 146 863 146 863 124 c 1,51,-1
 874 137 l 1,52,-1
 894 137 l 2,53,54
 915 137 915 137 915 72 c 1,55,-1
 986 73 l 1,56,-1
 996 62 l 1,57,-1
 1007 62 l 1,58,-1
 1048 73 l 1,59,-1
 1058 62 l 1,60,-1
 1058 49 l 1,61,-1
 1037 23 l 1,62,-1
 986 23 l 1,63,64
 986 -15 986 -15 966 -15 c 1,65,-1
 935 -5 l 1,66,-1
 894 7 l 1,67,-1
 782 43 l 1,68,-1
 730 66 l 1,69,-1
 658 64 l 1,70,71
 651 98 651 98 617 128 c 1,72,-1
 564 157 l 1,73,-1
 544 157 l 1,74,75
 496 258 496 258 441 258 c 1,76,-1
 400 308 l 1,77,78
 370 362 370 362 297 377 c 1,79,-1
 297 405 l 1,80,-1
 276 405 l 1,81,-1
 266 263 l 1,82,-1
 287 81 l 1,83,84
 276 17 276 17 276 -18 c 1,85,-1
 254 -105 l 1,86,-1
 208 -105 l 1,87,-1
 134 18 l 1,88,-1
 124 59 l 1,89,-1
 114 59 l 1,90,-1
 93 97 l 1,91,92
 101 304 101 304 103 460 c 1,93,-1
 133 498 l 1,94,-1
 113 524 l 1,95,-1
 113 537 l 1,96,-1
 123 549 l 1,97,-1
 123 562 l 1,98,-1
 103 562 l 1,99,-1
 103 613 l 1,100,-1
 113 695 l 1,101,102
 103 776 103 776 77 816 c 1,103,-1
 61 877 l 1,104,-1
 83 1010 l 1,105,-1
 72 1050 l 1,106,-1
 83 1100 l 1,107,-1
 101 1333 l 1,108,-1
 82 1384 l 1,109,-1
 72 1397 l 1,110,-1
 72 1411 l 1,111,-1
 102 1474 l 1,112,113
 72 1488 72 1488 72 1552 c 1,114,-1
 113 1643 l 1,115,116
 225 1643 225 1643 276 1693 c 1,117,-1
 359 1693 l 1,118,-1
 389 1669 l 1,119,-1
 430 1707 l 1,0,1
256 1302 m 1,120,-1
 256 1204 l 1,121,-1
 276 1204 l 1,122,-1
 276 1160 l 1,123,124
 256 1133 256 1133 256 1048 c 1,125,-1
 246 1048 l 1,126,127
 258 978 258 978 276 978 c 1,128,129
 276 1006 276 1006 359 1006 c 1,130,131
 359 1035 359 1035 430 1048 c 1,132,-1
 430 1076 l 1,133,-1
 441 1076 l 1,134,-1
 481 1048 l 1,135,136
 481 1114 481 1114 543 1160 c 1,137,138
 543 1204 543 1204 563 1204 c 1,139,-1
 605 1190 l 1,140,-1
 605 1204 l 1,141,-1
 595 1218 l 1,142,-1
 595 1231 l 1,143,-1
 614 1316 l 1,144,-1
 492 1444 l 1,145,-1
 492 1459 l 1,146,-1
 481 1459 l 2,147,148
 460 1459 460 1459 460 1400 c 1,149,-1
 451 1400 l 1,150,151
 424 1444 424 1444 389 1444 c 1,152,-1
 389 1459 l 1,153,154
 323 1400 323 1400 287 1400 c 1,155,156
 287 1345 287 1345 256 1302 c 1,120,-1
EndSplineSet
EndChar

StartChar: S
Encoding: 83 83 54
Width: 1150
GlyphClass: 1
Flags: W
LayerCount: 2
Fore
SplineSet
645 1736 m 1,0,-1
 656 1722 l 1,1,-1
 787 1722 l 1,2,3
 841 1693 841 1693 897 1577 c 1,4,5
 897 1456 897 1456 857 1375 c 1,6,7
 816 1375 816 1375 756 1491 c 1,8,-1
 676 1476 l 1,9,-1
 666 1491 l 1,10,11
 666 1467 666 1467 616 1447 c 1,12,-1
 605 1462 l 1,13,-1
 596 1462 l 1,14,15
 556 1404 556 1404 454 1361 c 1,16,17
 454 1317 454 1317 344 1274 c 1,18,-1
 345 1292 l 1,19,-1
 315 1292 l 1,20,-1
 304 1259 l 1,21,-1
 314 1274 l 1,22,-1
 314 1245 l 1,23,-1
 274 1215 l 1,24,-1
 264 1215 l 1,25,-1
 274 1231 l 1,26,-1
 253 1202 l 1,27,-1
 223 1172 l 1,28,-1
 223 1188 l 1,29,-1
 213 1202 l 1,30,-1
 203 1202 l 1,31,-1
 183 1172 l 1,32,-1
 183 1043 l 2,33,34
 183 1016 183 1016 264 957 c 1,35,-1
 293 957 l 1,36,-1
 304 970 l 1,37,-1
 314 970 l 1,38,-1
 324 927 l 1,39,-1
 333 927 l 1,40,-1
 364 957 l 1,41,-1
 374 957 l 1,42,-1
 374 899 l 1,43,-1
 394 899 l 1,44,-1
 394 927 l 1,45,-1
 435 927 l 1,46,-1
 464 899 l 1,47,48
 464 957 464 957 524 957 c 2,49,-1
 645 957 l 1,50,-1
 706 942 l 1,51,-1
 735 957 l 1,52,-1
 746 942 l 1,53,-1
 756 942 l 1,54,-1
 816 957 l 1,55,-1
 846 957 l 1,56,-1
 846 927 l 1,57,-1
 897 942 l 1,58,-1
 897 927 l 1,59,-1
 907 942 l 1,60,-1
 977 942 l 1,61,62
 1035 883 1035 883 1077 883 c 1,63,-1
 1069 870 l 1,64,-1
 1069 827 l 1,65,-1
 1098 740 l 1,66,-1
 1077 710 l 1,67,-1
 1077 697 l 1,68,-1
 1098 697 l 1,69,-1
 1069 610 l 1,70,-1
 1077 538 l 1,71,72
 950 402 950 402 848 253 c 1,73,-1
 706 112 l 1,74,-1
 626 30 l 1,75,-1
 616 30 l 1,76,-1
 606 44 l 1,77,-1
 514 -4 l 1,78,-1
 464 -4 l 1,79,80
 464 -50 464 -50 403 -70 c 1,81,82
 269 -70 269 -70 211 84 c 1,83,84
 217 242 217 242 262 242 c 1,85,-1
 271 272 l 1,86,-1
 262 285 l 1,87,-1
 272 301 l 1,88,-1
 272 328 l 1,89,90
 305 328 305 328 372 455 c 1,91,-1
 564 527 l 1,92,-1
 574 513 l 1,93,-1
 574 498 l 1,94,-1
 474 384 l 1,95,96
 422 313 422 313 422 224 c 1,97,-1
 413 224 l 1,98,-1
 403 238 l 1,99,-1
 393 238 l 1,100,-1
 372 195 l 1,101,102
 393 195 393 195 393 152 c 1,103,-1
 422 138 l 1,104,105
 422 181 422 181 543 224 c 1,106,-1
 595 210 l 1,107,108
 595 306 595 306 785 441 c 1,109,-1
 906 638 l 1,110,-1
 896 683 l 1,111,-1
 916 683 l 1,112,-1
 916 697 l 1,113,-1
 886 740 l 1,114,-1
 876 726 l 1,115,-1
 866 726 l 1,116,117
 844 757 844 757 735 758 c 1,118,-1
 730 764 l 1,119,-1
 709 764 l 1,120,-1
 685 744 l 1,121,-1
 676 744 l 1,122,-1
 625 726 l 1,123,-1
 575 740 l 1,124,-1
 556 710 l 1,125,-1
 495 726 l 1,126,-1
 475 697 l 1,127,-1
 454 740 l 1,128,-1
 414 726 l 1,129,-1
 364 740 l 1,130,-1
 354 726 l 1,131,-1
 354 710 l 1,132,133
 298 710 298 710 223 783 c 1,134,135
 140 812 140 812 22 1014 c 1,136,-1
 22 1058 l 1,137,-1
 33 1072 l 1,138,-1
 22 1085 l 1,139,-1
 22 1101 l 1,140,141
 51 1289 51 1289 112 1289 c 1,142,143
 112 1342 112 1342 253 1476 c 1,144,-1
 283 1462 l 1,145,-1
 274 1476 l 1,146,-1
 274 1491 l 1,147,-1
 333 1547 l 1,148,-1
 344 1534 l 1,149,-1
 354 1534 l 1,150,-1
 424 1592 l 1,151,-1
 435 1592 l 1,152,-1
 444 1577 l 1,153,-1
 454 1577 l 1,154,-1
 454 1635 l 1,155,-1
 504 1620 l 1,156,157
 504 1649 504 1649 556 1649 c 1,158,159
 556 1678 556 1678 636 1693 c 1,160,-1
 645 1736 l 1,0,-1
EndSplineSet
EndChar

StartChar: T
Encoding: 84 84 55
Width: 917
GlyphClass: 1
Flags: W
LayerCount: 2
Fore
SplineSet
568 1624 m 1,0,-1
 584 1604 l 1,1,-1
 602 1604 l 1,2,-1
 731 1624 l 1,3,4
 847 1579 847 1579 847 1523 c 2,5,-1
 847 1503 l 1,6,7
 820 1402 820 1402 602 1402 c 2,8,-1
 568 1402 l 1,9,-1
 505 1342 l 1,10,-1
 523 1322 l 1,11,-1
 523 1282 l 1,12,-1
 506 1002 l 1,13,-1
 499 809 l 1,14,-1
 505 742 l 1,15,-1
 499 659 l 1,16,-1
 481 659 l 1,17,18
 515 538 515 538 515 137 c 2,19,-1
 515 36 l 1,20,-1
 446 -44 l 1,21,-1
 343 -44 l 1,22,-1
 325 77 l 1,23,-1
 343 258 l 1,24,-1
 325 378 l 1,25,-1
 343 398 l 1,26,-1
 343 418 l 1,27,-1
 308 700 l 1,28,-1
 325 700 l 1,29,-1
 315 958 l 1,30,-1
 325 1061 l 1,31,-1
 308 1081 l 1,32,-1
 308 1122 l 1,33,-1
 325 1141 l 1,34,35
 325 1232 325 1232 308 1383 c 1,36,37
 278 1378 278 1378 221 1352 c 1,38,39
 45 1352 45 1352 -18 1444 c 1,40,-1
 -56 1484 l 1,41,42
 -56 1533 -56 1533 31 1583 c 1,43,44
 210 1583 210 1583 308 1564 c 1,45,-1
 325 1564 l 1,46,47
 325 1610 325 1610 568 1624 c 1,0,-1
EndSplineSet
EndChar

StartChar: U
Encoding: 85 85 56
Width: 1125
GlyphClass: 1
Flags: W
LayerCount: 2
Fore
SplineSet
130 1681 m 1,0,1
 275 1655 275 1655 275 1586 c 1,2,-1
 243 1547 l 1,3,-1
 265 1547 l 1,4,-1
 232 1438 l 1,5,-1
 243 1371 l 1,6,-1
 232 1249 l 1,7,-1
 243 1195 l 1,8,-1
 232 1155 l 1,9,-1
 243 1114 l 1,10,-1
 232 1101 l 1,11,-1
 222 1101 l 1,12,-1
 255 818 l 1,13,-1
 243 776 l 1,14,15
 267 776 267 776 267 735 c 1,16,-1
 255 722 l 1,17,-1
 255 709 l 1,18,-1
 289 627 l 1,19,-1
 267 588 l 1,20,-1
 267 573 l 1,21,22
 306 573 306 573 335 446 c 1,23,-1
 324 405 l 1,24,25
 398 190 398 190 472 190 c 1,26,-1
 531 233 l 1,27,-1
 540 233 l 1,28,-1
 575 206 l 1,29,-1
 586 206 l 1,30,-1
 564 247 l 1,31,-1
 634 290 l 1,32,-1
 634 304 l 1,33,-1
 624 318 l 1,34,-1
 624 331 l 1,35,-1
 668 358 l 1,36,-1
 658 372 l 1,37,-1
 658 398 l 1,38,-1
 714 426 l 1,39,-1
 704 439 l 1,40,-1
 704 452 l 1,41,42
 731 496 731 496 750 614 c 1,43,-1
 762 614 l 1,44,-1
 750 627 l 1,45,-1
 772 696 l 1,46,-1
 759 843 l 1,47,-1
 771 857 l 1,48,-1
 771 872 l 1,49,-1
 759 926 l 1,50,-1
 771 939 l 1,51,-1
 771 952 l 1,52,-1
 794 1050 l 1,53,54
 794 1356 794 1356 885 1397 c 1,55,-1
 896 1384 l 1,56,-1
 907 1384 l 1,57,-1
 973 1397 l 1,58,59
 1021 1373 1021 1373 1029 1289 c 1,60,-1
 1029 1101 l 1,61,-1
 1007 1060 l 1,62,-1
 1018 1047 l 1,63,-1
 1018 1034 l 1,64,-1
 1007 980 l 1,65,-1
 1018 965 l 1,66,-1
 995 872 l 1,67,-1
 1007 818 l 1,68,-1
 995 705 l 1,69,-1
 1007 666 l 1,70,-1
 995 651 l 1,71,-1
 995 639 l 1,72,-1
 1007 573 l 1,73,-1
 1007 547 l 1,74,-1
 995 493 l 1,75,-1
 995 466 l 1,76,-1
 974 425 l 1,77,78
 995 412 995 412 1017 324 c 1,79,-1
 1005 311 l 1,80,-1
 1005 298 l 1,81,-1
 1041 183 l 1,82,-1
 1019 157 l 1,83,-1
 1019 143 l 1,84,-1
 1029 88 l 1,85,-1
 1007 60 l 1,86,-1
 1041 -3 l 1,87,-1
 995 -3 l 1,88,89
 939 34 939 34 939 102 c 1,90,-1
 949 114 l 1,91,-1
 938 129 l 1,92,93
 938 156 938 156 905 156 c 1,94,95
 848 233 848 233 848 318 c 1,96,-1
 836 331 l 1,97,-1
 825 331 l 1,98,-1
 791 285 l 1,99,-1
 779 237 l 1,100,-1
 791 223 l 1,101,-1
 758 196 l 1,102,-1
 768 156 l 1,103,-1
 758 156 l 2,104,105
 727 156 727 156 654 60 c 1,106,107
 623 60 623 60 575 -6 c 1,108,-1
 461 -20 l 1,109,-1
 371 48 l 1,110,-1
 303 21 l 1,111,112
 168 188 168 188 168 277 c 1,113,-1
 180 290 l 1,114,115
 132 294 132 294 78 560 c 1,116,-1
 66 560 l 1,117,-1
 78 573 l 1,118,-1
 78 601 l 1,119,-1
 54 789 l 1,120,-1
 64 804 l 1,121,-1
 64 818 l 1,122,-1
 42 857 l 1,123,-1
 29 921 l 1,124,125
 42 1060 42 1060 42 1181 c 2,126,-1
 42 1195 l 1,127,-1
 30 1235 l 1,128,-1
 42 1289 l 1,129,-1
 30 1303 l 1,130,131
 47 1456 47 1456 85 1547 c 1,132,-1
 84 1573 l 1,133,134
 97 1627 97 1627 130 1681 c 1,0,1
EndSplineSet
EndChar

StartChar: V
Encoding: 86 86 57
Width: 1026
GlyphClass: 1
Flags: W
LayerCount: 2
Fore
SplineSet
1007 1651 m 1,0,-1
 1033 1651 l 1,1,-1
 1073 1611 l 1,2,-1
 1059 1599 l 1,3,-1
 1021 1599 l 1,4,-1
 1049 1589 l 1,5,-1
 1036 1589 l 1,6,-1
 1036 1564 l 1,7,-1
 1021 1546 l 1,8,-1
 1021 1520 l 2,9,10
 1021 1428 1021 1428 913 1337 c 1,11,-1
 926 1298 l 1,12,13
 868 1270 868 1270 851 1218 c 128,-1,14
 834 1166 834 1166 834 1141 c 1,15,-1
 701 799 l 1,16,-1
 714 761 l 1,17,-1
 675 733 l 1,18,-1
 688 721 l 1,19,-1
 688 708 l 1,20,-1
 675 695 l 1,21,-1
 675 681 l 1,22,-1
 688 642 l 1,23,24
 646 642 646 642 635 537 c 1,25,-1
 648 525 l 1,26,-1
 648 510 l 1,27,28
 639 433 639 433 595 433 c 1,29,-1
 569 183 l 1,30,-1
 581 171 l 1,31,32
 556 171 556 171 556 131 c 1,33,-1
 569 117 l 1,34,-1
 569 105 l 1,35,-1
 542 0 l 1,36,-1
 450 13 l 1,37,-1
 383 0 l 1,38,-1
 356 40 l 1,39,-1
 369 52 l 1,40,-1
 369 65 l 1,41,-1
 356 117 l 1,42,-1
 369 131 l 1,43,44
 339 131 339 131 330 197 c 1,45,-1
 343 197 l 1,46,-1
 317 276 l 1,47,-1
 330 276 l 1,48,-1
 290 393 l 1,49,-1
 303 393 l 1,50,-1
 224 576 l 1,51,-1
 238 616 l 1,52,-1
 143 890 l 1,53,-1
 157 904 l 1,54,-1
 77 1179 l 1,55,-1
 -15 1494 l 1,56,-1
 -1 1534 l 1,57,-1
 -15 1534 l 1,58,-1
 -42 1559 l 1,59,60
 -5 1603 -5 1603 38 1611 c 1,61,-1
 64 1611 l 1,62,-1
 118 1546 l 1,63,64
 171 1546 171 1546 197 1454 c 1,65,-1
 210 1441 l 1,66,67
 220 1389 220 1389 303 1049 c 1,68,-1
 423 602 l 1,69,-1
 462 602 l 1,70,71
 462 747 462 747 495.5 760 c 128,-1,72
 529 773 529 773 529 799 c 1,73,74
 601 983 601 983 622 983 c 1,75,-1
 622 995 l 1,76,-1
 608 1009 l 1,77,-1
 608 1022 l 1,78,-1
 701 1271 l 1,79,80
 735 1271 735 1271 781 1415 c 1,81,-1
 913 1480 l 1,82,-1
 913 1494 l 1,83,-1
 901 1506 l 1,84,-1
 901 1520 l 1,85,-1
 940 1546 l 1,86,-1
 926 1559 l 1,87,-1
 926 1586 l 1,88,-1
 1007 1651 l 1,0,-1
EndSplineSet
EndChar

StartChar: W
Encoding: 87 87 58
Width: 1337
GlyphClass: 1
Flags: W
LayerCount: 2
Fore
SplineSet
1301 1757 m 1,0,-1
 1312 1743 l 1,1,-1
 1312 1643 l 1,2,-1
 1289 1600 l 1,3,-1
 1312 1557 l 1,4,-1
 1312 1543 l 2,5,6
 1312 1500 1312 1500 1267 1500 c 1,7,-1
 1279 1443 l 1,8,9
 1271 1356 1271 1356 1233 1356 c 1,10,-1
 1233 1257 l 1,11,-1
 1189 1228 l 1,12,-1
 1177 1228 l 1,13,-1
 1200 1186 l 1,14,-1
 1200 1171 l 1,15,16
 1155 1102 1155 1102 1155 1057 c 1,17,-1
 1166 1043 l 1,18,-1
 1134 1028 l 1,19,-1
 1145 1014 l 1,20,-1
 1145 987 l 1,21,-1
 1134 971 l 1,22,-1
 1155 900 l 1,23,24
 1134 896 1134 896 1101 757 c 2,25,-1
 1034 457 l 1,26,-1
 1034 414 l 1,27,-1
 999 401 l 1,28,-1
 1011 357 l 1,29,30
 994 357 994 357 944 214 c 1,31,32
 977 214 977 214 977 185 c 1,33,34
 932 100 932 100 932 57 c 2,35,-1
 932 0 l 1,36,-1
 909 0 l 1,37,-1
 876 29 l 1,38,-1
 799 0 l 1,39,-1
 687 401 l 1,40,-1
 698 414 l 1,41,-1
 620 643 l 1,42,-1
 631 657 l 1,43,44
 594 657 594 657 575 871 c 1,45,-1
 552 871 l 1,46,47
 552 786 552 786 508 786 c 1,48,-1
 531 743 l 1,49,-1
 508 714 l 1,50,-1
 508 700 l 1,51,-1
 531 657 l 1,52,-1
 531 643 l 1,53,-1
 486 643 l 1,54,-1
 486 571 l 1,55,-1
 453 514 l 1,56,-1
 464 443 l 1,57,-1
 464 429 l 1,58,-1
 386 129 l 1,59,-1
 353 114 l 1,60,-1
 363 43 l 1,61,-1
 353 29 l 1,62,-1
 341 29 l 1,63,-1
 330 43 l 1,64,-1
 240 0 l 1,65,-1
 141 486 l 1,66,-1
 152 486 l 1,67,-1
 106 743 l 1,68,-1
 118 757 l 1,69,70
 72 836 72 836 41 1071 c 1,71,-1
 51 1128 l 1,72,73
 29 1151 29 1151 6 1414 c 1,74,-1
 18 1500 l 1,75,-1
 18 1557 l 1,76,-1
 6 1572 l 1,77,-1
 6 1586 l 1,78,-1
 18 1600 l 1,79,-1
 51 1600 l 1,80,81
 163 1586 163 1586 163 1514 c 1,82,-1
 207 1100 l 1,83,-1
 195 1086 l 1,84,85
 217 1086 217 1086 217 1014 c 1,86,-1
 229 1000 l 1,87,-1
 240 1000 l 1,88,-1
 229 987 l 1,89,-1
 229 971 l 1,90,-1
 240 843 l 1,91,-1
 229 843 l 1,92,93
 284 707 284 707 284 600 c 1,94,-1
 274 557 l 1,95,96
 296 557 296 557 296 500 c 1,97,-1
 307 486 l 1,98,-1
 330 486 l 1,99,-1
 341 557 l 1,100,-1
 319 586 l 1,101,-1
 319 629 l 1,102,-1
 374 770 l 1,103,-1
 386 770 l 1,104,-1
 386 857 l 1,105,-1
 453 1043 l 1,106,-1
 430 1071 l 1,107,108
 437 1157 437 1157 464 1157 c 1,109,-1
 453 1171 l 1,110,-1
 453 1200 l 1,111,-1
 476 1243 l 1,112,-1
 453 1286 l 1,113,-1
 453 1314 l 2,114,115
 453 1343 453 1343 486 1343 c 1,116,117
 486 1428 486 1428 508 1428 c 0,118,119
 620 1428 620 1428 620 1386 c 1,120,-1
 664 1228 l 1,121,-1
 654 1214 l 1,122,123
 706 1214 706 1214 766 729 c 1,124,-1
 832 514 l 1,125,-1
 865 514 l 1,126,-1
 888 543 l 1,127,-1
 888 571 l 1,128,129
 944 864 944 864 1044 1071 c 1,130,-1
 1034 1143 l 1,131,132
 1055 1146 1055 1146 1089 1286 c 1,133,134
 1108 1400 1108 1400 1166 1400 c 1,135,-1
 1145 1443 l 1,136,-1
 1145 1471 l 1,137,138
 1218 1575 1218 1575 1233 1686 c 1,139,-1
 1301 1757 l 1,0,-1
399 852 m 1,140,-1
 399 829 l 1,141,-1
 408 829 l 1,142,-1
 408 852 l 1,143,-1
 399 852 l 1,140,-1
445 780 m 1,144,-1
 445 756 l 1,145,-1
 454 756 l 1,146,-1
 454 780 l 1,147,-1
 445 780 l 1,144,-1
EndSplineSet
EndChar

StartChar: X
Encoding: 88 88 59
Width: 1023
GlyphClass: 1
Flags: W
LayerCount: 2
Fore
SplineSet
233 1623 m 1,0,1
 348 1578 348 1578 348 1455 c 1,2,3
 363 1303 363 1303 431 1303 c 1,4,-1
 421 1258 l 1,5,6
 467 1122 467 1122 525 1060 c 1,7,8
 564 1073 564 1073 577 1181 c 1,9,10
 618 1181 618 1181 618 1242 c 1,11,12
 686 1276 686 1276 816 1502 c 1,13,-1
 920 1502 l 2,14,15
 943 1502 943 1502 951 1425 c 1,16,-1
 941 1410 l 1,17,-1
 961 1379 l 1,18,19
 920 1181 920 1181 806 1181 c 1,20,-1
 765 1166 l 1,21,22
 765 1028 765 1028 640 953 c 1,23,-1
 618 846 l 1,24,-1
 691 709 l 1,25,26
 783 489 783 489 868 389 c 1,27,28
 868 338 868 338 900 298 c 1,29,-1
 878 267 l 1,30,31
 958 217 958 217 973 100 c 1,32,-1
 961 85 l 1,33,-1
 951 100 l 1,34,-1
 931 100 l 1,35,36
 993 4 993 4 993 -53 c 2,37,-1
 993 -67 l 1,38,-1
 973 -98 l 1,39,-1
 961 -98 l 1,40,-1
 900 -6 l 1,41,-1
 910 9 l 1,42,-1
 910 23 l 1,43,44
 906 65 906 65 858 85 c 1,45,46
 858 146 858 146 816 146 c 1,47,48
 816 176 816 176 785 176 c 1,49,50
 785 240 785 240 712 267 c 1,51,-1
 660 389 l 1,52,53
 660 451 660 451 618 451 c 1,54,55
 618 519 618 519 535 557 c 1,56,57
 535 630 535 630 483 664 c 1,58,-1
 463 633 l 1,59,60
 431 633 431 633 431 541 c 1,61,62
 366 451 366 451 338 451 c 1,63,-1
 348 435 l 1,64,-1
 348 420 l 1,65,-1
 338 404 l 1,66,-1
 348 389 l 1,67,68
 347 322 347 322 306 252 c 1,69,-1
 306 238 l 1,70,-1
 317 222 l 1,71,-1
 317 207 l 1,72,-1
 255 176 l 1,73,74
 255 94 255 94 160 -6 c 1,75,-1
 108 39 l 1,76,-1
 25 23 l 1,77,-1
 15 70 l 1,78,-1
 35 100 l 1,79,-1
 15 146 l 1,80,81
 15 177 15 177 119 298 c 1,82,83
 119 385 119 385 265 588 c 1,84,-1
 368 770 l 1,85,86
 368 832 368 832 400 832 c 1,87,-1
 400 861 l 1,88,-1
 380 861 l 1,89,-1
 380 892 l 1,90,-1
 410 892 l 1,91,92
 317 989 317 989 317 1074 c 1,93,94
 260 1074 260 1074 255 1197 c 1,95,96
 210 1241 210 1241 150 1394 c 1,97,-1
 160 1486 l 1,98,-1
 150 1562 l 1,99,100
 201 1623 201 1623 233 1623 c 1,0,1
EndSplineSet
EndChar

StartChar: Y
Encoding: 89 89 60
Width: 1185
GlyphClass: 1
Flags: W
LayerCount: 2
Fore
SplineSet
281 88 m 1,0,-1
 281 110 l 2,1,2
 282 128 282 128 304 143 c 1,3,-1
 334 134 l 1,4,-1
 371 106 l 1,5,-1
 423 102 l 1,6,-1
 413 81 l 1,7,-1
 441 66 l 1,8,-1
 538 77 l 1,9,-1
 592 90 l 1,10,-1
 607 73 l 1,11,-1
 700 134 l 1,12,-1
 715 122 l 1,13,-1
 748 150 l 1,14,-1
 760 167 l 1,15,-1
 810 219 l 1,16,-1
 808 231 l 1,17,-1
 796 231 l 1,18,-1
 832 269 l 1,19,-1
 871 350 l 1,20,-1
 859 401 l 1,21,-1
 893 560 l 1,22,-1
 894 587 l 1,23,-1
 869 596 l 1,24,-1
 877 630 l 1,25,-1
 880 765 l 1,26,27
 900 791 900 791 900 811 c 1,28,-1
 888 826 l 1,29,-1
 888 841 l 1,30,-1
 913 884 l 1,31,-1
 900 970 l 1,32,-1
 863 970 l 1,33,34
 863 841 863 841 787 841 c 1,35,-1
 812 769 l 1,36,-1
 734 654 l 1,37,-1
 722 640 l 1,38,39
 722 597 722 597 697 597 c 1,40,-1
 710 583 l 1,41,-1
 710 554 l 1,42,43
 633 519 633 519 607 519 c 1,44,-1
 621 504 l 1,45,-1
 621 490 l 1,46,-1
 595 462 l 1,47,-1
 607 446 l 1,48,-1
 607 432 l 2,49,50
 607 404 607 404 532 404 c 1,51,52
 532 332 532 332 494 332 c 2,53,-1
 468 332 l 1,54,-1
 457 346 l 1,55,-1
 442 346 l 1,56,57
 437 316 437 316 379 289 c 1,58,-1
 251 346 l 1,59,-1
 238 332 l 1,60,-1
 238 317 l 1,61,62
 86 371 86 371 35 740 c 1,63,-1
 47 755 l 1,64,-1
 47 769 l 1,65,-1
 22 926 l 1,66,-1
 47 1084 l 1,67,-1
 35 1156 l 1,68,-1
 47 1271 l 1,69,-1
 35 1329 l 1,70,71
 65 1513 65 1513 112 1586 c 1,72,73
 238 1586 238 1586 238 1400 c 1,74,-1
 213 1371 l 1,75,-1
 226 1357 l 1,76,-1
 226 1343 l 1,77,-1
 213 1329 l 1,78,-1
 213 1313 l 1,79,-1
 226 1271 l 1,80,-1
 213 1256 l 1,81,-1
 213 1243 l 1,82,-1
 226 1185 l 1,83,-1
 188 1171 l 1,84,-1
 188 1156 l 1,85,-1
 226 1098 l 1,86,-1
 201 1071 l 1,87,-1
 201 913 l 1,88,-1
 226 884 l 1,89,-1
 213 811 l 1,90,-1
 213 740 l 2,91,92
 213 606 213 606 303 490 c 1,93,94
 458 578 458 578 532 640 c 1,95,96
 558 640 558 640 558 683 c 1,97,98
 577 683 577 683 621 798 c 1,99,-1
 659 826 l 1,100,-1
 644 869 l 1,101,-1
 710 984 l 1,102,103
 734 984 734 984 734 1056 c 1,104,-1
 749 1056 l 1,105,-1
 734 1071 l 1,106,-1
 734 1084 l 1,107,108
 787 1137 787 1137 787 1213 c 1,109,-1
 824 1243 l 1,110,-1
 812 1256 l 1,111,-1
 812 1285 l 1,112,-1
 836 1329 l 1,113,-1
 812 1357 l 1,114,-1
 836 1385 l 1,115,-1
 812 1429 l 1,116,-1
 824 1516 l 1,117,-1
 798 1516 l 1,118,119
 798 1599 798 1599 875 1658 c 1,120,121
 1015 1625 1015 1625 1015 1529 c 1,122,-1
 1027 1529 l 1,123,-1
 1015 1458 l 1,124,-1
 1041 1343 l 1,125,-1
 1027 1285 l 1,126,-1
 1041 1185 l 1,127,-1
 1027 1171 l 1,128,-1
 1066 1128 l 1,129,-1
 1054 1113 l 1,130,-1
 1066 1098 l 1,131,-1
 1054 1026 l 1,132,-1
 1079 984 l 1,133,-1
 1054 956 l 1,134,-1
 1066 941 l 1,135,-1
 1066 926 l 1,136,-1
 1054 913 l 1,137,-1
 1079 826 l 1,138,-1
 1066 811 l 1,139,-1
 1066 798 l 1,140,-1
 1079 784 l 1,141,-1
 1079 769 l 1,142,-1
 1054 711 l 1,143,-1
 1066 697 l 1,144,-1
 1066 683 l 1,145,-1
 1054 597 l 1,146,-1
 1066 583 l 1,147,-1
 1066 569 l 1,148,-1
 1054 554 l 1,149,-1
 1054 539 l 1,150,-1
 1066 525 l 1,151,-1
 1030 420 l 1,152,-1
 1044 405 l 1,153,-1
 1044 305 l 1,154,-1
 1038 282 l 1,155,-1
 1014 272 l 1,156,-1
 1025 262 l 1,157,-1
 1025 249 l 1,158,-1
 993 186 l 1,159,-1
 1004 175 l 1,160,-1
 993 163 l 1,161,-1
 933 129 l 1,162,-1
 922 108 l 1,163,-1
 933 96 l 1,164,165
 913 26 913 26 759 -49 c 1,166,-1
 729 -42 l 1,167,-1
 640 -57 l 1,168,-1
 617 -52 l 1,169,-1
 582 -75 l 1,170,171
 392 -41 392 -41 363 4 c 1,172,-1
 339 27 l 1,173,-1
 303 55 l 1,174,-1
 281 88 l 1,0,-1
EndSplineSet
EndChar

StartChar: Z
Encoding: 90 90 61
Width: 1009
GlyphClass: 1
Flags: W
LayerCount: 2
Fore
SplineSet
686 1610 m 1,0,-1
 697 1596 l 1,1,-1
 697 1500 l 1,2,-1
 676 1472 l 1,3,-1
 717 1389 l 1,4,5
 654 1304 654 1304 595 1086 c 1,6,7
 547 1086 547 1086 533 905 c 1,8,-1
 503 905 l 1,9,-1
 503 947 l 1,10,-1
 493 947 l 1,11,-1
 482 891 l 1,12,-1
 493 850 l 1,13,14
 465 843 465 843 431 752 c 1,15,-1
 411 752 l 1,16,-1
 411 670 l 1,17,-1
 390 643 l 1,18,-1
 370 670 l 1,19,-1
 360 670 l 1,20,-1
 360 656 l 1,21,-1
 370 614 l 1,22,23
 344 613 344 613 309 449 c 1,24,-1
 268 449 l 1,25,-1
 268 420 l 1,26,-1
 278 407 l 1,27,28
 248 283 248 283 217 283 c 1,29,-1
 217 242 l 1,30,31
 346 283 346 283 462 283 c 2,32,-1
 482 283 l 1,33,-1
 513 311 l 1,34,-1
 554 311 l 2,35,36
 640 311 640 311 686 338 c 1,37,38
 727 324 727 324 727 283 c 1,39,-1
 768 324 l 1,40,41
 811 311 811 311 850 256 c 1,42,43
 911 268 911 268 911 324 c 1,44,-1
 921 324 l 1,45,46
 972 289 972 289 972 213 c 1,47,-1
 911 187 l 1,48,-1
 880 199 l 1,49,-1
 584 131 l 1,50,-1
 595 61 l 1,51,-1
 584 75 l 1,52,-1
 574 61 l 1,53,-1
 523 75 l 1,54,55
 441 20 441 20 350 6 c 1,56,-1
 350 20 l 1,57,-1
 288 -8 l 1,58,-1
 278 -8 l 1,59,-1
 268 6 l 1,60,61
 170 -49 170 -49 125 -49 c 1,62,63
 23 -2 23 -2 23 75 c 1,64,-1
 13 75 l 1,65,66
 13 176 13 176 105 420 c 1,67,68
 105 463 105 463 156 490 c 1,69,70
 156 539 156 539 207 628 c 1,71,-1
 309 864 l 1,72,73
 472 1256 472 1256 472 1334 c 1,74,-1
 421 1334 l 1,75,-1
 380 1319 l 1,76,77
 276 1334 276 1334 237 1389 c 1,78,-1
 217 1389 l 1,79,-1
 217 1348 l 1,80,81
 248 1348 248 1348 248 1319 c 2,82,-1
 248 1293 l 1,83,-1
 217 1293 l 2,84,85
 164 1293 164 1293 125 1334 c 1,86,-1
 105 1334 l 1,87,-1
 95 1319 l 1,88,-1
 84 1319 l 1,89,-1
 13 1458 l 1,90,-1
 13 1513 l 1,91,-1
 64 1581 l 1,92,-1
 95 1581 l 1,93,-1
 176 1541 l 1,94,-1
 288 1555 l 1,95,-1
 329 1555 l 1,96,-1
 360 1581 l 1,97,-1
 380 1581 l 1,98,-1
 411 1555 l 1,99,100
 411 1590 411 1590 686 1610 c 1,0,-1
237 1430 m 1,101,-1
 237 1417 l 1,102,-1
 258 1417 l 1,103,-1
 258 1430 l 1,104,-1
 237 1430 l 1,101,-1
503 1098 m 1,105,-1
 503 1071 l 1,106,-1
 554 1071 l 1,107,-1
 533 1098 l 1,108,-1
 503 1098 l 1,105,-1
360 90 m 1,109,-1
 380 61 l 1,110,-1
 452 90 l 1,111,-1
 452 131 l 1,112,-1
 360 90 l 1,109,-1
EndSplineSet
EndChar

StartChar: underscore
Encoding: 95 95 66
Width: 1024
GlyphClass: 1
Flags: W
LayerCount: 2
Fore
SplineSet
0 -100 m 1,0,-1
 1024 -100 l 1,1,-1
 1024 -160 l 1,2,-1
 0 -160 l 1,3,-1
 0 -100 l 1,0,-1
EndSplineSet
EndChar

StartChar: grave
Encoding: 96 96 67
Width: 1024
GlyphClass: 1
Flags: W
LayerCount: 2
Fore
SplineSet
673 1079 m 1,0,-1
 604 1079 l 1,1,-1
 274 1281 l 2,2,3
 243 1301 243 1301 227.5 1321 c 128,-1,4
 212 1341 212 1341 212 1363 c 0,5,6
 212 1394 212 1394 232.5 1414 c 128,-1,7
 253 1434 253 1434 286 1434 c 0,8,9
 306 1434 306 1434 326.5 1422 c 128,-1,10
 347 1410 347 1410 382 1375 c 2,11,-1
 673 1079 l 1,0,-1
EndSplineSet
EndChar

StartChar: a
Encoding: 97 97 68
Width: 1023
GlyphClass: 1
Flags: W
LayerCount: 2
Fore
SplineSet
583 1128 m 1,0,-1
 619 1128 l 1,1,-1
 672 1064 l 1,2,-1
 700 1076 l 1,3,-1
 700 1064 l 1,4,5
 780 993 780 993 790 871 c 1,6,-1
 772 819 l 1,7,-1
 790 797 l 1,8,-1
 781 797 l 1,9,-1
 799 710 l 1,10,-1
 790 699 l 1,11,-1
 781 699 l 1,12,-1
 799 592 l 1,13,-1
 790 581 l 1,14,-1
 790 571 l 1,15,16
 799 485 799 485 817 485 c 1,17,-1
 808 474 l 1,18,-1
 808 442 l 1,19,-1
 835 346 l 1,20,-1
 843 346 l 1,21,-1
 835 334 l 1,22,-1
 835 324 l 1,23,24
 891 152 891 152 942 152 c 1,25,-1
 986 141 l 1,26,-1
 1004 163 l 1,27,28
 1004 141 1004 141 1041 141 c 1,29,-1
 1049 130 l 1,30,-1
 1049 109 l 1,31,-1
 1013 65 l 1,32,-1
 1004 76 l 1,33,-1
 995 76 l 1,34,35
 995 54 995 54 950 54 c 1,36,37
 950 1 950 1 914 1 c 1,38,39
 914 23 914 23 879 23 c 1,40,-1
 869 34 l 1,41,-1
 869 45 l 1,42,-1
 861 34 l 1,43,-1
 843 34 l 2,44,45
 824 35 824 35 761 109 c 1,46,47
 743 109 743 109 743 163 c 1,48,49
 726 163 726 163 716 226 c 1,50,51
 680 226 680 226 680 248 c 1,52,-1
 698 268 l 1,53,-1
 672 356 l 1,54,-1
 649 324 l 1,55,56
 592 231 592 231 552 209 c 1,57,-1
 522 174 l 1,58,59
 515 144 515 144 485 120 c 1,60,-1
 458 109 l 1,61,62
 268 -31 268 -31 224 -31 c 0,63,64
 192 -31 192 -31 143 23 c 1,65,-1
 116 -9 l 1,66,-1
 108 1 l 1,67,-1
 108 23 l 1,68,-1
 116 34 l 1,69,-1
 116 45 l 1,70,-1
 108 45 l 1,71,-1
 80 34 l 1,72,73
 80 76 80 76 45 76 c 1,74,-1
 -1 206 l 1,75,-1
 -1 254 l 1,76,-1
 7 334 l 1,77,-1
 -21 408 l 1,78,-1
 25 451 l 1,79,-1
 17 484 l 1,80,-1
 70 538 l 1,81,-1
 60 591 l 1,82,83
 96 591 96 591 96 623 c 0,84,85
 96 652 96 652 179 741 c 1,86,87
 179 773 179 773 241 817 c 1,88,89
 241 867 241 867 428 1012 c 1,90,91
 428 1043 428 1043 473 1063 c 1,92,93
 493 1119 493 1119 583 1128 c 1,0,-1
538 1096 m 1,94,-1
 538 1074 l 1,95,-1
 547 1074 l 1,96,-1
 547 1096 l 1,97,-1
 538 1096 l 1,94,-1
574 914 m 1,98,-1
 547 925 l 1,99,-1
 547 914 l 1,100,101
 532 861 532 861 502 861 c 1,102,-1
 475 871 l 1,103,-1
 475 861 l 1,104,-1
 484 829 l 1,105,106
 365 751 365 751 340 668 c 1,107,-1
 314 668 l 1,108,-1
 332 635 l 1,109,-1
 242 539 l 1,110,-1
 251 528 l 1,111,-1
 251 518 l 1,112,113
 183 447 183 447 153 258 c 1,114,-1
 153 226 l 1,115,116
 159 182 159 182 181 182 c 2,117,-1
 189 182 l 2,118,119
 237 182 237 182 368 258 c 1,120,-1
 395 248 l 1,121,122
 416 295 416 295 499 358 c 1,123,124
 584 485 584 485 589 559 c 1,125,126
 604 559 604 559 615 625 c 1,127,-1
 619 764 l 1,128,-1
 627 807 l 1,129,-1
 619 925 l 1,130,-1
 627 936 l 1,131,-1
 619 936 l 1,132,-1
 574 914 l 1,98,-1
304 710 m 1,133,-1
 304 689 l 1,134,-1
 314 689 l 1,135,-1
 314 710 l 1,136,-1
 304 710 l 1,133,-1
EndSplineSet
EndChar

StartChar: b
Encoding: 98 98 69
Width: 885
GlyphClass: 1
Flags: W
LayerCount: 2
Fore
SplineSet
218 1013 m 1,0,-1
 213 760 l 1,1,2
 427 1017 427 1017 585 1084 c 1,3,-1
 656 1106 l 1,4,-1
 667 1106 l 1,5,6
 817 1027 817 1027 817 733 c 1,7,8
 803 653 803 653 785 653 c 1,9,-1
 796 637 l 1,10,-1
 796 621 l 2,11,12
 796 493 796 493 538 152 c 1,13,14
 526 113 526 113 279 -17 c 0,15,16
 270 -22 270 -22 258 -22 c 0,17,18
 221 -22 221 -22 161 39 c 1,19,-1
 129 23 l 1,20,-1
 97 88 l 1,21,-1
 44 340 l 1,22,-1
 29 540 l 1,23,-1
 24 729 l 1,24,25
 34 758 34 758 34 828 c 0,26,27
 34 859 34 859 32 896 c 0,28,29
 32 1272 32 1272 41 1338 c 2,30,-1
 82 1567 l 1,31,-1
 71 1629 l 1,32,-1
 64 1661 l 1,33,34
 64 1733 64 1733 127 1808 c 1,35,-1
 198 1828 l 1,36,-1
 242 1772 l 1,37,-1
 235 1727 l 1,38,-1
 272 1741 l 1,39,40
 277 1726 277 1726 277 1705 c 0,41,42
 277 1640 277 1640 233 1511 c 1,43,-1
 248 1463 l 1,44,45
 213 1333 213 1333 213 1252 c 0,46,47
 213 1222 213 1222 218 1013 c 1,0,-1
211 510 m 0,48,49
 211 264 211 264 245 264 c 1,50,-1
 257 281 l 1,51,-1
 257 247 l 1,52,-1
 245 228 l 1,53,-1
 245 212 l 1,54,55
 354 212 354 212 557 510 c 1,56,57
 671 670 671 670 685 842 c 1,58,-1
 685 895 l 1,59,-1
 673 877 l 1,60,-1
 650 877 l 1,61,-1
 603 895 l 1,62,63
 571 895 571 895 257 579 c 1,64,65
 211 563 211 563 211 510 c 0,48,49
EndSplineSet
EndChar

StartChar: c
Encoding: 99 99 70
Width: 793
GlyphClass: 1
Flags: W
LayerCount: 2
Fore
SplineSet
542 1133 m 1,0,-1
 601 1108 l 1,1,-1
 616 1095 l 1,2,3
 710 974 710 974 717 910 c 1,4,5
 688 839 688 839 637 791 c 1,6,-1
 617 847 l 1,7,-1
 531 938 l 1,8,9
 458 913 458 913 421 849 c 1,10,11
 374 849 374 849 311 758 c 1,12,13
 281 758 281 758 281 720 c 1,14,-1
 291 707 l 1,15,-1
 271 681 l 1,16,-1
 211 617 l 1,17,-1
 220 552 l 1,18,-1
 180 513 l 1,19,-1
 180 488 l 1,20,21
 166 436 166 436 150 436 c 1,22,-1
 150 462 l 1,23,-1
 140 462 l 1,24,-1
 140 448 l 1,25,-1
 170 410 l 1,26,-1
 161 385 l 1,27,-1
 170 371 l 1,28,-1
 170 357 l 1,29,-1
 150 320 l 1,30,-1
 150 268 l 1,31,-1
 191 177 l 1,32,33
 294 177 294 177 501 305 c 1,34,-1
 511 293 l 1,35,-1
 521 293 l 1,36,37
 521 332 521 332 561 332 c 1,38,-1
 762 417 l 1,39,40
 762 372 762 372 742 332 c 1,41,-1
 752 320 l 1,42,-1
 752 305 l 1,43,44
 728 304 728 304 662 216 c 1,45,-1
 632 228 l 1,46,-1
 641 216 l 1,47,-1
 641 177 l 1,48,-1
 591 202 l 1,49,50
 587 177 587 177 542 150 c 1,51,-1
 521 177 l 1,52,53
 506 113 506 113 488 77 c 1,54,55
 451 19 451 19 291 -17 c 1,56,-1
 280 -5 l 1,57,-1
 271 -5 l 1,58,-1
 221 -30 l 1,59,-1
 210 -17 l 1,60,-1
 210 -5 l 1,61,-1
 231 22 l 1,62,-1
 210 22 l 1,63,-1
 170 10 l 1,64,-1
 120 47 l 1,65,-1
 90 35 l 1,66,67
 67 99 67 99 40 99 c 1,68,-1
 30 109 l 1,69,-1
 40 125 l 1,70,-1
 -10 254 l 1,71,-1
 -10 280 l 2,72,73
 -10 545 -10 545 67 672 c 1,74,-1
 75 720 l 1,75,76
 164 874 164 874 279 990.5 c 128,-1,77
 394 1107 394 1107 542 1133 c 1,0,-1
674 283 m 1,78,-1
 664 271 l 1,79,-1
 664 258 l 1,80,-1
 694 258 l 1,81,-1
 674 283 l 1,78,-1
EndSplineSet
EndChar

StartChar: d
Encoding: 100 100 71
Width: 973
GlyphClass: 1
Flags: W
LayerCount: 2
Fore
SplineSet
716 1765 m 1,0,1
 823 1749 823 1749 823 1675 c 1,2,-1
 836 1675 l 1,3,-1
 809 1405 l 1,4,-1
 823 1390 l 1,5,-1
 796 1086 l 1,6,-1
 809 1071 l 1,7,-1
 809 1056 l 1,8,-1
 796 996 l 1,9,-1
 809 951 l 1,10,-1
 796 936 l 1,11,-1
 809 921 l 1,12,-1
 823 921 l 1,13,-1
 823 891 l 1,14,-1
 809 891 l 1,15,-1
 823 711 l 1,16,-1
 833 651 l 1,17,-1
 819 591 l 1,18,19
 856 298 856 298 896 142 c 1,20,-1
 883 127 l 1,21,-1
 883 112 l 1,22,-1
 929 -38 l 1,23,24
 916 -83 916 -83 849 -83 c 1,25,26
 814 62 814 62 756 127 c 1,27,-1
 756 142 l 1,28,-1
 769 157 l 1,29,-1
 769 172 l 1,30,31
 719 172 719 172 703 277 c 1,32,-1
 716 322 l 1,33,-1
 703 337 l 1,34,-1
 703 351 l 1,35,-1
 716 396 l 1,36,37
 690 396 690 396 690 441 c 1,38,-1
 676 456 l 1,39,-1
 663 456 l 1,40,41
 569 271 569 271 344 67 c 1,42,-1
 145 7 l 1,43,44
 145 55 145 55 38 67 c 1,45,-1
 -15 187 l 1,46,-1
 -25 332 l 1,47,-1
 2 391 l 1,48,-1
 45 556 l 1,49,50
 71 556 71 556 71 616 c 1,51,-1
 105 661 l 1,52,53
 217 871 217 871 284 871 c 1,54,-1
 271 886 l 1,55,-1
 271 916 l 1,56,-1
 387 1036 l 1,57,-1
 517 1116 l 1,58,59
 610 1116 610 1116 610 1056 c 1,60,-1
 623 1056 l 1,61,-1
 663 1390 l 1,62,-1
 663 1540 l 1,63,-1
 676 1615 l 1,64,-1
 650 1645 l 1,65,66
 678 1645 678 1645 716 1765 c 1,0,1
297 646 m 1,67,68
 191 545 191 545 191 451 c 1,69,-1
 131 337 l 1,70,-1
 145 322 l 1,71,-1
 141 227 l 1,72,-1
 141 212 l 1,73,-1
 168 182 l 1,74,-1
 181 182 l 1,75,76
 181 223 181 223 291 262 c 1,77,78
 446 367 446 367 464 456 c 1,79,80
 648 591 648 591 648 785 c 0,81,82
 648 800 648 800 647 816 c 2,83,-1
 636 1026 l 1,84,-1
 650 1041 l 1,85,-1
 636 1041 l 2,86,87
 607 1041 607 1041 583 936 c 1,88,89
 377 856 377 856 377 766 c 1,90,-1
 297 646 l 1,67,68
EndSplineSet
EndChar

StartChar: e
Encoding: 101 101 72
Width: 758
GlyphClass: 1
Flags: W
LayerCount: 2
Fore
SplineSet
419 1112 m 1,0,1
 579 1088 579 1088 626 879 c 1,2,-1
 626 789 l 1,3,4
 587 750 587 750 587 700 c 1,5,-1
 544 655 l 1,6,-1
 547 610 l 1,7,-1
 364 491 l 1,8,-1
 285 491 l 1,9,10
 198 534 198 534 167 610 c 1,11,-1
 167 625 l 1,12,-1
 151 565 l 1,13,-1
 161 486 l 1,14,15
 220 184 220 184 442 164 c 1,16,-1
 482 149 l 1,17,-1
 674 184 l 1,18,-1
 674 168 l 1,19,-1
 758 233 l 1,20,-1
 771 218 l 1,21,-1
 771 204 l 2,22,23
 771 132 771 132 608 65 c 1,24,-1
 582 35 l 1,25,-1
 511 45 l 1,26,-1
 498 59 l 1,27,-1
 485 59 l 1,28,29
 485 0 485 0 459 0 c 2,30,-1
 393 0 l 1,31,32
 361 30 361 30 262 45 c 1,33,34
 39 170 39 170 0 461 c 1,35,-1
 0 596 l 2,36,37
 0 837 0 837 129.5 973 c 128,-1,38
 259 1109 259 1109 419 1112 c 1,0,1
223 803 m 1,39,-1
 223 730 l 1,40,-1
 275 669 l 1,41,42
 335 669 335 669 393 714 c 1,43,-1
 419 685 l 1,44,45
 419 744 419 744 459 744 c 1,46,-1
 511 819 l 1,47,-1
 511 879 l 1,48,-1
 485 938 l 1,49,-1
 393 938 l 2,50,51
 323 938 323 938 246 883 c 1,52,-1
 223 803 l 1,39,-1
EndSplineSet
EndChar

StartChar: f
Encoding: 102 102 73
Width: 673
GlyphClass: 1
Flags: W
LayerCount: 2
Fore
SplineSet
624 1796 m 1,0,1
 697 1779 697 1779 768 1739 c 0,2,3
 835 1702 835 1702 876 1625 c 1,4,5
 861 1492 861 1492 768 1492 c 1,6,7
 744 1508 744 1508 744 1597 c 1,8,-1
 636 1645 l 1,9,10
 543 1645 543 1645 468 1540 c 1,11,12
 420 1540 420 1540 388 1471 c 1,13,-1
 348 1370 l 1,14,-1
 320 1341 l 1,15,-1
 332 1331 l 1,16,-1
 332 1322 l 1,17,-1
 320 1263 l 1,18,-1
 332 1253 l 1,19,-1
 360 1273 l 1,20,-1
 420 1254 l 1,21,-1
 431 1254 l 1,22,-1
 506 1283 l 1,23,-1
 518 1292 l 1,24,-1
 542 1273 l 1,25,-1
 554 1283 l 1,26,-1
 578 1283 l 1,27,-1
 668 1255 l 1,28,-1
 668 1245 l 1,29,-1
 764 1234 l 1,30,-1
 764 1225 l 1,31,-1
 704 1186 l 1,32,33
 553 1146 553 1146 482 1118 c 1,34,-1
 469 1128 l 1,35,-1
 458 1128 l 1,36,-1
 372 1110 l 1,37,-1
 325 1101 l 1,38,-1
 308 1110 l 1,39,-1
 308 1091 l 1,40,41
 296 1068 296 1068 296 1046 c 2,42,-1
 291 943 l 1,43,-1
 284 899 l 1,44,-1
 284 890 l 1,45,-1
 289 833 l 1,46,-1
 296 657 l 1,47,-1
 296 648 l 1,48,-1
 298 577 l 1,49,-1
 296 510 l 1,50,-1
 320 453 l 1,51,-1
 308 444 l 1,52,-1
 308 434 l 1,53,-1
 345 339 l 1,54,-1
 342 297 l 1,55,-1
 380 36 l 1,56,-1
 368 36 l 1,57,58
 407 5 407 5 440 -191 c 1,59,-1
 464 -220 l 1,60,-1
 440 -276 l 1,61,-1
 451 -314 l 1,62,-1
 428 -314 l 1,63,-1
 392 -296 l 1,64,-1
 380 -296 l 1,65,-1
 296 -305 l 1,66,67
 296 -265 296 -265 248 -210 c 1,68,-1
 272 -182 l 1,69,-1
 272 -172 l 1,70,-1
 248 -143 l 1,71,-1
 248 -58 l 1,72,-1
 224 45 l 1,73,-1
 224 54 l 1,74,-1
 237 64 l 1,75,-1
 237 73 l 1,76,77
 218 73 218 73 188 169 c 1,78,-1
 212 206 l 1,79,80
 191 206 191 206 164 311 c 1,81,-1
 176 368 l 1,82,-1
 176 377 l 1,83,-1
 152 405 l 1,84,-1
 164 414 l 1,85,-1
 164 425 l 1,86,-1
 140 538 l 1,87,-1
 152 538 l 1,88,-1
 128 643 l 1,89,-1
 140 652 l 1,90,-1
 140 661 l 1,91,-1
 116 1083 l 1,92,-1
 92 1064 l 1,93,-1
 44 1074 l 1,94,-1
 -16 1064 l 1,95,-1
 -40 1093 l 1,96,-1
 -52 1083 l 1,97,-1
 -76 1083 l 1,98,-1
 -100 1150 l 1,99,-1
 -100 1159 l 2,100,101
 -100 1210 -100 1210 -52 1225 c 1,102,-1
 8 1225 l 1,103,-1
 20 1216 l 1,104,105
 152 1225 152 1225 152 1244 c 2,106,-1
 176 1370 l 1,107,-1
 164 1379 l 1,108,-1
 164 1388 l 1,109,-1
 200 1445 l 1,110,-1
 188 1473 l 1,111,-1
 248 1492 l 1,112,-1
 237 1502 l 1,113,-1
 237 1540 l 1,114,115
 311 1599 311 1599 372 1711 c 1,116,117
 399 1711 399 1711 420 1748 c 1,118,-1
 431 1739 l 1,119,-1
 456 1739 l 1,120,121
 456 1777 456 1777 480 1777 c 1,122,-1
 492 1768 l 1,123,-1
 504 1768 l 1,124,125
 504 1787 504 1787 624 1796 c 1,0,1
EndSplineSet
EndChar

StartChar: g
Encoding: 103 103 74
Width: 949
GlyphClass: 1
Flags: W
LayerCount: 2
Fore
SplineSet
587 1176 m 1,0,-1
 617 1176 l 1,1,-1
 617 1142 l 1,2,-1
 656 1142 l 2,3,4
 762 1142 762 1142 813 872 c 1,5,-1
 852 761 l 1,6,-1
 842 749 l 1,7,-1
 842 738 l 1,8,-1
 852 705 l 1,9,-1
 842 693 l 1,10,-1
 842 682 l 1,11,-1
 852 671 l 1,12,-1
 852 660 l 1,13,-1
 842 649 l 1,14,-1
 842 637 l 1,15,-1
 852 571 l 1,16,-1
 862 549 l 1,17,-1
 861 405 l 1,18,-1
 852 405 l 1,19,-1
 870 316 l 1,20,-1
 870 227 l 1,21,-1
 890 182 l 1,22,-1
 870 114 l 1,23,-1
 881 70 l 1,24,25
 878 -46 878 -46 852 -86 c 1,26,-1
 852 -186 l 1,27,-1
 862 -242 l 1,28,29
 778 -403 778 -403 714 -410 c 1,30,-1
 675 -433 l 1,31,32
 575 -433 575 -433 470 -275 c 1,33,-1
 430 -98 l 1,34,35
 489 -79 489 -79 489 -20 c 0,36,37
 489 13 489 13 607 114 c 1,38,39
 682 166 682 166 714 204 c 1,40,-1
 734 204 l 1,41,-1
 714 260 l 1,42,-1
 725 270 l 1,43,-1
 714 338 l 1,44,-1
 725 417 l 1,45,-1
 695 483 l 1,46,-1
 685 483 l 1,47,48
 685 460 685 460 626 405 c 1,49,-1
 636 394 l 1,50,-1
 636 382 l 1,51,-1
 549 272 l 1,52,-1
 519 283 l 1,53,54
 519 239 519 239 432 204 c 1,55,-1
 450 138 l 1,56,-1
 412 149 l 1,57,-1
 402 149 l 1,58,59
 402 119 402 119 333 58 c 1,60,-1
 304 58 l 1,61,-1
 295 70 l 1,62,-1
 285 70 l 1,63,64
 285 38 285 38 245 14 c 1,65,-1
 206 14 l 1,66,-1
 158 26 l 1,67,-1
 158 3 l 1,68,-1
 138 3 l 1,69,70
 61 40 61 40 40 92 c 1,71,72
 1 92 1 92 1 227 c 1,73,-1
 10 238 l 1,74,-1
 10 248 l 1,75,-1
 1 293 l 1,76,-1
 10 305 l 1,77,-1
 21 305 l 1,78,-1
 10 316 l 1,79,-1
 10 326 l 1,80,81
 40 353 40 353 40 405 c 1,82,-1
 88 483 l 1,83,-1
 70 505 l 1,84,-1
 70 516 l 1,85,-1
 79 505 l 1,86,-1
 109 505 l 1,87,-1
 100 516 l 1,88,-1
 100 529 l 1,89,90
 134 617 134 617 177 617 c 1,91,-1
 157 649 l 1,92,93
 192 761 192 761 255 761 c 1,94,-1
 245 817 l 1,95,96
 245 857 245 857 323 884 c 1,97,98
 323 922 323 922 352 951 c 1,99,-1
 343 963 l 1,100,101
 367 968 367 968 440 1064 c 1,102,-1
 558 1165 l 1,103,-1
 568 1165 l 1,104,-1
 577 1154 l 1,105,-1
 587 1154 l 1,106,-1
 587 1176 l 1,0,-1
362 741 m 1,107,-1
 353 751 l 1,108,-1
 353 729 l 1,109,110
 382 729 382 729 382 707 c 1,111,112
 307 626 307 626 304 583 c 1,113,-1
 285 583 l 1,114,-1
 295 573 l 1,115,-1
 295 561 l 2,116,117
 295 539 295 539 255 539 c 1,118,-1
 265 529 l 1,119,-1
 265 516 l 1,120,121
 206 405 206 405 187 405 c 1,122,-1
 196 349 l 1,123,124
 180 349 180 349 147 248 c 1,125,-1
 158 238 l 1,126,-1
 158 227 l 1,127,-1
 147 171 l 1,128,-1
 158 160 l 1,129,-1
 167 160 l 1,130,131
 263 204 263 204 314 270 c 1,132,133
 342 270 342 270 480 427 c 1,134,135
 548 466 548 466 548 483 c 1,136,137
 518 483 518 483 518 505 c 1,138,139
 620 649 620 649 626 685 c 1,140,-1
 617 741 l 1,141,-1
 656 763 l 1,142,-1
 636 785 l 1,143,-1
 646 842 l 1,144,-1
 646 863 l 1,145,-1
 626 897 l 1,146,-1
 636 930 l 1,147,-1
 597 952 l 1,148,149
 552 945 552 945 412 751 c 1,150,-1
 362 741 l 1,107,-1
666 70 m 1,151,152
 695 70 695 70 695 48 c 1,153,-1
 597 -74 l 1,154,-1
 607 -108 l 1,155,-1
 597 -119 l 1,156,-1
 587 -119 l 1,157,-1
 597 -130 l 1,158,-1
 597 -142 l 1,159,-1
 577 -175 l 1,160,-1
 577 -197 l 1,161,162
 594 -242 594 -242 646 -242 c 1,163,164
 734 -154 734 -154 734 26 c 2,165,-1
 734 114 l 1,166,-1
 714 114 l 1,167,-1
 666 70 l 1,151,152
EndSplineSet
EndChar

StartChar: h
Encoding: 104 104 75
Width: 1030
GlyphClass: 1
Flags: W
LayerCount: 2
Fore
SplineSet
45 1745 m 2,0,-1
 60 1745 l 1,1,2
 166 1702 166 1702 166 1608 c 1,3,-1
 151 1591 l 1,4,-1
 166 1574 l 1,5,-1
 181 1574 l 1,6,-1
 166 1488 l 1,7,-1
 196 873 l 1,8,-1
 181 855 l 1,9,-1
 211 821 l 1,10,-1
 196 804 l 1,11,-1
 196 787 l 1,12,-1
 211 770 l 1,13,-1
 211 753 l 1,14,-1
 196 736 l 1,15,-1
 196 719 l 1,16,-1
 211 633 l 1,17,18
 244 634 244 634 302 891 c 1,19,-1
 543 1131 l 1,20,-1
 664 1114 l 1,21,-1
 664 1096 l 1,22,-1
 648 1079 l 1,23,-1
 648 1062 l 1,24,25
 673 1062 673 1062 709 943 c 1,26,-1
 694 925 l 1,27,-1
 724 633 l 1,28,-1
 709 565 l 1,29,-1
 724 513 l 1,30,-1
 694 411 l 1,31,-1
 709 393 l 1,32,-1
 709 376 l 1,33,-1
 694 325 l 1,34,-1
 709 325 l 1,35,-1
 845 462 l 1,36,37
 845 565 845 565 1041 650 c 1,38,39
 1041 689 1041 689 1116 701 c 1,40,-1
 1116 684 l 1,41,42
 1056 630 1056 630 1056 547 c 1,43,44
 1010 547 1010 547 920 342 c 1,45,46
 860 342 860 342 860 291 c 1,47,-1
 875 240 l 1,48,49
 774 187 774 187 739 68 c 1,50,51
 633 68 633 68 633 0 c 1,52,-1
 618 0 l 2,53,54
 568 0 568 0 543 376 c 1,55,-1
 558 376 l 1,56,-1
 543 393 l 1,57,-1
 573 857 l 1,58,-1
 558 874 l 1,59,-1
 528 874 l 2,60,61
 505 874 505 874 392 565 c 1,62,63
 352 565 352 565 250 67 c 1,64,-1
 226 17 l 1,65,-1
 181 -3 l 1,66,67
 102 17 102 17 45 907 c 1,68,-1
 30 975 l 1,69,-1
 45 975 l 1,70,-1
 30 992 l 1,71,-1
 30 1061 l 1,72,-1
 15 1317 l 1,73,-1
 30 1317 l 1,74,-1
 15 1334 l 1,75,-1
 15 1403 l 1,76,-1
 30 1420 l 1,77,-1
 0 1642 l 1,78,79
 20 1745 20 1745 45 1745 c 2,0,-1
EndSplineSet
EndChar

StartChar: i
Encoding: 105 105 76
Width: 443
GlyphClass: 1
Flags: W
LayerCount: 2
Fore
SplineSet
101 1457 m 1,0,1
 271 1457 271 1457 271 1371 c 1,2,-1
 281 1364 l 1,3,-1
 292 1364 l 1,4,5
 277 1262 277 1262 217 1262 c 1,6,7
 217 1239 217 1239 196 1239 c 2,8,-1
 186 1239 l 1,9,10
 186 1259 186 1259 91 1356 c 1,11,-1
 80 1395 l 1,12,-1
 101 1395 l 1,13,-1
 80 1418 l 1,14,-1
 101 1457 l 1,0,1
167 978 m 1,15,-1
 188 978 l 1,16,17
 283 958 283 958 283 927 c 1,18,-1
 272 927 l 1,19,20
 293 888 293 888 293 816 c 1,21,-1
 283 806 l 1,22,-1
 293 796 l 1,23,-1
 293 765 l 1,24,-1
 283 705 l 1,25,-1
 293 674 l 1,26,-1
 272 624 l 1,27,-1
 293 604 l 1,28,-1
 293 563 l 1,29,-1
 283 553 l 1,30,-1
 283 543 l 1,31,-1
 304 523 l 1,32,-1
 261 502 l 1,33,-1
 261 472 l 1,34,35
 293 472 293 472 293 452 c 1,36,-1
 283 442 l 1,37,-1
 293 391 l 1,38,-1
 293 381 l 1,39,-1
 240 331 l 1,40,41
 293 331 293 331 293 310 c 1,42,43
 277 310 277 310 261 270 c 1,44,-1
 283 250 l 1,45,46
 283 229 283 229 251 229 c 1,47,-1
 240 219 l 1,48,-1
 240 209 l 1,49,-1
 272 209 l 1,50,-1
 272 189 l 1,51,-1
 240 149 l 1,52,-1
 251 88 l 1,53,-1
 198 7 l 1,54,-1
 135 7 l 1,55,-1
 113 27 l 1,56,-1
 113 37 l 1,57,-1
 124 47 l 1,58,-1
 113 58 l 1,59,-1
 124 108 l 1,60,-1
 103 138 l 1,61,-1
 103 149 l 1,62,-1
 113 159 l 1,63,-1
 103 169 l 1,64,-1
 103 199 l 1,65,-1
 113 240 l 1,66,-1
 92 290 l 1,67,-1
 113 331 l 1,68,-1
 92 361 l 1,69,-1
 113 472 l 1,70,-1
 92 523 l 1,71,-1
 103 533 l 1,72,-1
 113 533 l 1,73,-1
 103 563 l 1,74,-1
 113 614 l 1,75,-1
 103 705 l 1,76,77
 110 867 110 867 124 867 c 1,78,-1
 113 877 l 1,79,-1
 113 897 l 2,80,81
 113 952 113 952 167 978 c 1,15,-1
EndSplineSet
EndChar

StartChar: j
Encoding: 106 106 77
Width: 737
GlyphClass: 1
Flags: W
LayerCount: 2
Fore
SplineSet
271 1781 m 1,0,1
 406 1781 406 1781 406 1671 c 1,2,-1
 419 1611 l 1,3,-1
 332 1591 l 1,4,5
 332 1610 332 1610 222 1681 c 1,6,-1
 197 1741 l 1,7,-1
 271 1781 l 1,0,1
180 1211 m 1,8,-1
 253 1226 l 1,9,-1
 285 1214 l 1,10,-1
 300 1182 l 1,11,-1
 328 1207 l 1,12,13
 336 1181 336 1181 408 1070 c 1,14,-1
 479 939 l 1,15,-1
 491 939 l 2,16,17
 516 939 516 939 590 1033 c 1,18,-1
 614 1033 l 1,19,20
 614 1104 614 1104 762 1159 c 1,21,-1
 701 1018 l 1,22,23
 646 928 646 928 627 887 c 1,24,-1
 614 897 l 1,25,-1
 577 897 l 1,26,-1
 602 813 l 1,27,-1
 590 803 l 1,28,29
 565 803 565 803 565 740 c 1,30,-1
 540 740 l 1,31,-1
 577 677 l 1,32,-1
 565 646 l 1,33,34
 583 646 583 646 614 510 c 1,35,-1
 602 499 l 1,36,-1
 602 489 l 1,37,-1
 627 394 l 1,38,-1
 590 373 l 1,39,-1
 627 290 l 1,40,-1
 627 269 l 1,41,-1
 602 237 l 1,42,-1
 602 216 l 1,43,-1
 627 133 l 1,44,-1
 602 91 l 1,45,-1
 614 80 l 1,46,-1
 614 28 l 1,47,-1
 590 -3 l 1,48,-1
 590 -55 l 1,49,-1
 602 -66 l 1,50,-1
 602 -76 l 1,51,-1
 565 -87 l 1,52,-1
 577 -97 l 1,53,-1
 577 -108 l 1,54,55
 556 -223 556 -223 504 -223 c 1,56,-1
 516 -233 l 1,57,-1
 516 -244 l 1,58,-1
 504 -254 l 1,59,-1
 504 -265 l 1,60,-1
 491 -254 l 1,61,-1
 479 -254 l 2,62,63
 425 -254 425 -254 399 -321 c 1,64,-1
 417 -349 l 1,65,-1
 381 -370 l 1,66,-1
 368 -370 l 1,67,-1
 321 -397 l 1,68,-1
 335 -403 l 1,69,-1
 331 -412 l 1,70,-1
 294 -412 l 2,71,72
 153 -412 153 -412 49 -307 c 1,73,74
 49 -275 49 -275 -1 -233 c 1,75,76
 -1 -213 -1 -213 36 -213 c 1,77,-1
 -1 -118 l 1,78,-1
 24 -97 l 1,79,-1
 12 -24 l 1,80,-1
 36 -3 l 1,81,-1
 24 28 l 1,82,-1
 49 28 l 1,83,-1
 49 49 l 1,84,-1
 24 80 l 1,85,86
 24 101 24 101 61 101 c 1,87,-1
 61 133 l 1,88,-1
 49 185 l 1,89,90
 106 185 106 185 122 300 c 1,91,-1
 110 342 l 1,92,93
 159 491 159 491 208 520 c 1,94,95
 208 551 208 551 245 551 c 1,96,-1
 245 572 l 1,97,-1
 233 625 l 1,98,99
 294 635 294 635 294 688 c 1,100,-1
 319 709 l 1,101,-1
 356 719 l 1,102,-1
 356 730 l 1,103,-1
 344 740 l 1,104,-1
 344 750 l 1,105,-1
 356 761 l 1,106,-1
 356 771 l 1,107,-1
 331 834 l 1,108,-1
 331 866 l 1,109,110
 302 866 302 866 285 981 c 1,111,112
 179 1107 179 1107 174 1160 c 1,113,-1
 180 1211 l 1,8,-1
393 614 m 1,114,115
 393 572 393 572 257 468 c 1,116,-1
 282 436 l 1,117,-1
 282 426 l 1,118,119
 239 426 239 426 208 342 c 1,120,-1
 233 321 l 1,121,-1
 208 300 l 1,122,-1
 221 290 l 1,123,-1
 221 248 l 1,124,-1
 171 174 l 1,125,-1
 184 143 l 1,126,-1
 159 143 l 1,127,-1
 171 91 l 1,128,-1
 159 80 l 1,129,-1
 171 70 l 1,130,-1
 134 49 l 1,131,-1
 147 7 l 1,132,-1
 134 -24 l 1,133,-1
 159 -45 l 1,134,-1
 147 -55 l 1,135,-1
 147 -66 l 1,136,-1
 159 -76 l 1,137,-1
 159 -87 l 1,138,-1
 134 -192 l 1,139,140
 164 -192 164 -192 196 -265 c 1,141,-1
 221 -265 l 1,142,143
 289 -245 289 -245 381 -108 c 1,144,145
 442 45 442 45 467 227 c 1,146,-1
 454 279 l 1,147,-1
 467 311 l 1,148,-1
 442 332 l 1,149,-1
 454 478 l 1,150,-1
 454 489 l 1,151,-1
 430 531 l 1,152,-1
 442 562 l 1,153,154
 417 562 417 562 417 604 c 1,155,-1
 405 614 l 1,156,-1
 393 614 l 1,114,115
EndSplineSet
EndChar

StartChar: k
Encoding: 107 107 78
Width: 832
GlyphClass: 1
Flags: W
LayerCount: 2
Fore
SplineSet
77 1737 m 1,0,1
 148 1737 148 1737 184 1663 c 1,2,-1
 184 1652 l 1,3,-1
 173 1641 l 1,4,-1
 173 1631 l 1,5,-1
 206 1620 l 1,6,-1
 206 1609 l 1,7,-1
 173 1496 l 1,8,-1
 194 1475 l 1,9,-1
 184 1432 l 1,10,-1
 194 1422 l 1,11,-1
 206 1422 l 1,12,-1
 184 1257 l 1,13,-1
 206 1236 l 1,14,-1
 194 1204 l 1,15,-1
 216 1183 l 1,16,-1
 184 1130 l 1,17,-1
 206 1108 l 1,18,-1
 184 966 l 1,19,-1
 195 955 l 1,20,-1
 206 955 l 1,21,-1
 184 881 l 1,22,-1
 206 859 l 1,23,-1
 195 849 l 1,24,-1
 195 838 l 1,25,-1
 206 796 l 1,26,-1
 195 785 l 1,27,-1
 259 711 l 1,28,29
 338 738 338 738 432 857 c 1,30,31
 472 857 472 857 669 1127 c 1,32,-1
 701 1127 l 2,33,34
 718 1127 718 1127 755 1053 c 1,35,36
 755 911 755 911 571 751 c 1,37,38
 500 697 500 697 356 593 c 1,39,-1
 356 583 l 2,40,41
 357 551 357 551 677 189 c 1,42,43
 806 125 806 125 806 40 c 1,44,-1
 838 51 l 1,45,46
 891 51 891 51 945 -23 c 1,47,48
 979 -23 979 -23 1041 -65 c 1,49,50
 1084 -65 1084 -65 1084 -140 c 1,51,52
 1170 -147 1170 -147 1170 -172 c 1,53,-1
 1160 -183 l 1,54,-1
 1148 -183 l 1,55,-1
 1138 -172 l 1,56,-1
 1127 -183 l 1,57,-1
 1106 -183 l 1,58,-1
 945 -140 l 1,59,60
 878 -77 878 -77 762 -44 c 1,61,62
 762 -11 762 -11 677 8 c 1,63,64
 654 62 654 62 602 62 c 1,65,66
 602 115 602 115 549 115 c 1,67,68
 545 143 545 143 495 157 c 1,69,-1
 505 168 l 1,70,-1
 505 189 l 1,71,72
 439 189 439 189 366 296 c 1,73,74
 334 296 334 296 334 317 c 1,75,-1
 344 349 l 1,76,-1
 334 349 l 2,77,78
 312 349 312 349 238 423 c 1,79,-1
 227 423 l 1,80,-1
 248 264 l 1,81,-1
 238 253 l 1,82,-1
 238 242 l 1,83,-1
 248 200 l 1,84,-1
 238 189 l 1,85,-1
 238 179 l 1,86,-1
 248 125 l 1,87,-1
 227 8 l 1,88,-1
 238 -23 l 1,89,-1
 206 -44 l 1,90,-1
 184 -23 l 1,91,-1
 195 -12 l 1,92,-1
 195 -2 l 1,93,94
 109 44 109 44 109 104 c 1,95,-1
 131 136 l 1,96,-1
 119 147 l 1,97,-1
 119 157 l 2,98,99
 119 179 119 179 152 179 c 1,100,101
 152 200 152 200 119 200 c 1,102,-1
 119 264 l 1,103,-1
 77 349 l 1,104,-1
 109 359 l 1,105,-1
 99 413 l 1,106,-1
 109 423 l 1,107,108
 77 434 77 434 77 487 c 1,109,-1
 87 498 l 1,110,-1
 55 593 l 1,111,-1
 87 625 l 1,112,-1
 55 657 l 1,113,-1
 67 774 l 1,114,-1
 55 785 l 1,115,-1
 45 785 l 1,116,-1
 55 796 l 1,117,-1
 55 828 l 1,118,-1
 45 934 l 1,119,-1
 55 934 l 1,120,-1
 45 1151 l 1,121,-1
 55 1247 l 1,122,-1
 45 1400 l 1,123,-1
 55 1400 l 1,124,-1
 23 1673 l 1,125,-1
 77 1737 l 1,0,1
EndSplineSet
EndChar

StartChar: l
Encoding: 108 108 79
Width: 606
GlyphClass: 1
Flags: W
LayerCount: 2
Fore
SplineSet
80 1736 m 1,0,1
 154 1736 154 1736 240 1645 c 1,2,-1
 227 1630 l 1,3,-1
 227 1615 l 1,4,-1
 240 1568 l 1,5,-1
 227 1478 l 1,6,-1
 254 1447 l 1,7,-1
 254 1417 l 1,8,-1
 227 1372 l 1,9,-1
 240 1356 l 1,10,-1
 240 1341 l 1,11,-1
 217 1159 l 1,12,13
 244 1159 244 1159 244 1064 c 1,14,-1
 230 912 l 1,15,-1
 244 821 l 1,16,-1
 230 821 l 1,17,-1
 270 745 l 1,18,-1
 244 700 l 1,19,-1
 284 517 l 1,20,-1
 270 471 l 1,21,22
 281 213 281 213 347 213 c 1,23,24
 386 280 386 280 561 426 c 1,25,-1
 587 426 l 1,26,-1
 614 395 l 1,27,28
 544 305 544 305 507 183 c 1,29,-1
 467 183 l 1,30,-1
 467 168 l 1,31,-1
 481 152 l 1,32,33
 481 61 481 61 387 61 c 1,34,35
 387 0 387 0 307 0 c 0,36,37
 162 0 162 0 97 441 c 1,38,-1
 97 456 l 1,39,-1
 110 502 l 1,40,41
 70 586 70 586 70 943 c 1,42,-1
 43 973 l 1,43,-1
 57 988 l 1,44,-1
 43 1003 l 1,45,-1
 43 1019 l 1,46,-1
 57 1064 l 1,47,-1
 43 1129 l 1,48,-1
 43 1144 l 1,49,-1
 57 1159 l 1,50,-1
 57 1175 l 1,51,-1
 53 1372 l 1,52,-1
 67 1432 l 1,53,-1
 53 1447 l 1,54,-1
 53 1462 l 1,55,-1
 67 1478 l 1,56,-1
 67 1493 l 1,57,-1
 40 1630 l 1,58,-1
 80 1736 l 1,0,1
EndSplineSet
EndChar

StartChar: m
Encoding: 109 109 80
Width: 1203
GlyphClass: 1
Flags: W
LayerCount: 2
Fore
SplineSet
78 1197 m 1,0,1
 146 1155 146 1155 146 1087 c 1,2,-1
 136 1074 l 1,3,-1
 136 1062 l 1,4,-1
 166 989 l 1,5,-1
 156 928 l 1,6,-1
 205 487 l 1,7,-1
 224 512 l 1,8,-1
 214 524 l 1,9,-1
 214 536 l 1,10,-1
 302 805 l 1,11,-1
 292 818 l 1,12,-1
 302 830 l 1,13,-1
 312 830 l 1,14,-1
 302 842 l 1,15,-1
 302 854 l 2,16,17
 302 879 302 879 331 879 c 1,18,-1
 331 916 l 1,19,20
 348 1026 348 1026 380 1087 c 1,21,22
 519 1087 519 1087 555 830 c 1,23,-1
 575 805 l 1,24,-1
 565 768 l 1,25,-1
 604 683 l 1,26,-1
 594 670 l 1,27,-1
 614 524 l 1,28,-1
 643 524 l 1,29,-1
 633 561 l 1,30,-1
 653 646 l 1,31,-1
 643 683 l 1,32,-1
 672 695 l 1,33,-1
 672 744 l 1,34,35
 701 838 701 838 701 916 c 1,36,37
 723 916 723 916 731 1074 c 1,38,-1
 740 1087 l 1,39,40
 740 1123 740 1123 760 1123 c 2,41,-1
 789 1123 l 2,42,43
 862 1123 862 1123 896 977 c 1,44,-1
 886 965 l 1,45,-1
 886 953 l 1,46,-1
 906 903 l 1,47,-1
 896 867 l 1,48,-1
 916 818 l 1,49,-1
 906 719 l 1,50,-1
 925 609 l 1,51,-1
 925 524 l 1,52,-1
 906 487 l 1,53,-1
 935 463 l 1,54,-1
 925 401 l 1,55,-1
 925 377 l 1,56,-1
 945 291 l 1,57,-1
 925 266 l 1,58,-1
 945 242 l 1,59,-1
 955 242 l 1,60,61
 955 310 955 310 1023 340 c 1,62,63
 1062 422 1062 422 1062 475 c 1,64,-1
 1150 573 l 1,65,-1
 1140 585 l 1,66,-1
 1140 597 l 1,67,-1
 1150 633 l 1,68,-1
 1169 633 l 1,69,-1
 1144 381 l 1,70,71
 1049 116 1049 116 984 83 c 1,72,-1
 974 83 l 1,73,-1
 974 71 l 1,74,-1
 984 10 l 1,75,-1
 974 -3 l 1,76,-1
 925 -3 l 1,77,78
 886 59 886 59 848 59 c 1,79,-1
 838 71 l 1,80,-1
 838 83 l 1,81,-1
 848 95 l 1,82,83
 802 95 802 95 789 352 c 1,84,-1
 799 389 l 1,85,-1
 789 401 l 1,86,-1
 809 426 l 1,87,88
 779 426 779 426 779 463 c 1,89,-1
 789 499 l 1,90,-1
 779 573 l 1,91,-1
 750 573 l 1,92,-1
 770 475 l 1,93,94
 727 475 727 475 721 291 c 1,95,96
 696 291 696 291 672 181 c 1,97,-1
 653 181 l 1,98,-1
 672 145 l 1,99,-1
 672 120 l 1,100,-1
 623 71 l 1,101,102
 497 207 497 207 497 229 c 2,103,-1
 497 242 l 1,104,-1
 507 229 l 1,105,-1
 526 229 l 1,106,-1
 526 242 l 1,107,108
 497 463 497 463 477 487 c 1,109,-1
 487 499 l 1,110,-1
 487 512 l 1,111,-1
 419 768 l 1,112,-1
 321 401 l 1,113,-1
 312 401 l 1,114,-1
 321 389 l 1,115,116
 312 235 312 235 253 71 c 1,117,-1
 263 10 l 1,118,-1
 234 -15 l 1,119,-1
 205 -15 l 1,120,121
 109 41 109 41 107 95 c 1,122,-1
 117 108 l 1,123,-1
 117 120 l 1,124,-1
 88 217 l 1,125,-1
 107 242 l 1,126,-1
 68 315 l 1,127,-1
 68 340 l 1,128,-1
 78 352 l 1,129,130
 58 402 58 402 49 549 c 1,131,-1
 58 549 l 1,132,-1
 39 646 l 1,133,-1
 58 719 l 1,134,135
 45 719 45 719 10 891 c 1,136,-1
 29 916 l 1,137,-1
 19 965 l 1,138,-1
 29 977 l 1,139,140
 7 977 7 977 0 1148 c 1,141,142
 19 1148 19 1148 19 1185 c 1,143,-1
 29 1197 l 1,144,-1
 78 1197 l 1,0,1
770 633 m 1,145,-1
 770 597 l 1,146,-1
 779 597 l 1,147,-1
 779 633 l 1,148,-1
 770 633 l 1,145,-1
195 475 m 1,149,-1
 195 463 l 1,150,-1
 214 438 l 1,151,-1
 214 475 l 1,152,-1
 195 475 l 1,149,-1
EndSplineSet
EndChar

StartChar: n
Encoding: 110 110 81
Width: 1009
GlyphClass: 1
Flags: W
LayerCount: 2
Fore
SplineSet
490 1127 m 1,0,-1
 596 1064 l 1,1,-1
 586 1002 l 1,2,-1
 616 839 l 1,3,4
 634 839 634 839 634 801 c 1,5,-1
 616 725 l 1,6,-1
 634 725 l 1,7,-1
 625 662 l 1,8,9
 651 622 651 622 663 387 c 1,10,-1
 644 362 l 1,11,-1
 672 337 l 1,12,-1
 673 244 l 1,13,-1
 682 232 l 1,14,-1
 701 232 l 1,15,-1
 788 374 l 1,16,-1
 778 387 l 1,17,18
 806 387 806 387 930 612 c 1,19,-1
 1017 701 l 1,20,-1
 1046 701 l 1,21,-1
 1064 675 l 1,22,-1
 1048 655 l 1,23,-1
 1035 575 l 1,24,-1
 1035 550 l 1,25,-1
 1017 558 l 1,26,-1
 1026 525 l 1,27,-1
 978 450 l 1,28,-1
 987 437 l 1,29,-1
 977 404 l 1,30,-1
 910 299 l 1,31,-1
 900 249 l 1,32,33
 870 162 870 162 824 162 c 1,34,-1
 843 123 l 1,35,36
 802 111 802 111 796 61 c 1,37,-1
 720 11 l 1,38,-1
 681 23 l 1,39,-1
 672 -14 l 1,40,41
 558 -14 558 -14 520 287 c 1,42,-1
 510 299 l 1,43,-1
 520 312 l 1,44,-1
 520 324 l 1,45,-1
 510 362 l 1,46,-1
 520 362 l 1,47,-1
 500 500 l 1,48,-1
 510 500 l 1,49,-1
 481 651 l 1,50,-1
 490 662 l 1,51,-1
 500 662 l 1,52,53
 487 713 487 713 472 713 c 2,54,-1
 462 713 l 1,55,-1
 432 612 l 1,56,57
 337 337 337 337 318 337 c 1,58,-1
 328 324 l 1,59,-1
 328 224 l 1,60,-1
 308 186 l 1,61,-1
 328 149 l 1,62,-1
 308 111 l 1,63,-1
 308 61 l 1,64,-1
 318 -1 l 1,65,-1
 290 -26 l 1,66,-1
 281 23 l 1,67,-1
 271 23 l 1,68,-1
 261 -14 l 1,69,-1
 196 -1 l 1,70,-1
 148 -1 l 1,71,72
 148 78 148 78 109 249 c 1,73,-1
 127 287 l 1,74,-1
 79 500 l 1,75,-1
 89 513 l 1,76,77
 70 668 70 668 50 701 c 1,78,-1
 70 725 l 1,79,-1
 50 801 l 1,80,-1
 50 839 l 1,81,-1
 32 839 l 1,82,-1
 32 1027 l 2,83,84
 32 1114 32 1114 89 1114 c 1,85,-1
 136 1101 l 1,86,-1
 148 1114 l 1,87,88
 153 1066 153 1066 205 1039 c 1,89,-1
 205 1027 l 1,90,-1
 185 1002 l 1,91,-1
 185 976 l 1,92,-1
 205 926 l 1,93,-1
 196 889 l 1,94,-1
 214 889 l 1,95,-1
 205 801 l 1,96,-1
 214 813 l 1,97,-1
 243 813 l 1,98,-1
 214 763 l 1,99,-1
 223 713 l 1,100,-1
 214 713 l 1,101,-1
 233 588 l 1,102,-1
 223 550 l 1,103,-1
 243 550 l 1,104,105
 312 701 312 701 386 939 c 1,106,107
 407 939 407 939 443 1114 c 1,108,-1
 490 1127 l 1,0,-1
201 -26 m 1,109,-1
 231 -26 l 1,110,-1
 211 -52 l 1,111,-1
 201 -52 l 1,112,-1
 201 -26 l 1,109,-1
EndSplineSet
EndChar

StartChar: o
Encoding: 111 111 82
Width: 959
GlyphClass: 1
Flags: W
LayerCount: 2
Fore
SplineSet
416 1080 m 1,0,-1
 481 1080 l 1,1,-1
 534 1069 l 1,2,-1
 598 1080 l 1,3,-1
 640 1080 l 1,4,5
 744 1044 744 1044 747 1020 c 1,6,-1
 736 984 l 1,7,-1
 747 997 l 1,8,-1
 778 997 l 1,9,10
 778 962 778 962 800 962 c 1,11,-1
 811 973 l 1,12,-1
 885 794 l 1,13,-1
 874 782 l 1,14,-1
 874 771 l 1,15,-1
 896 723 l 1,16,17
 885 675 885 675 853 675 c 1,18,-1
 853 617 l 1,19,-1
 874 581 l 1,20,-1
 864 568 l 1,21,-1
 853 568 l 1,22,-1
 864 557 l 1,23,24
 864 458 864 458 778 389 c 1,25,-1
 789 355 l 1,26,27
 597 116 597 116 523 116 c 1,28,29
 523 77 523 77 459 69 c 1,30,31
 459 50 459 50 385 9 c 1,32,-1
 385 -2 l 1,33,-1
 342 22 l 1,34,-1
 310 9 l 1,35,-1
 310 22 l 1,36,-1
 236 -14 l 1,37,38
 214 -14 214 -14 214 22 c 1,39,-1
 161 22 l 1,40,41
 161 -2 161 -2 194 -2 c 1,42,-1
 203 -14 l 1,43,-1
 203 -38 l 1,44,-1
 194 -38 l 1,45,46
 120 -4 120 -4 65 80 c 1,47,48
 44 80 44 80 44 141 c 1,49,-1
 23 141 l 1,50,-1
 23 176 l 1,51,-1
 12 260 l 1,52,-1
 23 260 l 1,53,-1
 12 271 l 1,54,55
 39 485 39 485 76 485 c 1,56,-1
 65 497 l 1,57,-1
 65 510 l 1,58,-1
 129 723 l 1,59,-1
 108 771 l 1,60,-1
 119 819 l 1,61,-1
 87 855 l 1,62,-1
 267 1044 l 1,63,-1
 310 1033 l 1,64,-1
 406 1069 l 1,65,-1
 416 1056 l 1,66,-1
 416 1080 l 1,0,-1
747 962 m 1,67,-1
 747 937 l 1,68,-1
 758 937 l 1,69,-1
 758 962 l 1,70,-1
 747 962 l 1,67,-1
459 926 m 1,71,72
 459 901 459 901 396 890 c 1,73,74
 396 855 396 855 342 842 c 1,75,-1
 332 782 l 1,76,-1
 342 746 l 1,77,-1
 310 723 l 1,78,-1
 299 735 l 1,79,-1
 299 723 l 1,80,-1
 321 687 l 1,81,82
 284 647 284 647 257 557 c 1,83,-1
 267 521 l 1,84,-1
 214 425 l 1,85,-1
 225 389 l 1,86,-1
 203 367 l 1,87,-1
 214 355 l 1,88,-1
 214 342 l 1,89,-1
 172 260 l 1,90,-1
 194 235 l 1,91,-1
 172 187 l 1,92,-1
 246 176 l 1,93,94
 309 176 309 176 523 296 c 1,95,96
 649 394 649 394 694 545 c 1,97,-1
 747 557 l 1,98,-1
 747 568 l 1,99,100
 714 568 714 568 714 592 c 1,101,-1
 747 628 l 1,102,-1
 725 675 l 1,103,-1
 736 735 l 1,104,105
 714 735 714 735 714 807 c 1,106,-1
 705 842 l 1,107,108
 672 842 672 842 672 890 c 1,109,-1
 651 890 l 2,110,111
 572 890 572 890 565 926 c 1,112,-1
 481 901 l 1,113,-1
 459 926 l 1,71,72
821 878 m 1,114,-1
 821 855 l 1,115,-1
 832 855 l 1,116,-1
 832 878 l 1,117,-1
 821 878 l 1,114,-1
747 782 m 1,118,-1
 747 759 l 1,119,-1
 758 759 l 1,120,-1
 758 782 l 1,121,-1
 747 782 l 1,118,-1
194 557 m 1,122,-1
 225 557 l 1,123,-1
 225 581 l 1,124,-1
 214 581 l 1,125,-1
 194 557 l 1,122,-1
694 474 m 1,126,-1
 694 450 l 1,127,-1
 705 450 l 1,128,-1
 705 474 l 1,129,-1
 694 474 l 1,126,-1
EndSplineSet
EndChar

StartChar: p
Encoding: 112 112 83
Width: 924
GlyphClass: 1
Flags: W
LayerCount: 2
Fore
SplineSet
126 1206 m 1,0,-1
 194 1206 l 1,1,2
 280 1173 280 1173 280 1097 c 1,3,-1
 399 1097 l 2,4,5
 485 1094 485 1094 485 1073 c 1,6,-1
 536 1085 l 1,7,8
 824 990 824 990 844 915 c 1,9,-1
 878 891 l 1,10,-1
 861 879 l 1,11,-1
 895 831 l 1,12,13
 881 511 881 511 551 313 c 1,14,15
 487 245 487 245 351 218 c 0,16,17
 307 208 307 208 238 183 c 1,18,-1
 255 171 l 1,19,-1
 255 123 l 1,20,-1
 238 74 l 1,21,-1
 255 26 l 1,22,-1
 238 -32 l 1,23,-1
 255 -105 l 1,24,-1
 255 -165 l 1,25,-1
 238 -214 l 1,26,-1
 273 -286 l 1,27,28
 299 -286 299 -286 358 -201 c 1,29,-1
 375 -201 l 1,30,-1
 409 -238 l 1,31,-1
 409 -274 l 1,32,-1
 375 -274 l 1,33,-1
 375 -286 l 1,34,-1
 392 -298 l 1,35,-1
 392 -310 l 1,36,-1
 375 -322 l 1,37,38
 320 -444 320 -444 290 -444 c 2,39,-1
 273 -444 l 1,40,41
 67 -404 67 -404 67 -129 c 2,42,-1
 67 14 l 1,43,-1
 84 220 l 1,44,-1
 17 268 l 1,45,-1
 17 280 l 1,46,-1
 34 292 l 1,47,-1
 -1 365 l 1,48,49
 -1 403 -1 403 67 474 c 1,50,-1
 109 631 l 1,51,-1
 92 692 l 1,52,-1
 92 819 l 1,53,-1
 109 867 l 1,54,-1
 74 1012 l 1,55,-1
 92 1024 l 1,56,-1
 74 1085 l 1,57,-1
 74 1170 l 1,58,-1
 126 1206 l 1,0,-1
263 807 m 1,59,-1
 280 794 l 1,60,-1
 280 758 l 1,61,-1
 263 680 l 1,62,-1
 280 631 l 1,63,-1
 263 619 l 1,64,-1
 280 607 l 1,65,-1
 280 595 l 1,66,-1
 255 413 l 1,67,-1
 255 377 l 1,68,-1
 307 341 l 1,69,70
 307 377 307 377 341 377 c 2,71,-1
 402 373 l 1,72,-1
 639 581 l 1,73,74
 707 661 707 661 724 782 c 1,75,76
 662 928 662 928 519 928 c 1,77,-1
 416 940 l 1,78,79
 298 940 298 940 280 807 c 1,80,-1
 263 807 l 1,59,-1
EndSplineSet
EndChar

StartChar: q
Encoding: 113 113 84
Width: 1097
GlyphClass: 1
Flags: W
LayerCount: 2
Fore
SplineSet
595 1097 m 1,0,1
 642 1080 642 1080 661 1005 c 1,2,-1
 665 951 l 1,3,4
 636 903 636 903 505 839 c 1,5,6
 430 686 430 686 375 670 c 1,7,-1
 375 654 l 1,8,9
 334 522 334 522 266 506 c 1,10,-1
 266 473 l 1,11,12
 219 341 219 341 169 236 c 1,13,-1
 155 221 l 1,14,-1
 155 204 l 1,15,-1
 182 204 l 1,16,-1
 251 202 l 1,17,18
 482 304 482 304 482 370 c 1,19,20
 578 433 578 433 663 733 c 1,21,22
 663 1036 663 1036 704 1097 c 1,23,24
 827 1097 827 1097 837 932 c 1,25,-1
 851 867 l 1,26,27
 824 785 824 785 824 572 c 1,28,-1
 797 538 l 1,29,-1
 810 456 l 1,30,-1
 810 424 l 1,31,-1
 797 358 l 1,32,-1
 810 292 l 1,33,-1
 810 243 l 1,34,-1
 797 176 l 1,35,-1
 810 111 l 1,36,-1
 797 95 l 1,37,-1
 810 29 l 1,38,-1
 837 29 l 1,39,-1
 824 45 l 1,40,-1
 824 62 l 1,41,-1
 962 259 l 1,42,43
 1002 358 1002 358 1058 358 c 1,44,-1
 1058 375 l 1,45,-1
 1044 390 l 1,46,-1
 1044 407 l 1,47,-1
 1058 424 l 1,48,-1
 1071 424 l 1,49,-1
 1085 407 l 1,50,-1
 1098 407 l 1,51,-1
 1153 424 l 1,52,-1
 1153 407 l 1,53,54
 1030 232 1030 232 950 -36 c 1,55,56
 868 -211 868 -211 868 -397 c 1,57,-1
 881 -463 l 1,58,59
 871 -546 871 -546 841 -546 c 1,60,-1
 732 -480 l 1,61,-1
 667 -217 l 1,62,-1
 680 -200 l 1,63,-1
 680 -184 l 1,64,-1
 653 -53 l 1,65,-1
 653 -21 l 1,66,-1
 667 -21 l 1,67,-1
 653 95 l 1,68,-1
 653 222 l 1,69,-1
 650 288 l 1,70,-1
 663 337 l 1,71,-1
 650 354 l 1,72,-1
 622 337 l 1,73,-1
 636 320 l 1,74,-1
 636 304 l 1,75,76
 485 95 485 95 392 95 c 1,77,-1
 365 29 l 1,78,-1
 351 45 l 1,79,-1
 283 45 l 1,80,81
 283 -4 283 -4 256 -4 c 1,82,-1
 228 29 l 1,83,-1
 215 13 l 1,84,-1
 201 13 l 1,85,86
 -2 68 -2 68 -2 176 c 1,87,-1
 -16 176 l 1,88,89
 35 429 35 429 83 489 c 1,90,91
 176 746 176 746 245 746 c 1,92,93
 245 798 245 798 419 949 c 1,94,95
 419 998 419 998 501 1031 c 1,96,97
 501 1097 501 1097 595 1097 c 1,0,1
EndSplineSet
EndChar

StartChar: r
Encoding: 114 114 85
Width: 666
GlyphClass: 1
Flags: W
LayerCount: 2
Fore
SplineSet
41 1124 m 2,0,-1
 122 1124 l 1,1,-1
 153 1089 l 1,2,-1
 153 1042 l 1,3,-1
 142 1030 l 1,4,-1
 142 1019 l 1,5,-1
 173 984 l 1,6,-1
 173 948 l 1,7,-1
 163 937 l 1,8,-1
 163 925 l 1,9,10
 194 925 194 925 214 726 c 1,11,-1
 203 679 l 1,12,-1
 214 614 l 1,13,-1
 234 644 l 1,14,15
 234 685 234 685 325 796 c 1,16,17
 305 796 305 796 305 831 c 1,18,19
 331 938 331 938 418 1089 c 1,20,-1
 427 1101 l 1,21,-1
 427 1112 l 1,22,23
 590 1084 590 1084 590 1019 c 1,24,-1
 580 984 l 1,25,-1
 590 984 l 1,26,27
 651 975 651 975 651 925 c 1,28,-1
 641 913 l 1,29,-1
 641 902 l 1,30,-1
 662 808 l 1,31,-1
 651 796 l 1,32,33
 668 796 668 796 682 714 c 1,34,-1
 671 679 l 1,35,-1
 662 679 l 1,36,37
 628 702 628 702 570 831 c 1,38,39
 540 831 540 831 540 866 c 1,40,-1
 488 866 l 1,41,42
 443 772 443 772 438 714 c 1,43,-1
 366 585 l 1,44,-1
 357 585 l 1,45,-1
 366 550 l 1,46,47
 357 468 357 468 336 468 c 1,48,-1
 346 457 l 1,49,-1
 346 433 l 1,50,-1
 325 410 l 1,51,-1
 336 398 l 1,52,-1
 336 386 l 1,53,54
 286 169 286 169 264 152 c 1,55,-1
 275 141 l 1,56,-1
 275 129 l 1,57,-1
 255 94 l 1,58,-1
 264 23 l 1,59,-1
 255 12 l 1,60,-1
 244 12 l 1,61,-1
 214 35 l 1,62,-1
 203 35 l 1,63,64
 203 0 203 0 183 0 c 1,65,66
 183 35 183 35 133 35 c 1,67,-1
 72 222 l 1,68,-1
 81 234 l 1,69,-1
 81 246 l 1,70,71
 61 350 61 350 61 527 c 1,72,-1
 51 574 l 1,73,-1
 61 621 l 1,74,-1
 61 632 l 1,75,-1
 41 714 l 1,76,-1
 51 761 l 1,77,-1
 41 820 l 1,78,-1
 51 855 l 1,79,80
 31 855 31 855 20 960 c 1,81,-1
 31 972 l 1,82,-1
 0 972 l 1,83,-1
 0 984 l 1,84,-1
 20 1007 l 1,85,-1
 11 1019 l 1,86,-1
 11 1054 l 1,87,88
 16 1124 16 1124 41 1124 c 2,0,-1
EndSplineSet
EndChar

StartChar: s
Encoding: 115 115 86
Width: 645
GlyphClass: 1
Flags: W
LayerCount: 2
Fore
SplineSet
421 1161 m 1,0,-1
 507 1136 l 1,1,-1
 498 1124 l 1,2,-1
 498 1099 l 1,3,4
 523 1099 523 1099 541 1050 c 1,5,6
 520 960 520 960 386 914 c 1,7,-1
 352 877 l 1,8,-1
 318 889 l 1,9,-1
 189 753 l 1,10,11
 189 680 189 680 266 680 c 1,12,13
 266 631 266 631 395 593 c 1,14,15
 558 467 558 467 558 371 c 1,16,-1
 584 334 l 1,17,-1
 567 309 l 1,18,-1
 584 235 l 1,19,-1
 498 86 l 1,20,21
 413 31 413 31 266 0 c 1,22,23
 266 38 266 38 154 62 c 1,24,25
 137 74 137 74 120 74 c 0,26,27
 78 74 78 74 43 185 c 1,28,29
 6 276 6 276 6 305 c 0,30,31
 6 310 6 310 7 313 c 1,32,-1
 69 235 l 1,33,-1
 86 235 l 1,34,35
 105 206 105 206 206 185 c 1,36,37
 455 260 455 260 455 321 c 1,38,39
 378 420 378 420 318 420 c 1,40,41
 171 528 171 528 137 581 c 1,42,43
 96 609 96 609 60 680 c 1,44,-1
 69 717 l 1,45,-1
 43 753 l 1,46,47
 60 753 60 753 69 877 c 1,48,-1
 163 1013 l 1,49,-1
 154 1025 l 1,50,-1
 146 1025 l 1,51,-1
 206 1046 l 1,52,-1
 249 1062 l 1,53,54
 249 1079 249 1079 361 1136 c 1,55,-1
 369 1124 l 1,56,-1
 378 1124 l 1,57,-1
 421 1161 l 1,0,-1
EndSplineSet
EndChar

StartChar: t
Encoding: 116 116 87
Width: 659
GlyphClass: 1
Flags: W
LayerCount: 2
Fore
SplineSet
243 1483 m 1,0,1
 291 1428 291 1428 301 1382 c 1,2,-1
 293 1317 l 1,3,-1
 318 1317 l 1,4,-1
 376 1315 l 1,5,6
 381 1348 381 1348 443 1348 c 1,7,-1
 460 1326 l 1,8,-1
 517 1350 l 1,9,-1
 542 1350 l 1,10,-1
 567 1328 l 1,11,-1
 626 1328 l 1,12,-1
 634 1339 l 1,13,-1
 642 1339 l 1,14,15
 642 1317 642 1317 709 1296 c 1,16,-1
 709 1285 l 1,17,-1
 532 1225 l 2,18,19
 529 1227 529 1227 526 1227 c 0,20,21
 509 1227 509 1227 452 1181 c 1,22,-1
 452 1159 l 1,23,-1
 427 1159 l 1,24,-1
 343 1170 l 1,25,26
 343 1147 343 1147 293 1079 c 1,27,-1
 301 1068 l 1,28,-1
 293 1012 l 1,29,-1
 293 939 l 1,30,-1
 310 917 l 1,31,-1
 284 760 l 1,32,-1
 293 715 l 1,33,-1
 284 670 l 1,34,35
 301 632 301 632 334 302 c 1,36,37
 360 302 360 302 393 191 c 1,38,-1
 452 158 l 1,39,40
 531 184 531 184 594 247 c 1,41,-1
 602 247 l 1,42,-1
 610 236 l 1,43,-1
 619 236 l 1,44,-1
 636 258 l 1,45,-1
 660 258 l 1,46,-1
 677 236 l 1,47,-1
 652 191 l 1,48,-1
 660 180 l 1,49,50
 639 180 639 180 569 56 c 1,51,-1
 527 34 l 1,52,-1
 502 45 l 1,53,-1
 494 -9 l 1,54,-1
 485 -9 l 1,55,-1
 443 1 l 1,56,-1
 435 -9 l 1,57,-1
 435 -22 l 1,58,-1
 310 34 l 1,59,60
 248 133 248 133 201 280 c 1,61,-1
 209 314 l 1,62,63
 180 349 180 349 159 681 c 1,64,-1
 168 681 l 1,65,-1
 159 693 l 1,66,-1
 159 704 l 1,67,-1
 168 826 l 1,68,-1
 159 838 l 1,69,-1
 159 849 l 1,70,-1
 168 883 l 1,71,-1
 159 1001 l 1,72,-1
 168 1035 l 1,73,-1
 149 1119 l 1,74,-1
 132 1143 l 1,75,-1
 107 1143 l 1,76,-1
 32 1132 l 1,77,-1
 6 1143 l 1,78,-1
 -6 1116 l 1,79,-1
 -43 1114 l 1,80,81
 -72 1165 -72 1165 -72 1235 c 1,82,83
 8 1285 8 1285 159 1295 c 1,84,-1
 159 1317 l 1,85,-1
 168 1405 l 1,86,-1
 159 1438 l 1,87,88
 206 1482 206 1482 243 1483 c 1,0,1
EndSplineSet
EndChar

StartChar: u
Encoding: 117 117 88
Width: 853
GlyphClass: 1
Flags: W
LayerCount: 2
Fore
SplineSet
647 1069 m 1,0,1
 694 1069 694 1069 717 930 c 1,2,-1
 717 843 l 1,3,-1
 707 833 l 1,4,-1
 717 821 l 1,5,-1
 717 798 l 1,6,-1
 697 729 l 1,7,-1
 717 613 l 1,8,-1
 697 555 l 1,9,-1
 707 544 l 1,10,-1
 707 428 l 1,11,-1
 687 335 l 1,12,-1
 717 301 l 1,13,-1
 717 231 l 1,14,-1
 707 220 l 1,15,-1
 717 208 l 1,16,-1
 717 185 l 1,17,-1
 707 174 l 1,18,-1
 707 162 l 1,19,20
 747 145 747 145 747 127 c 1,21,-1
 727 93 l 1,22,-1
 757 46 l 1,23,-1
 727 12 l 1,24,-1
 697 35 l 1,25,-1
 687 23 l 1,26,-1
 677 23 l 1,27,28
 677 46 677 46 637 46 c 1,29,-1
 627 58 l 1,30,-1
 627 69 l 1,31,-1
 637 116 l 1,32,33
 558 229 558 229 558 382 c 1,34,-1
 548 382 l 1,35,36
 548 231 548 231 458 231 c 1,37,-1
 458 220 l 1,38,39
 488 220 488 220 488 197 c 1,40,41
 448 191 448 191 448 162 c 1,42,-1
 438 162 l 1,43,-1
 418 166 l 1,44,-1
 408 166 l 1,45,-1
 399 130 l 1,46,-1
 379 116 l 1,47,-1
 388 81 l 1,48,-1
 379 81 l 1,49,50
 319 77 319 77 319 12 c 1,51,-1
 299 12 l 1,52,-1
 289 23 l 1,53,-1
 190 0 l 1,54,55
 50 185 50 185 40 393 c 1,56,57
 0 694 0 694 0 972 c 1,58,-1
 40 1018 l 1,59,60
 125 1018 125 1018 160 902 c 1,61,-1
 150 891 l 1,62,-1
 150 879 l 1,63,-1
 170 764 l 1,64,-1
 160 729 l 1,65,-1
 180 706 l 1,66,-1
 160 671 l 1,67,-1
 180 625 l 1,68,-1
 160 544 l 1,69,70
 183 544 183 544 210 451 c 1,71,-1
 200 440 l 1,72,-1
 200 428 l 2,73,74
 200 293 200 293 259 185 c 1,75,-1
 269 185 l 1,76,-1
 369 324 l 1,77,-1
 369 335 l 1,78,-1
 359 347 l 1,79,-1
 359 359 l 1,80,81
 408 359 408 359 408 416 c 1,82,83
 496 553 496 553 548 843 c 1,84,-1
 558 1000 l 1,85,-1
 548 1046 l 1,86,-1
 647 1069 l 1,0,1
EndSplineSet
EndChar

StartChar: v
Encoding: 118 118 89
Width: 807
GlyphClass: 1
Flags: W
LayerCount: 2
Fore
SplineSet
706 1164 m 1,0,-1
 778 1140 l 1,1,2
 778 1006 778 1006 706 936 c 1,3,-1
 696 948 l 1,4,-1
 696 924 l 1,5,-1
 686 924 l 1,6,-1
 696 912 l 1,7,-1
 696 875 l 1,8,9
 655 832 655 832 655 780 c 1,10,-1
 614 719 l 1,11,-1
 624 707 l 1,12,-1
 624 695 l 2,13,14
 624 612 624 612 574 612 c 1,15,-1
 584 600 l 1,16,-1
 584 588 l 1,17,-1
 563 564 l 1,18,-1
 574 527 l 1,19,-1
 563 515 l 1,20,-1
 512 420 l 1,21,-1
 522 408 l 1,22,-1
 522 323 l 1,23,24
 502 302 502 302 502 203 c 1,25,-1
 492 191 l 1,26,-1
 481 191 l 1,27,-1
 502 143 l 1,28,-1
 492 60 l 1,29,-1
 502 23 l 1,30,31
 442 15 442 15 410 -37 c 1,32,-1
 399 -37 l 2,33,34
 354 -37 354 -37 225 408 c 1,35,36
 212 408 212 408 195 491 c 1,37,38
 166 491 166 491 154 600 c 1,39,-1
 0 904 l 1,40,-1
 0 915 l 1,41,-1
 10 915 l 1,42,-1
 0 927 l 1,43,-1
 0 976 l 1,44,-1
 51 1036 l 1,45,-1
 72 1036 l 1,46,-1
 82 1024 l 1,47,-1
 92 1036 l 1,48,-1
 113 1036 l 1,49,50
 151 1009 151 1009 235 768 c 1,51,52
 250 767 250 767 297 612 c 1,53,54
 322 612 322 612 368 408 c 1,55,-1
 389 408 l 1,56,-1
 389 456 l 2,57,58
 389 539 389 539 481 731 c 1,59,60
 481 790 481 790 533 864 c 1,61,-1
 543 852 l 1,62,-1
 553 852 l 1,63,-1
 584 864 l 1,64,-1
 584 875 l 1,65,-1
 553 912 l 1,66,67
 610 1164 610 1164 706 1164 c 1,0,-1
EndSplineSet
EndChar

StartChar: w
Encoding: 119 119 90
Width: 1048
GlyphClass: 1
Flags: W
LayerCount: 2
Fore
SplineSet
1004 1156 m 1,0,-1
 1036 1145 l 1,1,-1
 1036 1134 l 1,2,-1
 950 995 l 1,3,-1
 961 964 l 1,4,-1
 874 783 l 1,5,-1
 895 761 l 1,6,7
 829 556 829 556 799 524 c 1,8,-1
 819 482 l 1,9,10
 795 482 795 482 776 353 c 1,11,-1
 787 310 l 1,12,-1
 767 278 l 1,13,-1
 776 247 l 1,14,-1
 767 204 l 1,15,-1
 776 118 l 1,16,-1
 745 12 l 1,17,-1
 734 21 l 1,18,-1
 680 21 l 1,19,-1
 637 -9 l 1,20,-1
 551 193 l 1,21,-1
 562 225 l 1,22,23
 522 258 522 258 476 582 c 1,24,-1
 455 582 l 1,25,-1
 455 572 l 1,26,-1
 465 561 l 1,27,-1
 465 550 l 1,28,-1
 455 518 l 1,29,-1
 465 415 l 1,30,31
 441 415 441 415 401 372 c 1,32,-1
 390 372 l 1,33,34
 412 330 412 330 412 254 c 1,35,-1
 390 200 l 1,36,-1
 401 190 l 1,37,-1
 401 179 l 1,38,-1
 390 148 l 1,39,-1
 401 137 l 1,40,41
 390 31 390 31 369 31 c 1,42,-1
 336 41 l 1,43,-1
 273 -13 l 1,44,45
 227 -13 227 -13 165 254 c 1,46,-1
 176 254 l 1,47,48
 133 341 133 341 111 446 c 0,49,50
 60 704 60 704 36 731 c 1,51,-1
 47 742 l 1,52,-1
 47 753 l 1,53,54
 20 870 20 870 -7 870 c 1,55,-1
 5 881 l 1,56,-1
 5 913 l 1,57,-1
 -7 957 l 1,58,-1
 5 966 l 1,59,-1
 -7 1020 l 1,60,-1
 -7 1042 l 2,61,62
 -7 1063 -7 1063 68 1084 c 1,63,64
 150 1084 150 1084 187 807 c 1,65,66
 265 425 265 425 282 425 c 2,67,-1
 293 425 l 1,68,69
 304 608 304 608 358 774 c 1,70,-1
 347 817 l 1,71,-1
 379 838 l 1,72,-1
 369 849 l 1,73,74
 395 1020 395 1020 433 1020 c 1,75,-1
 476 1009 l 1,76,-1
 498 1031 l 1,77,-1
 519 991 l 1,78,-1
 551 937 l 1,79,-1
 551 926 l 1,80,-1
 541 852 l 1,81,-1
 551 852 l 2,82,83
 573 852 573 852 594 734 c 1,84,-1
 584 702 l 1,85,86
 622 535 622 535 648 513 c 1,87,-1
 746 783 l 1,88,-1
 735 793 l 1,89,-1
 766 804 l 1,90,-1
 766 826 l 1,91,-1
 757 837 l 1,92,-1
 757 846 l 1,93,-1
 799 953 l 1,94,-1
 821 953 l 1,95,-1
 821 974 l 1,96,-1
 810 985 l 1,97,-1
 810 995 l 1,98,99
 853 995 853 995 864 1060 c 1,100,-1
 896 1060 l 1,101,-1
 896 1124 l 2,102,103
 896 1147 896 1147 1004 1156 c 1,0,-1
EndSplineSet
EndChar

StartChar: x
Encoding: 120 120 91
Width: 910
GlyphClass: 1
Flags: W
LayerCount: 2
Fore
SplineSet
203 1153 m 1,0,1
 286 1153 286 1153 352 937 c 1,2,-1
 386 937 l 1,3,-1
 386 914 l 2,4,5
 386 817 386 817 481 751 c 1,6,7
 637 954 637 954 717 1012 c 1,8,9
 723 1055 723 1055 749 1055 c 2,10,-1
 835 1055 l 2,11,12
 853 1055 853 1055 866 980 c 1,13,14
 866 849 866 849 686 796 c 1,15,16
 686 731 686 731 579 655 c 1,17,-1
 567 643 l 1,18,-1
 567 622 l 2,19,20
 567 550 567 550 760 297 c 1,21,22
 794 213 794 213 813 210 c 1,23,-1
 802 199 l 1,24,-1
 802 189 l 1,25,26
 889 103 889 103 889 47 c 1,27,-1
 879 37 l 1,28,-1
 866 47 l 1,29,-1
 846 47 l 1,30,31
 910 -7 910 -7 910 -50 c 1,32,-1
 889 -72 l 1,33,-1
 866 -72 l 1,34,-1
 813 -18 l 1,35,-1
 825 15 l 1,36,37
 801 15 801 15 696 155 c 1,38,39
 657 168 657 168 545 352 c 1,40,41
 507 352 507 352 481 426 c 1,42,-1
 440 459 l 1,43,44
 440 438 440 438 406 438 c 1,45,46
 406 361 406 361 311 297 c 1,47,-1
 321 264 l 1,48,-1
 311 264 l 1,49,-1
 321 253 l 1,50,-1
 321 243 l 1,51,-1
 267 167 l 1,52,-1
 279 155 l 1,53,-1
 279 134 l 1,54,-1
 267 123 l 1,55,-1
 192 15 l 1,56,-1
 150 -18 l 1,57,-1
 85 15 l 1,58,-1
 31 3 l 1,59,-1
 21 15 l 1,60,-1
 21 26 l 1,61,-1
 42 58 l 1,62,-1
 31 69 l 1,63,-1
 21 69 l 1,64,65
 21 111 21 111 235 394 c 1,66,67
 351 556 351 556 375 622 c 1,68,-1
 386 622 l 1,69,-1
 386 634 l 1,70,71
 329 634 329 634 279 763 c 1,72,73
 252 775 252 775 139 1000 c 1,74,-1
 150 1044 l 1,75,-1
 139 1078 l 1,76,77
 139 1125 139 1125 203 1153 c 1,0,1
EndSplineSet
EndChar

StartChar: y
Encoding: 121 121 92
Width: 1090
GlyphClass: 1
Flags: W
LayerCount: 2
Fore
SplineSet
620 1161 m 1,0,-1
 810 1099 l 1,1,-1
 810 1084 l 1,2,-1
 775 1084 l 1,3,-1
 775 1038 l 1,4,5
 826 1001 826 1001 913 578 c 1,6,-1
 895 563 l 1,7,-1
 895 547 l 1,8,-1
 913 470 l 1,9,-1
 895 424 l 1,10,-1
 913 424 l 1,11,-1
 1085 440 l 1,12,-1
 1102 424 l 1,13,-1
 1102 410 l 1,14,15
 879 257 879 257 879 225 c 1,16,-1
 895 118 l 1,17,-1
 879 102 l 1,18,-1
 861 102 l 1,19,-1
 879 87 l 1,20,21
 879 -50 879 -50 792 -142 c 1,22,-1
 810 -188 l 1,23,24
 758 -188 758 -188 758 -281 c 1,25,26
 552 -496 552 -496 465 -496 c 1,27,28
 465 -442 465 -442 362 -373 c 1,29,-1
 328 -128 l 1,30,31
 459 171 459 171 603 225 c 1,32,33
 615 302 615 302 689 302 c 1,34,35
 758 345 758 345 758 424 c 1,36,-1
 741 440 l 1,37,-1
 723 440 l 1,38,-1
 741 486 l 1,39,40
 718 839 718 839 672 839 c 1,41,-1
 638 793 l 1,42,-1
 672 747 l 1,43,-1
 654 731 l 1,44,-1
 638 731 l 1,45,-1
 654 685 l 1,46,47
 539 348 539 348 380 241 c 1,48,-1
 414 195 l 1,49,50
 362 195 362 195 362 149 c 1,51,-1
 345 133 l 1,52,-1
 208 133 l 2,53,54
 75 133 75 133 35 563 c 1,55,-1
 52 609 l 1,56,-1
 35 624 l 1,57,-1
 35 639 l 1,58,-1
 52 731 l 1,59,-1
 52 747 l 1,60,-1
 19 777 l 1,61,-1
 35 793 l 1,62,-1
 35 824 l 1,63,-1
 19 916 l 1,64,-1
 35 962 l 1,65,-1
 1 1084 l 1,66,-1
 52 1115 l 1,67,68
 173 1099 173 1099 173 1069 c 2,69,-1
 173 1038 l 1,70,-1
 155 1023 l 1,71,-1
 155 1008 l 1,72,73
 208 1008 208 1008 208 839 c 2,74,-1
 208 777 l 1,75,-1
 190 762 l 1,76,-1
 208 747 l 1,77,-1
 208 731 l 1,78,-1
 190 716 l 1,79,-1
 208 701 l 1,80,-1
 208 655 l 1,81,-1
 190 639 l 1,82,-1
 224 547 l 1,83,-1
 208 547 l 1,84,-1
 224 532 l 1,85,-1
 224 516 l 1,86,-1
 208 456 l 1,87,-1
 242 317 l 1,88,-1
 293 317 l 1,89,90
 569 712 569 712 569 1115 c 1,91,-1
 552 1131 l 1,92,-1
 620 1161 l 1,0,-1
620 133 m 1,93,-1
 654 87 l 1,94,95
 564 87 564 87 483 -204 c 1,96,-1
 500 -219 l 1,97,-1
 500 -235 l 1,98,-1
 483 -281 l 1,99,-1
 500 -296 l 1,100,-1
 534 -296 l 1,101,102
 741 -15 741 -15 741 179 c 1,103,-1
 723 179 l 1,104,105
 667 133 667 133 620 133 c 1,93,-1
EndSplineSet
EndChar

StartChar: z
Encoding: 122 122 93
Width: 701
GlyphClass: 1
Flags: W
LayerCount: 2
Fore
SplineSet
348 1116 m 1,0,1
 385 1116 385 1116 385 1092 c 1,2,-1
 392 1105 l 1,3,-1
 452 1105 l 2,4,5
 510 1105 510 1105 585 998 c 1,6,-1
 585 964 l 1,7,-1
 570 928 l 1,8,9
 587 928 587 928 592 869 c 1,10,11
 511 796 511 796 511 775 c 1,12,13
 432 717 432 717 341 611 c 1,14,15
 306 540 306 540 281 540 c 1,16,-1
 266 564 l 1,17,-1
 259 552 l 1,18,-1
 259 540 l 1,19,-1
 274 517 l 1,20,-1
 266 505 l 1,21,-1
 259 505 l 1,22,-1
 252 517 l 1,23,-1
 252 505 l 1,24,-1
 259 469 l 1,25,-1
 185 294 l 1,26,-1
 185 223 l 1,27,-1
 222 212 l 1,28,-1
 252 223 l 1,29,-1
 303 199 l 1,30,-1
 348 212 l 1,31,-1
 378 212 l 1,32,-1
 378 235 l 1,33,-1
 385 235 l 1,34,-1
 415 199 l 1,35,-1
 511 199 l 1,36,-1
 533 165 l 1,37,-1
 540 176 l 1,38,-1
 548 176 l 1,39,-1
 570 165 l 1,40,-1
 607 188 l 1,41,42
 607 141 607 141 644 141 c 1,43,-1
 644 118 l 1,44,-1
 555 71 l 1,45,-1
 526 71 l 1,46,-1
 489 82 l 1,47,48
 489 48 489 48 459 24 c 1,49,-1
 437 24 l 1,50,-1
 422 47 l 1,51,-1
 385 35 l 1,52,-1
 378 35 l 1,53,-1
 341 47 l 1,54,55
 341 11 341 11 326 11 c 1,56,-1
 318 24 l 1,57,-1
 318 35 l 1,58,-1
 237 0 l 1,59,-1
 141 24 l 1,60,-1
 133 11 l 1,61,-1
 126 11 l 2,62,63
 59 11 59 11 59 141 c 2,64,-1
 59 199 l 1,65,-1
 67 270 l 1,66,-1
 59 306 l 1,67,68
 104 411 104 411 126 529 c 1,69,70
 249 780 249 780 348 869 c 1,71,72
 364 904 364 904 385 904 c 1,73,-1
 385 928 l 1,74,-1
 378 917 l 1,75,-1
 333 917 l 1,76,-1
 303 928 l 1,77,-1
 274 917 l 1,78,-1
 266 928 l 1,79,-1
 215 904 l 1,80,-1
 192 940 l 1,81,82
 192 917 192 917 148 893 c 1,83,-1
 118 904 l 1,84,-1
 81 893 l 1,85,86
 37 928 37 928 0 928 c 1,87,-1
 15 964 l 1,88,-1
 7 1034 l 1,89,90
 20 1092 20 1092 44 1092 c 1,91,-1
 81 1081 l 1,92,-1
 118 1092 l 1,93,-1
 126 1081 l 1,94,-1
 133 1081 l 1,95,-1
 163 1092 l 1,96,-1
 229 1081 l 1,97,-1
 244 1105 l 1,98,-1
 259 1105 l 1,99,-1
 274 1081 l 1,100,-1
 348 1116 l 1,0,1
415 1058 m 1,101,-1
 415 1034 l 1,102,-1
 422 1034 l 1,103,-1
 422 1058 l 1,104,-1
 415 1058 l 1,101,-1
415 741 m 1,105,-1
 429 741 l 1,106,-1
 429 763 l 1,107,-1
 415 741 l 1,105,-1
EndSplineSet
EndChar

StartChar: braceleft
Encoding: 123 123 94
Width: 1014
GlyphClass: 1
Flags: W
LayerCount: 2
Fore
SplineSet
240 698 m 1,0,1
 412 703 412 703 463 769 c 128,-1,2
 514 835 514 835 514 902 c 2,3,-1
 514 1370 l 2,4,5
 514 1444 514 1444 591 1511.5 c 128,-1,6
 668 1579 668 1579 776 1579 c 2,7,-1
 884 1579 l 1,8,-1
 884 1529 l 1,9,-1
 794 1529 l 2,10,11
 733 1529 733 1529 687 1495.5 c 128,-1,12
 641 1462 641 1462 640 1404 c 2,13,-1
 640 904 l 2,14,15
 640 821 640 821 579.5 745.5 c 128,-1,16
 519 670 519 670 437 669 c 1,17,-1
 437 667 l 1,18,19
 519 666 519 666 580 591 c 128,-1,20
 641 516 641 516 641 433 c 2,21,-1
 640 -67 l 2,22,23
 641 -125 641 -125 687 -158.5 c 128,-1,24
 733 -192 733 -192 794 -192 c 2,25,-1
 884 -192 l 1,26,-1
 884 -242 l 1,27,-1
 776 -242 l 2,28,29
 668 -242 668 -242 591.5 -174.5 c 128,-1,30
 515 -107 515 -107 514 -33 c 2,31,-1
 514 435 l 2,32,33
 514 501 514 501 463 567 c 128,-1,34
 412 633 412 633 240 638 c 1,35,-1
 240 698 l 1,0,1
EndSplineSet
EndChar

StartChar: bar
Encoding: 124 124 95
Width: 1014
GlyphClass: 1
Flags: W
LayerCount: 2
Fore
SplineSet
427 1577 m 1,0,-1
 587 1577 l 1,1,-1
 587 -418 l 1,2,-1
 427 -418 l 1,3,-1
 427 1577 l 1,0,-1
EndSplineSet
EndChar

StartChar: braceright
Encoding: 125 125 96
Width: 1014
GlyphClass: 1
Flags: W
LayerCount: 2
Fore
SplineSet
774 638 m 1,0,1
 602 633 602 633 551 567 c 128,-1,2
 500 501 500 501 500 435 c 2,3,-1
 500 -33 l 2,4,5
 499 -107 499 -107 422.5 -174.5 c 128,-1,6
 346 -242 346 -242 238 -242 c 2,7,-1
 130 -242 l 1,8,-1
 130 -192 l 1,9,-1
 220 -192 l 2,10,11
 281 -192 281 -192 327 -158.5 c 128,-1,12
 373 -125 373 -125 374 -67 c 2,13,-1
 373 433 l 2,14,15
 373 516 373 516 434 591 c 128,-1,16
 495 666 495 666 578 667 c 1,17,-1
 578 669 l 1,18,19
 495 670 495 670 434.5 745.5 c 128,-1,20
 374 821 374 821 374 904 c 2,21,-1
 374 1404 l 2,22,23
 373 1462 373 1462 327 1495.5 c 128,-1,24
 281 1529 281 1529 220 1529 c 2,25,-1
 130 1529 l 1,26,-1
 130 1579 l 1,27,-1
 238 1579 l 2,28,29
 346 1579 346 1579 423 1511.5 c 128,-1,30
 500 1444 500 1444 500 1370 c 2,31,-1
 500 902 l 2,32,33
 500 835 500 835 551 769 c 128,-1,34
 602 703 602 703 774 698 c 1,35,-1
 774 638 l 1,0,1
EndSplineSet
EndChar

StartChar: asciitilde
Encoding: 126 126 97
Width: 1014
GlyphClass: 1
Flags: W
LayerCount: 2
Fore
SplineSet
923 878 m 1,0,-1
 923 722 l 1,1,2
 860 650 860 650 801 624.5 c 128,-1,3
 742 599 742 599 685 599 c 0,4,5
 625 599 625 599 507.5 647.5 c 128,-1,6
 390 696 390 696 331 696 c 0,7,8
 280 696 280 696 223.5 668 c 128,-1,9
 167 640 167 640 94 556 c 1,10,-1
 94 712 l 1,11,12
 158 785 158 785 217 811 c 128,-1,13
 276 837 276 837 331 837 c 0,14,15
 395 837 395 837 512.5 787.5 c 128,-1,16
 630 738 630 738 685 738 c 0,17,18
 737 738 737 738 793.5 766 c 128,-1,19
 850 794 850 794 923 878 c 1,0,-1
EndSplineSet
EndChar

StartChar: sterling
Encoding: 163 163 100
Width: 1014
GlyphClass: 1
Flags: W
LayerCount: 2
Fore
SplineSet
748 1347 m 1,0,1
 676 1378 676 1378 588 1378 c 2,2,-1
 586 1378 l 2,3,4
 486 1378 486 1378 396 1277 c 0,5,6
 312 1184 312 1184 312 1036 c 0,7,8
 312 1021 312 1021 313 1006 c 0,9,10
 313 871 313 871 366 733 c 1,11,-1
 726 733 l 1,12,-1
 726 673 l 1,13,-1
 392 673 l 1,14,15
 406 643 406 643 423 613 c 0,16,17
 458 550 458 550 458 475 c 0,18,19
 458 314 458 314 296 100 c 1,20,-1
 698 100 l 2,21,22
 828 100 828 100 887 232 c 1,23,-1
 936 231 l 1,24,-1
 833 0 l 1,25,-1
 114 0 l 1,26,-1
 115 50 l 1,27,28
 302 288 302 288 302 468 c 0,29,30
 302 545 302 545 268 611 c 0,31,32
 251 643 251 643 237 673 c 1,33,-1
 76 673 l 1,34,-1
 76 733 l 1,35,-1
 211 733 l 1,36,37
 153 876 153 876 153 986 c 0,38,39
 153 1212 153 1212 276.5 1333 c 128,-1,40
 400 1454 400 1454 583 1454 c 2,41,-1
 587 1454 l 2,42,43
 662 1454 662 1454 772.5 1440 c 128,-1,44
 883 1426 883 1426 883 1406 c 2,45,-1
 883 1245 l 1,46,-1
 825 1245 l 1,47,48
 820 1306 820 1306 748 1347 c 1,0,1
EndSplineSet
EndChar

StartChar: currency
Encoding: 164 164 101
Width: 1014
GlyphClass: 1
Flags: W
LayerCount: 2
Fore
SplineSet
350 560 m 0,0,1
 391 520 391 520 449 503 c 0,2,3
 478 495 478 495 507 495 c 256,4,5
 536 495 536 495 565 503 c 0,6,7
 623 520 623 520 664 560 c 0,8,9
 704 601 704 601 721 659 c 0,10,11
 730 688 730 688 730 717 c 256,12,13
 730 746 730 746 721 775 c 0,14,15
 704 833 704 833 664 874 c 0,16,17
 623 914 623 914 564 931 c 0,18,19
 535 939 535 939 506 939 c 256,20,21
 477 939 477 939 448 930 c 0,22,23
 390 913 390 913 350 874 c 0,24,25
 311 834 311 834 294 776 c 0,26,27
 284 746 284 746 284 716 c 0,28,29
 284 688 284 688 293 660 c 0,30,31
 309 601 309 601 350 560 c 0,0,1
240 903 m 1,32,-1
 122 1021 l 1,33,-1
 202 1102 l 1,34,-1
 320 984 l 1,35,36
 364 1014 364 1014 419 1030 c 0,37,38
 463 1044 463 1044 508 1044 c 0,39,40
 549 1044 549 1044 591 1032 c 0,41,42
 648 1015 648 1015 693 984 c 1,43,-1
 811 1102 l 1,44,-1
 891 1021 l 1,45,-1
 774 904 l 1,46,47
 805 858 805 858 822 802 c 0,48,49
 834 760 834 760 834 717 c 0,50,51
 834 675 834 675 822 632 c 0,52,53
 805 576 805 576 774 530 c 1,54,-1
 891 413 l 1,55,-1
 811 332 l 1,56,-1
 693 450 l 1,57,58
 648 418 648 418 592 402 c 0,59,60
 550 390 550 390 507 390 c 0,61,62
 465 390 465 390 422 402 c 0,63,64
 365 418 365 418 320 450 c 1,65,-1
 202 332 l 1,66,-1
 122 413 l 1,67,-1
 240 530 l 1,68,69
 208 576 208 576 192 633 c 0,70,71
 180 675 180 675 180 717 c 0,72,73
 180 761 180 761 193 804 c 0,74,75
 209 859 209 859 240 903 c 1,32,-1
EndSplineSet
EndChar

StartChar: yen
Encoding: 165 165 102
Width: 1262
GlyphClass: 1
Flags: W
LayerCount: 2
Fore
SplineSet
547 225 m 2,0,-1
 545 467 l 2,1,2
 545 486 545 486 543.5 502 c 128,-1,3
 542 518 542 518 539 534 c 1,4,-1
 55 535 l 2,5,6
 41 535 41 535 34 541.5 c 128,-1,7
 27 548 27 548 27 561 c 256,8,9
 27 574 27 574 33.5 580 c 128,-1,10
 40 586 40 586 55 586 c 2,11,-1
 522 586 l 1,12,-1
 401 758 l 1,13,-1
 57 758 l 2,14,15
 40 758 40 758 33.5 763.5 c 128,-1,16
 27 769 27 769 27 782 c 0,17,18
 27 796 27 796 33 801.5 c 128,-1,19
 39 807 39 807 55 807 c 2,20,-1
 362 807 l 1,21,22
 319 864 319 864 254 962 c 0,23,24
 123 1159 123 1159 27 1159 c 0,25,26
 20 1159 20 1159 14 1164.5 c 128,-1,27
 8 1170 8 1170 8 1176 c 0,28,29
 8 1195 8 1195 18.5 1203.5 c 128,-1,30
 29 1212 29 1212 51 1212 c 0,31,32
 78 1212 78 1212 174 1204 c 128,-1,33
 270 1196 270 1196 338 1196 c 2,34,-1
 395 1196 l 1,35,-1
 426 1196 l 2,36,37
 459 1196 459 1196 467 1189.5 c 128,-1,38
 475 1183 475 1183 475 1163 c 0,39,40
 475 1155 475 1155 460 1149 c 128,-1,41
 445 1143 445 1143 422 1143 c 0,42,43
 416 1143 416 1143 403.5 1145 c 128,-1,44
 391 1147 391 1147 385 1147 c 0,45,46
 361 1147 361 1147 347.5 1137.5 c 128,-1,47
 334 1128 334 1128 334 1112 c 0,48,49
 334 1094 334 1094 350.5 1060 c 128,-1,50
 367 1026 367 1026 397 983 c 2,51,-1
 555 762 l 2,52,53
 568 743 568 743 588 709 c 0,54,55
 629 639 629 639 659 639 c 0,56,57
 668 639 668 639 675.5 644 c 128,-1,58
 683 649 683 649 690 659 c 2,59,-1
 967 1055 l 2,60,61
 975 1067 975 1067 980 1081.5 c 128,-1,62
 985 1096 985 1096 985 1106 c 0,63,64
 985 1124 985 1124 975 1133 c 128,-1,65
 965 1142 965 1142 938 1147 c 0,66,67
 923 1149 923 1149 897 1151 c 0,68,69
 850 1154 850 1154 850 1176 c 0,70,71
 850 1191 850 1191 858 1198.5 c 128,-1,72
 866 1206 866 1206 883 1206 c 0,73,74
 886 1206 886 1206 898 1205 c 0,75,76
 954 1198 954 1198 1006 1198 c 2,77,-1
 1145 1198 l 2,78,79
 1175 1198 1175 1198 1210 1199 c 128,-1,80
 1245 1200 1245 1200 1247 1200 c 0,81,82
 1258 1200 1258 1200 1265.5 1195.5 c 128,-1,83
 1273 1191 1273 1191 1274 1184 c 0,84,85
 1274 1156 1274 1156 1236 1150 c 0,86,87
 1218 1147 1218 1147 1209 1145 c 0,88,89
 1146 1130 1146 1130 1062 1028 c 0,90,91
 1055 1019 1055 1019 1050 1013 c 2,92,-1
 881 807 l 1,93,-1
 1204 807 l 2,94,95
 1219 807 1219 807 1228 801 c 128,-1,96
 1237 795 1237 795 1237 784 c 0,97,98
 1237 769 1237 769 1231 763.5 c 128,-1,99
 1225 758 1225 758 1208 758 c 2,100,-1
 842 758 l 1,101,102
 796 701 796 701 745.5 645.5 c 128,-1,103
 695 590 695 590 693 586 c 1,104,-1
 1204 586 l 2,105,106
 1222 586 1222 586 1229.5 580.5 c 128,-1,107
 1237 575 1237 575 1237 563 c 0,108,109
 1237 549 1237 549 1230 542 c 128,-1,110
 1223 535 1223 535 1208 535 c 2,111,-1
 678 535 l 1,112,113
 678 524 678 524 677 504.5 c 128,-1,114
 676 485 676 485 676 475 c 2,115,-1
 678 260 l 2,116,117
 678 146 678 146 683.5 110 c 128,-1,118
 689 74 689 74 704 66 c 0,119,120
 734 49 734 49 811.5 47 c 128,-1,121
 889 45 889 45 889 16 c 0,122,123
 889 4 889 4 879 -4 c 128,-1,124
 869 -12 869 -12 854 -12 c 0,125,126
 852 -12 852 -12 818.5 -8 c 128,-1,127
 785 -4 785 -4 754 -4 c 0,128,129
 663 -4 663 -4 545.5 -8 c 128,-1,130
 428 -12 428 -12 403 -12 c 0,131,132
 372 -12 372 -12 363 -8 c 128,-1,133
 354 -4 354 -4 354 8 c 256,134,135
 354 20 354 20 362 26.5 c 128,-1,136
 370 33 370 33 399 39 c 0,137,138
 408 41 408 41 424 44 c 0,139,140
 498 60 498 60 516 76 c 0,141,142
 533 89 533 89 540 123 c 128,-1,143
 547 157 547 157 547 225 c 2,0,-1
EndSplineSet
EndChar

StartChar: brokenbar
Encoding: 166 166 103
Width: 1014
GlyphClass: 1
Flags: W
LayerCount: 2
Fore
SplineSet
427 371 m 1,0,-1
 587 371 l 1,1,-1
 587 -418 l 1,2,-1
 427 -418 l 1,3,-1
 427 371 l 1,0,-1
427 1578 m 1,4,-1
 587 1578 l 1,5,-1
 587 789 l 1,6,-1
 427 789 l 1,7,-1
 427 1578 l 1,4,-1
EndSplineSet
EndChar

StartChar: section
Encoding: 167 167 104
Width: 1014
GlyphClass: 1
Flags: W
LayerCount: 2
Fore
SplineSet
545 321 m 1,0,1
 601 337 601 337 642 374 c 0,2,3
 715 439 715 439 715 540 c 0,4,5
 715 545 715 545 714 550 c 1,6,-1
 712 550 l 1,7,8
 711 564 711 564 708 577 c 0,9,10
 686 638 686 638 595 704 c 1,11,12
 536 733 536 733 469 733 c 0,13,14
 391 733 391 733 344 688.5 c 128,-1,15
 297 644 297 644 297 571 c 0,16,17
 297 448 297 448 545 321 c 1,0,1
466 -346 m 1,18,19
 579 -340 579 -340 651 -277 c 0,20,21
 723 -213 723 -213 723 -112 c 0,22,23
 723 13 723 13 407 164 c 1,24,25
 284 228 284 228 231.5 301 c 128,-1,26
 179 374 179 374 179 478 c 0,27,28
 179 626 179 626 268 715 c 0,29,30
 335 780 335 780 438 797 c 1,31,-1
 398 816 l 1,32,33
 275 880 275 880 222.5 953 c 128,-1,34
 170 1026 170 1026 170 1130 c 0,35,36
 170 1278 170 1278 259 1367 c 0,37,38
 341 1446 341 1446 475 1453 c 0,39,40
 483 1454 483 1454 492 1454 c 2,41,-1
 495 1454 l 2,42,43
 561 1454 561 1454 658 1437.5 c 128,-1,44
 755 1421 755 1421 755 1396 c 2,45,-1
 755 1202 l 1,46,-1
 704 1202 l 1,47,48
 699 1283 699 1283 624 1334 c 0,49,50
 554 1381 554 1381 475 1385 c 1,51,-1
 460 1385 l 2,52,53
 382 1385 382 1385 335 1340.5 c 128,-1,54
 288 1296 288 1296 288 1223 c 0,55,56
 288 1091 288 1091 575 954 c 0,57,58
 724 887 724 887 779.5 810.5 c 128,-1,59
 835 734 835 734 835 623 c 0,60,61
 835 452 835 452 734 341 c 1,62,63
 687 302 687 302 635 277 c 1,64,65
 743 221 743 221 789 159 c 0,66,67
 844 82 844 82 844 -28 c 0,68,69
 844 -199 844 -199 743 -311 c 1,70,71
 619 -413 619 -413 466 -416 c 1,72,-1
 466 -415 l 1,73,74
 460 -416 460 -416 453 -416 c 2,75,-1
 450 -416 l 2,76,77
 384 -416 384 -416 287 -399.5 c 128,-1,78
 190 -383 190 -383 190 -358 c 2,79,-1
 190 -164 l 1,80,-1
 241 -164 l 1,81,82
 246 -245 246 -245 321 -296 c 0,83,84
 389 -341 389 -341 466 -346 c 1,18,19
EndSplineSet
EndChar

StartChar: dieresis
Encoding: 168 168 105
Width: 1024
GlyphClass: 1
Flags: W
LayerCount: 2
Fore
SplineSet
223 1289 m 2,0,-1
 294 1361 l 2,1,2
 307 1373 307 1373 319 1373 c 0,3,4
 330 1373 330 1373 346 1359 c 2,5,-1
 415 1286 l 2,6,7
 425 1272 425 1272 425 1261 c 0,8,9
 425 1248 425 1248 413 1234 c 2,10,-1
 344 1159 l 2,11,12
 327 1142 327 1142 319 1142 c 0,13,14
 305 1142 305 1142 294 1154 c 2,15,-1
 218 1240 l 2,16,17
 209 1252 209 1252 209 1263 c 0,18,19
 209 1276 209 1276 223 1289 c 2,0,-1
588 1289 m 2,20,-1
 659 1361 l 2,21,22
 672 1373 672 1373 684 1373 c 0,23,24
 695 1373 695 1373 711 1360 c 2,25,-1
 780 1286 l 2,26,27
 790 1272 790 1272 790 1261 c 0,28,29
 790 1248 790 1248 778 1235 c 2,30,-1
 709 1159 l 2,31,32
 692 1142 692 1142 684 1142 c 0,33,34
 670 1142 670 1142 659 1154 c 2,35,-1
 583 1241 l 2,36,37
 574 1252 574 1252 574 1263 c 0,38,39
 574 1276 574 1276 588 1289 c 2,20,-1
EndSplineSet
EndChar

StartChar: copyright
Encoding: 169 169 106
Width: 1674
GlyphClass: 1
Flags: W
LayerCount: 2
Fore
SplineSet
840 1456 m 0,0,1
 985 1456 985 1456 1120 1399.5 c 128,-1,2
 1255 1343 1255 1343 1359 1239 c 0,3,4
 1461 1138 1461 1138 1517.5 1001 c 128,-1,5
 1574 864 1574 864 1574 718 c 0,6,7
 1574 571 1574 571 1517.5 436 c 128,-1,8
 1461 301 1461 301 1355 196 c 0,9,10
 1250 91 1250 91 1116 36.5 c 128,-1,11
 982 -18 982 -18 833 -18 c 0,12,13
 687 -18 687 -18 555 37.5 c 128,-1,14
 423 93 423 93 317 198 c 0,15,16
 211 302 211 302 155.5 435.5 c 128,-1,17
 100 569 100 569 100 718 c 0,18,19
 100 866 100 866 155.5 1001 c 128,-1,20
 211 1136 211 1136 315 1239 c 0,21,22
 417 1343 417 1343 553.5 1399.5 c 128,-1,23
 690 1456 690 1456 840 1456 c 0,0,1
357 1197 m 256,24,25
 262 1101 262 1101 211 977.5 c 128,-1,26
 160 854 160 854 160 718 c 0,27,28
 160 581 160 581 211 459 c 128,-1,29
 262 337 262 337 359 240 c 0,30,31
 457 144 457 144 578 93 c 128,-1,32
 699 42 699 42 834 42 c 0,33,34
 971 42 971 42 1093.5 92.5 c 128,-1,35
 1216 143 1216 143 1313 238 c 0,36,37
 1410 336 1410 336 1462 459.5 c 128,-1,38
 1514 583 1514 583 1514 718 c 0,39,40
 1514 852 1514 852 1462 977.5 c 128,-1,41
 1410 1103 1410 1103 1317 1197 c 0,42,43
 1221 1293 1221 1293 1097 1344.5 c 128,-1,44
 973 1396 973 1396 839 1396 c 0,45,46
 702 1396 702 1396 577 1344.5 c 128,-1,47
 452 1293 452 1293 357 1197 c 256,24,25
865 223 m 0,48,49
 723 223 723 223 601 291 c 128,-1,50
 479 359 479 359 415 476 c 128,-1,51
 351 593 351 593 351 719 c 256,52,53
 351 845 351 845 416.5 963 c 128,-1,54
 482 1081 482 1081 604 1147.5 c 128,-1,55
 726 1214 726 1214 858 1214 c 0,56,57
 896 1214 896 1214 933 1207.5 c 128,-1,58
 970 1201 970 1201 1009 1187 c 0,59,60
 1014 1186 1014 1186 1018 1186 c 0,61,62
 1037 1186 1037 1186 1044 1216 c 1,63,-1
 1086 1216 l 1,64,-1
 1158 1018 l 1,65,-1
 1114 1018 l 1,66,67
 1062 1112 1062 1112 983 1142 c 0,68,69
 911 1168 911 1168 836 1168 c 2,70,-1
 821 1168 l 1,71,72
 735 1160 735 1160 654.5 1097 c 128,-1,73
 574 1034 574 1034 533 920 c 0,74,75
 500 830 500 830 500 736 c 0,76,77
 500 711 500 711 502 686 c 0,78,79
 513 565 513 565 571.5 462 c 128,-1,80
 630 359 630 359 721 310 c 0,81,82
 793 270 793 270 887 268 c 0,83,84
 1011 268 1011 268 1081 324 c 128,-1,85
 1151 380 1151 380 1151 450 c 1,86,-1
 1204 450 l 1,87,-1
 1204 350 l 2,88,89
 1204 304 1204 304 1107.5 263.5 c 128,-1,90
 1011 223 1011 223 865 223 c 0,48,49
EndSplineSet
EndChar

StartChar: guillemotleft
Encoding: 171 171 108
Width: 944
GlyphClass: 1
Flags: W
LayerCount: 2
Fore
SplineSet
174 479 m 1,0,-1
 516 782 l 1,1,-1
 530 782 l 1,2,-1
 530 745 l 1,3,-1
 325 479 l 1,4,-1
 530 213 l 1,5,-1
 530 176 l 1,6,-1
 516 176 l 1,7,-1
 174 479 l 1,0,-1
487 479 m 1,8,-1
 829 782 l 1,9,-1
 843 782 l 1,10,-1
 843 745 l 1,11,-1
 638 479 l 1,12,-1
 843 213 l 1,13,-1
 843 176 l 1,14,-1
 829 176 l 1,15,-1
 487 479 l 1,8,-1
EndSplineSet
EndChar

StartChar: logicalnot
Encoding: 172 172 109
Width: 1014
GlyphClass: 1
Flags: W
LayerCount: 2
Fore
SplineSet
87 767 m 1,0,-1
 927 767 l 1,1,-1
 927 276 l 1,2,-1
 926 275 l 1,3,-1
 828 275 l 1,4,-1
 828 667 l 1,5,-1
 87 667 l 1,6,-1
 87 767 l 1,0,-1
EndSplineSet
EndChar

StartChar: registered
Encoding: 174 174 110
Width: 1674
GlyphClass: 1
Flags: W
LayerCount: 2
Fore
SplineSet
751 1099 m 1,0,-1
 751 725 l 1,1,-1
 754 717 l 2,2,3
 777 661 777 661 810 636 c 0,4,5
 839 614 839 614 866 614 c 2,6,-1
 872 614 l 1,7,8
 903 618 903 618 933.5 652.5 c 128,-1,9
 964 687 964 687 980 750 c 0,10,11
 993 800 993 800 993 853 c 0,12,13
 993 866 993 866 992 880 c 0,14,15
 988 947 988 947 964 1004.5 c 128,-1,16
 940 1062 940 1062 907.5 1080.5 c 128,-1,17
 875 1099 875 1099 844 1099 c 2,18,-1
 751 1099 l 1,0,-1
984 576 m 1,19,-1
 1066 460 l 2,20,21
 1166 319 1166 319 1216 319 c 2,22,-1
 1250 319 l 1,23,-1
 1250 269 l 1,24,-1
 904 269 l 1,25,-1
 904 319 l 1,26,-1
 949 319 l 2,27,28
 979 319 979 319 979 341 c 0,29,30
 979 370 979 370 910 455 c 1,31,-1
 835 557 l 1,32,33
 793 557 793 557 751 599 c 1,34,-1
 751 440 l 2,35,36
 751 319 751 319 787 319 c 2,37,-1
 840 319 l 1,38,-1
 840 269 l 1,39,-1
 524 269 l 1,40,-1
 524 319 l 1,41,-1
 567 319 l 2,42,43
 604 319 604 319 604 440 c 2,44,-1
 604 978 l 2,45,46
 604 1099 604 1099 567 1099 c 2,47,-1
 524 1099 l 1,48,-1
 524 1169 l 1,49,-1
 880 1169 l 2,50,51
 944 1168 944 1168 1005 1127 c 0,52,53
 1065 1086 1065 1086 1097.5 1013 c 128,-1,54
 1130 940 1130 940 1130 861 c 0,55,56
 1130 783 1130 783 1098 710.5 c 128,-1,57
 1066 638 1066 638 984 576 c 1,19,-1
840 1456 m 0,58,59
 985 1456 985 1456 1120 1399.5 c 128,-1,60
 1255 1343 1255 1343 1359 1239 c 0,61,62
 1461 1138 1461 1138 1517.5 1001 c 128,-1,63
 1574 864 1574 864 1574 718 c 0,64,65
 1574 571 1574 571 1517.5 436 c 128,-1,66
 1461 301 1461 301 1355 196 c 0,67,68
 1250 91 1250 91 1116 36.5 c 128,-1,69
 982 -18 982 -18 833 -18 c 0,70,71
 687 -18 687 -18 555 37.5 c 128,-1,72
 423 93 423 93 317 198 c 0,73,74
 211 302 211 302 155.5 435.5 c 128,-1,75
 100 569 100 569 100 718 c 0,76,77
 100 866 100 866 155.5 1001 c 128,-1,78
 211 1136 211 1136 315 1239 c 0,79,80
 417 1343 417 1343 553.5 1399.5 c 128,-1,81
 690 1456 690 1456 840 1456 c 0,58,59
357 1197 m 256,82,83
 262 1101 262 1101 211 977.5 c 128,-1,84
 160 854 160 854 160 718 c 0,85,86
 160 581 160 581 211 459 c 128,-1,87
 262 337 262 337 359 240 c 0,88,89
 457 144 457 144 578 93 c 128,-1,90
 699 42 699 42 834 42 c 0,91,92
 971 42 971 42 1093.5 92.5 c 128,-1,93
 1216 143 1216 143 1313 238 c 0,94,95
 1410 336 1410 336 1462 459.5 c 128,-1,96
 1514 583 1514 583 1514 718 c 0,97,98
 1514 852 1514 852 1462 977.5 c 128,-1,99
 1410 1103 1410 1103 1317 1197 c 0,100,101
 1221 1293 1221 1293 1097 1344.5 c 128,-1,102
 973 1396 973 1396 839 1396 c 0,103,104
 702 1396 702 1396 577 1344.5 c 128,-1,105
 452 1293 452 1293 357 1197 c 256,82,83
EndSplineSet
EndChar

StartChar: degree
Encoding: 176 176 112
Width: 674
GlyphClass: 1
Flags: W
LayerCount: 2
Fore
SplineSet
339 1372 m 256,0,1
 253 1372 253 1372 191.5 1311 c 128,-1,2
 130 1250 130 1250 130 1163 c 256,3,4
 130 1076 130 1076 191 1016 c 128,-1,5
 252 956 252 956 339 956 c 256,6,7
 426 956 426 956 486 1016 c 128,-1,8
 546 1076 546 1076 546 1163 c 256,9,10
 546 1250 546 1250 485.5 1311 c 128,-1,11
 425 1372 425 1372 339 1372 c 256,0,1
339 1442 m 0,12,13
 454 1442 454 1442 535 1360.5 c 128,-1,14
 616 1279 616 1279 616 1164 c 0,15,16
 616 1050 616 1050 534 968 c 128,-1,17
 452 886 452 886 337 886 c 0,18,19
 220 886 220 886 140 967 c 128,-1,20
 60 1048 60 1048 60 1164 c 256,21,22
 60 1280 60 1280 141.5 1361 c 128,-1,23
 223 1442 223 1442 339 1442 c 0,12,13
EndSplineSet
EndChar

StartChar: acute
Encoding: 180 180 116
Width: 1024
GlyphClass: 1
Flags: W
LayerCount: 2
Fore
SplineSet
607 1375 m 2,0,1
 642 1410 642 1410 662.5 1422 c 128,-1,2
 683 1434 683 1434 703 1434 c 0,3,4
 736 1434 736 1434 756.5 1414 c 128,-1,5
 777 1394 777 1394 777 1363 c 0,6,7
 777 1341 777 1341 761.5 1321 c 128,-1,8
 746 1301 746 1301 715 1281 c 2,9,-1
 385 1078 l 1,10,-1
 316 1078 l 1,11,-1
 607 1375 l 2,0,1
EndSplineSet
EndChar

StartChar: paragraph
Encoding: 182 182 118
Width: 1024
GlyphClass: 1
Flags: W
LayerCount: 2
Fore
SplineSet
929 1435 m 1,0,-1
 929 1365 l 1,1,-1
 802 1365 l 1,2,-1
 802 0 l 1,3,-1
 720 0 l 1,4,-1
 720 1365 l 1,5,-1
 554 1365 l 1,6,-1
 554 0 l 1,7,-1
 470 0 l 1,8,-1
 470 738 l 1,9,10
 296 746 296 746 194.5 840.5 c 128,-1,11
 93 935 93 935 93 1086 c 0,12,13
 93 1243 93 1243 200.5 1339 c 128,-1,14
 308 1435 308 1435 486 1435 c 2,15,-1
 929 1435 l 1,0,-1
EndSplineSet
EndChar

StartChar: periodcentered
Encoding: 183 183 119
AltUni2: 002219.ffffffff.0 002219.ffffffff.0
Width: 508
GlyphClass: 1
Flags: W
LayerCount: 2
Fore
SplineSet
145 740 m 2,0,-1
 227 824 l 2,1,2
 242 838 242 838 256 838 c 0,3,4
 269 838 269 838 287 822 c 2,5,-1
 367 736 l 2,6,7
 379 720 379 720 379 707 c 0,8,9
 379 692 379 692 365 676 c 2,10,-1
 285 588 l 2,11,12
 265 568 265 568 256 568 c 0,13,14
 240 568 240 568 227 582 c 2,15,-1
 139 683 l 2,16,17
 129 696 129 696 129 709 c 0,18,19
 129 724 129 724 145 740 c 2,0,-1
EndSplineSet
EndChar

StartChar: cedilla
Encoding: 184 184 120
Width: 1024
GlyphClass: 1
Flags: W
LayerCount: 2
Fore
SplineSet
360 -290 m 1,0,1
 445 -342 445 -342 512 -342 c 0,2,3
 578 -342 578 -342 606.5 -320.5 c 128,-1,4
 635 -299 635 -299 635 -254 c 256,5,6
 635 -209 635 -209 586 -190 c 0,7,8
 546 -174 546 -174 484 -174 c 0,9,10
 468 -174 468 -174 450 -176 c 1,11,-1
 498 0 l 1,12,-1
 561 0 l 1,13,-1
 524 -104 l 1,14,15
 556 -100 556 -100 586 -99 c 0,16,17
 672 -99 672 -99 720 -139.5 c 128,-1,18
 768 -180 768 -180 768 -253 c 0,19,20
 768 -329 768 -329 709.5 -373.5 c 128,-1,21
 651 -418 651 -418 549 -418 c 0,22,23
 440 -418 440 -418 360 -386 c 1,24,-1
 360 -290 l 1,0,1
EndSplineSet
EndChar

StartChar: guillemotright
Encoding: 187 187 123
Width: 944
GlyphClass: 1
Flags: W
LayerCount: 2
Fore
SplineSet
115 176 m 1,0,-1
 101 176 l 1,1,-1
 101 213 l 1,2,-1
 306 479 l 1,3,-1
 101 745 l 1,4,-1
 101 782 l 1,5,-1
 115 782 l 1,6,-1
 457 479 l 1,7,-1
 115 176 l 1,0,-1
428 176 m 1,8,-1
 414 176 l 1,9,-1
 414 213 l 1,10,-1
 619 479 l 1,11,-1
 414 745 l 1,12,-1
 414 782 l 1,13,-1
 428 782 l 1,14,-1
 770 479 l 1,15,-1
 428 176 l 1,8,-1
EndSplineSet
EndChar

StartChar: Agrave
Encoding: 192 192 128
Width: 989
GlyphClass: 1
Flags: W
LayerCount: 2
Fore
SplineSet
580 1951 m 1,0,-1
 612 1888 l 1,1,-1
 632 1871 l 1,2,-1
 628 1863 l 1,3,-1
 631 1858 l 1,4,-1
 640 1858 l 1,5,-1
 665 1779 l 1,6,-1
 679 1770 l 1,7,-1
 673 1754 l 1,8,-1
 690 1741 l 1,9,-1
 686 1733 l 1,10,-1
 680 1729 l 2,11,12
 678 1728 678 1728 676 1728 c 1,13,14
 676 1728 676 1728 676 1728 c 129,-1,15
 676 1728 676 1728 676 1728 c 129,-1,16
 676 1728 676 1728 676 1728 c 1,17,18
 659 1728 659 1728 601 1797 c 1,19,-1
 593 1822 l 1,20,-1
 585 1822 l 1,21,-1
 579 1818 l 1,22,-1
 574 1839 l 1,23,-1
 479 1945 l 1,24,25
 495 1981 495 1981 517 1994 c 0,26,27
 522 1997 522 1997 528 1997 c 0,28,29
 550 1997 550 1997 580 1951 c 1,0,-1
525 1689 m 2,30,-1
 561 1689 l 1,31,-1
 616 1599 l 1,32,-1
 634 1536 l 1,33,-1
 625 1498 l 1,34,-1
 643 1471 l 1,35,-1
 625 1433 l 1,36,37
 681 1433 681 1433 716 1100 c 1,38,-1
 743 974 l 1,39,-1
 734 922 l 1,40,-1
 734 909 l 1,41,-1
 752 909 l 1,42,-1
 752 896 l 1,43,-1
 734 845 l 1,44,45
 757 845 757 845 798 640 c 1,46,-1
 825 666 l 1,47,48
 825 637 825 637 888 614 c 1,49,-1
 888 602 l 1,50,-1
 897 614 l 1,51,-1
 906 614 l 1,52,-1
 915 602 l 1,53,-1
 925 602 l 1,54,-1
 961 614 l 1,55,-1
 979 589 l 1,56,-1
 897 537 l 1,57,-1
 879 537 l 1,58,-1
 852 564 l 1,59,-1
 843 564 l 1,60,61
 843 526 843 526 816 526 c 1,62,-1
 816 513 l 1,63,64
 864 397 864 397 880 397 c 1,65,-1
 871 384 l 1,66,-1
 871 372 l 1,67,68
 930 131 930 131 988 65 c 1,69,-1
 1006 -89 l 1,70,71
 979 -89 979 -89 979 -127 c 1,72,-1
 970 -140 l 1,73,-1
 961 -140 l 1,74,75
 910 -71 910 -71 878 -64 c 1,76,77
 878 -12 878 -12 851 -12 c 1,78,79
 828 27 828 27 806 27 c 1,80,-1
 806 51 l 1,81,-1
 815 116 l 1,82,83
 766 116 766 116 724 321 c 1,84,-1
 706 346 l 1,85,-1
 724 372 l 1,86,87
 705 372 705 372 679 461 c 0,88,89
 663 510 663 510 607 517 c 1,90,91
 516 492 516 492 516 449 c 1,92,-1
 489 461 l 1,93,-1
 334 430 l 1,94,-1
 316 430 l 1,95,-1
 307 444 l 1,96,-1
 298 444 l 1,97,98
 276 308 276 308 244 308 c 1,99,-1
 244 294 l 1,100,-1
 263 256 l 1,101,102
 232 242 232 242 171 131 c 1,103,-1
 199 116 l 1,104,105
 127 3 127 3 90 3 c 1,106,-1
 71 54 l 1,107,-1
 44 68 l 1,108,-1
 -10 118 l 1,109,-1
 -10 131 l 1,110,-1
 -1 208 l 1,111,-1
 -10 221 l 1,112,-1
 -10 234 l 1,113,-1
 64 435 l 1,114,115
 90 653 90 653 137 653 c 1,116,117
 201 883 201 883 244 883 c 1,118,-1
 235 947 l 1,119,-1
 244 960 l 1,120,-1
 254 960 l 1,121,-1
 244 974 l 1,122,-1
 244 1023 l 1,123,124
 290 1023 290 1023 290 1126 c 1,125,126
 342 1168 342 1168 362 1217 c 1,127,-1
 335 1217 l 1,128,-1
 335 1228 l 1,129,-1
 380 1317 l 1,130,-1
 371 1382 l 1,131,132
 439 1411 439 1411 462 1651 c 1,133,134
 495 1689 495 1689 525 1689 c 2,30,-1
467 980 m 1,135,-1
 476 968 l 1,136,-1
 476 944 l 1,137,138
 432 900 432 900 421 812 c 1,139,-1
 403 812 l 1,140,141
 380 678 380 678 367 678 c 1,142,-1
 376 666 l 1,143,-1
 376 654 l 1,144,-1
 417 618 l 1,145,-1
 444 593 l 1,146,-1
 507 618 l 1,147,-1
 516 606 l 1,148,-1
 516 593 l 1,149,-1
 543 606 l 1,150,-1
 579 593 l 1,151,152
 618 604 618 604 643 690 c 1,153,154
 605 690 605 690 579 908 c 1,155,-1
 570 920 l 1,156,-1
 570 1004 l 1,157,-1
 546 1115 l 1,158,-1
 525 1130 l 1,159,-1
 467 980 l 1,135,-1
EndSplineSet
EndChar

StartChar: Aacute
Encoding: 193 193 129
Width: 989
GlyphClass: 1
Flags: W
LayerCount: 2
Back
Fore
SplineSet
493 1961 m 1,0,1
 523 2007 523 2007 545 2007 c 0,2,3
 550 2007 550 2007 555 2004 c 0,4,5
 579 1990 579 1990 594 1955 c 1,6,7
 594 1955 594 1955 499 1850 c 1,8,-1
 494 1829 l 1,9,-1
 488 1833 l 1,10,-1
 479 1832 l 1,11,-1
 472 1808 l 1,12,13
 414 1738 414 1738 397 1738 c 0,14,15
 395 1738 395 1738 393 1739 c 2,16,17
 393 1739 393 1739 386 1743 c 1,18,-1
 383 1751 l 1,19,-1
 400 1764 l 1,20,-1
 393 1781 l 1,21,-1
 407 1789 l 1,22,-1
 433 1868 l 1,23,-1
 441 1869 l 1,24,-1
 444 1873 l 1,25,-1
 441 1881 l 1,26,-1
 461 1898 l 1,27,-1
 493 1961 l 1,0,1
525 1689 m 2,28,-1
 561 1689 l 1,29,-1
 616 1599 l 1,30,-1
 634 1536 l 1,31,-1
 625 1498 l 1,32,-1
 643 1471 l 1,33,-1
 625 1433 l 1,34,35
 681 1433 681 1433 716 1100 c 1,36,-1
 743 974 l 1,37,-1
 734 922 l 1,38,-1
 734 909 l 1,39,-1
 752 909 l 1,40,-1
 752 896 l 1,41,-1
 734 845 l 1,42,43
 757 845 757 845 798 640 c 1,44,-1
 825 666 l 1,45,46
 825 637 825 637 888 614 c 1,47,-1
 888 602 l 1,48,-1
 897 614 l 1,49,-1
 906 614 l 1,50,-1
 915 602 l 1,51,-1
 925 602 l 1,52,-1
 961 614 l 1,53,-1
 979 589 l 1,54,-1
 897 537 l 1,55,-1
 879 537 l 1,56,-1
 852 564 l 1,57,-1
 843 564 l 1,58,59
 843 526 843 526 816 526 c 1,60,-1
 816 513 l 1,61,62
 864 397 864 397 880 397 c 1,63,-1
 871 384 l 1,64,-1
 871 372 l 1,65,66
 930 131 930 131 988 65 c 1,67,-1
 1006 -89 l 1,68,69
 979 -89 979 -89 979 -127 c 1,70,-1
 970 -140 l 1,71,-1
 961 -140 l 1,72,73
 910 -71 910 -71 878 -64 c 1,74,75
 878 -12 878 -12 851 -12 c 1,76,77
 828 27 828 27 806 27 c 1,78,-1
 806 51 l 1,79,-1
 815 116 l 1,80,81
 766 116 766 116 724 321 c 1,82,-1
 706 346 l 1,83,-1
 724 372 l 1,84,85
 705 372 705 372 679 461 c 0,86,87
 663 510 663 510 607 517 c 1,88,89
 516 492 516 492 516 449 c 1,90,-1
 489 461 l 1,91,-1
 334 430 l 1,92,-1
 316 430 l 1,93,-1
 307 444 l 1,94,-1
 298 444 l 1,95,96
 276 308 276 308 244 308 c 1,97,-1
 244 294 l 1,98,-1
 263 256 l 1,99,100
 232 242 232 242 171 131 c 1,101,-1
 199 116 l 1,102,103
 127 3 127 3 90 3 c 1,104,-1
 71 54 l 1,105,-1
 44 68 l 1,106,-1
 -10 118 l 1,107,-1
 -10 131 l 1,108,-1
 -1 208 l 1,109,-1
 -10 221 l 1,110,-1
 -10 234 l 1,111,-1
 64 435 l 1,112,113
 90 653 90 653 137 653 c 1,114,115
 201 883 201 883 244 883 c 1,116,-1
 235 947 l 1,117,-1
 244 960 l 1,118,-1
 254 960 l 1,119,-1
 244 974 l 1,120,-1
 244 1023 l 1,121,122
 290 1023 290 1023 290 1126 c 1,123,124
 342 1168 342 1168 362 1217 c 1,125,-1
 335 1217 l 1,126,-1
 335 1228 l 1,127,-1
 380 1317 l 1,128,-1
 371 1382 l 1,129,130
 439 1411 439 1411 462 1651 c 1,131,132
 495 1689 495 1689 525 1689 c 2,28,-1
467 980 m 1,133,-1
 476 968 l 1,134,-1
 476 944 l 1,135,136
 432 900 432 900 421 812 c 1,137,-1
 403 812 l 1,138,139
 380 678 380 678 367 678 c 1,140,-1
 376 666 l 1,141,-1
 376 654 l 1,142,-1
 417 618 l 1,143,-1
 444 593 l 1,144,-1
 507 618 l 1,145,-1
 516 606 l 1,146,-1
 516 593 l 1,147,-1
 543 606 l 1,148,-1
 579 593 l 1,149,150
 618 604 618 604 643 690 c 1,151,152
 605 690 605 690 579 908 c 1,153,-1
 570 920 l 1,154,-1
 570 1004 l 1,155,-1
 546 1115 l 1,156,-1
 525 1130 l 1,157,-1
 467 980 l 1,133,-1
EndSplineSet
EndChar

StartChar: Acircumflex
Encoding: 194 194 130
Width: 1021
GlyphClass: 1
Flags: W
LayerCount: 2
Fore
SplineSet
572 1916 m 1,0,-1
 530 1859 l 1,1,-1
 524 1834 l 1,2,-1
 515 1833 l 1,3,-1
 513 1828 l 1,4,-1
 516 1820 l 1,5,-1
 457 1762 l 1,6,-1
 456 1746 l 1,7,-1
 439 1744 l 1,8,-1
 435 1723 l 1,9,-1
 426 1722 l 1,10,-1
 420 1726 l 2,11,12
 416 1728 416 1728 416 1737 c 0,13,14
 416 1760 416 1760 445 1827 c 1,15,-1
 463 1845 l 1,16,-1
 459 1853 l 1,17,-1
 453 1857 l 1,18,-1
 470 1871 l 1,19,-1
 521 2003 l 1,20,21
 555 2005 555 2005 581 1991 c 0,22,23
 592 1985 592 1985 592 1971 c 0,24,25
 592 1951 592 1951 572 1916 c 1,0,-1
648 1929 m 1,26,-1
 680 1866 l 1,27,-1
 700 1849 l 1,28,-1
 697 1840 l 1,29,-1
 700 1836 l 1,30,-1
 708 1836 l 1,31,-1
 733 1757 l 1,32,-1
 747 1748 l 1,33,-1
 741 1732 l 1,34,-1
 758 1719 l 1,35,-1
 755 1711 l 1,36,-1
 748 1707 l 2,37,38
 746 1706 746 1706 744 1706 c 1,39,40
 744 1706 744 1706 744 1706 c 1,41,42
 727 1706 727 1706 669 1775 c 1,43,-1
 662 1800 l 1,44,-1
 653 1800 l 1,45,-1
 647 1796 l 1,46,-1
 642 1817 l 1,47,-1
 547 1923 l 1,48,49
 562 1958 562 1958 586 1972 c 0,50,51
 591 1975 591 1975 596 1975 c 0,52,53
 618 1975 618 1975 648 1929 c 1,26,-1
557 1689 m 2,54,-1
 593 1689 l 1,55,-1
 648 1599 l 1,56,-1
 666 1536 l 1,57,-1
 657 1498 l 1,58,-1
 675 1471 l 1,59,-1
 657 1433 l 1,60,61
 713 1433 713 1433 748 1100 c 1,62,-1
 775 974 l 1,63,-1
 766 922 l 1,64,-1
 766 909 l 1,65,-1
 784 909 l 1,66,-1
 784 896 l 1,67,-1
 766 845 l 1,68,69
 789 845 789 845 830 640 c 1,70,-1
 857 666 l 1,71,72
 857 637 857 637 920 614 c 1,73,-1
 920 602 l 1,74,-1
 929 614 l 1,75,-1
 938 614 l 1,76,-1
 947 602 l 1,77,-1
 957 602 l 1,78,-1
 993 614 l 1,79,-1
 1011 589 l 1,80,-1
 929 537 l 1,81,-1
 911 537 l 1,82,-1
 884 564 l 1,83,-1
 875 564 l 1,84,85
 875 526 875 526 848 526 c 1,86,-1
 848 513 l 1,87,88
 896 397 896 397 912 397 c 1,89,-1
 903 384 l 1,90,-1
 903 372 l 1,91,92
 962 131 962 131 1020 65 c 1,93,-1
 1038 -89 l 1,94,95
 1011 -89 1011 -89 1011 -127 c 1,96,-1
 1002 -140 l 1,97,-1
 993 -140 l 1,98,99
 942 -71 942 -71 910 -64 c 1,100,101
 910 -12 910 -12 883 -12 c 1,102,103
 860 27 860 27 838 27 c 1,104,-1
 838 51 l 1,105,-1
 847 116 l 1,106,107
 798 116 798 116 756 321 c 1,108,-1
 738 346 l 1,109,-1
 756 372 l 1,110,111
 737 372 737 372 711 461 c 0,112,113
 695 510 695 510 639 517 c 1,114,115
 548 492 548 492 548 449 c 1,116,-1
 521 461 l 1,117,-1
 366 430 l 1,118,-1
 348 430 l 1,119,-1
 339 444 l 1,120,-1
 330 444 l 1,121,122
 308 308 308 308 276 308 c 1,123,-1
 276 294 l 1,124,-1
 295 256 l 1,125,126
 264 242 264 242 203 131 c 1,127,-1
 231 116 l 1,128,129
 159 3 159 3 122 3 c 1,130,-1
 103 54 l 1,131,-1
 76 68 l 1,132,-1
 22 118 l 1,133,-1
 22 131 l 1,134,-1
 31 208 l 1,135,-1
 22 221 l 1,136,-1
 22 234 l 1,137,-1
 96 435 l 1,138,139
 122 653 122 653 169 653 c 1,140,141
 233 883 233 883 276 883 c 1,142,-1
 267 947 l 1,143,-1
 276 960 l 1,144,-1
 286 960 l 1,145,-1
 276 974 l 1,146,-1
 276 1023 l 1,147,148
 322 1023 322 1023 322 1126 c 1,149,150
 374 1168 374 1168 394 1217 c 1,151,-1
 367 1217 l 1,152,-1
 367 1228 l 1,153,-1
 412 1317 l 1,154,-1
 403 1382 l 1,155,156
 471 1411 471 1411 494 1651 c 1,157,158
 527 1689 527 1689 557 1689 c 2,54,-1
499 980 m 1,159,-1
 508 968 l 1,160,-1
 508 944 l 1,161,162
 464 900 464 900 453 812 c 1,163,-1
 435 812 l 1,164,165
 412 678 412 678 399 678 c 1,166,-1
 408 666 l 1,167,-1
 408 654 l 1,168,-1
 449 618 l 1,169,-1
 476 593 l 1,170,-1
 539 618 l 1,171,-1
 548 606 l 1,172,-1
 548 593 l 1,173,-1
 575 606 l 1,174,-1
 611 593 l 1,175,176
 650 604 650 604 675 690 c 1,177,178
 637 690 637 690 611 908 c 1,179,-1
 602 920 l 1,180,-1
 602 1004 l 1,181,-1
 578 1115 l 1,182,-1
 557 1130 l 1,183,-1
 499 980 l 1,159,-1
EndSplineSet
EndChar

StartChar: Adieresis
Encoding: 196 196 132
Width: 989
GlyphClass: 1
Flags: W
LayerCount: 2
Fore
SplineSet
640 2099 m 1,0,1
 726 2099 726 2099 815 1897 c 1,2,-1
 815 1852 l 1,3,-1
 776 1807 l 1,4,-1
 659 1807 l 1,5,-1
 594 1859 l 1,6,-1
 523 1964 l 1,7,8
 523 2063 523 2063 640 2099 c 1,0,1
210 2066 m 1,9,10
 296 2066 296 2066 385 1864 c 1,11,-1
 385 1819 l 1,12,-1
 346 1774 l 1,13,-1
 229 1774 l 1,14,-1
 164 1826 l 1,15,-1
 93 1931 l 1,16,17
 93 2030 93 2030 210 2066 c 1,9,10
525 1689 m 2,18,-1
 561 1689 l 1,19,-1
 616 1599 l 1,20,-1
 634 1536 l 1,21,-1
 625 1498 l 1,22,-1
 643 1471 l 1,23,-1
 625 1433 l 1,24,25
 681 1433 681 1433 716 1100 c 1,26,-1
 743 974 l 1,27,-1
 734 922 l 1,28,-1
 734 909 l 1,29,-1
 752 909 l 1,30,-1
 752 896 l 1,31,-1
 734 845 l 1,32,33
 757 845 757 845 798 640 c 1,34,-1
 825 666 l 1,35,36
 825 637 825 637 888 614 c 1,37,-1
 888 602 l 1,38,-1
 897 614 l 1,39,-1
 906 614 l 1,40,-1
 915 602 l 1,41,-1
 925 602 l 1,42,-1
 961 614 l 1,43,-1
 979 589 l 1,44,-1
 897 537 l 1,45,-1
 879 537 l 1,46,-1
 852 564 l 1,47,-1
 843 564 l 1,48,49
 843 526 843 526 816 526 c 1,50,-1
 816 513 l 1,51,52
 864 397 864 397 880 397 c 1,53,-1
 871 384 l 1,54,-1
 871 372 l 1,55,56
 930 131 930 131 988 65 c 1,57,-1
 1006 -89 l 1,58,59
 979 -89 979 -89 979 -127 c 1,60,-1
 970 -140 l 1,61,-1
 961 -140 l 1,62,63
 910 -71 910 -71 878 -64 c 1,64,65
 878 -12 878 -12 851 -12 c 1,66,67
 828 27 828 27 806 27 c 1,68,-1
 806 51 l 1,69,-1
 815 116 l 1,70,71
 766 116 766 116 724 321 c 1,72,-1
 706 346 l 1,73,-1
 724 372 l 1,74,75
 705 372 705 372 679 461 c 0,76,77
 663 510 663 510 607 517 c 1,78,79
 516 492 516 492 516 449 c 1,80,-1
 489 461 l 1,81,-1
 334 430 l 1,82,-1
 316 430 l 1,83,-1
 307 444 l 1,84,-1
 298 444 l 1,85,86
 276 308 276 308 244 308 c 1,87,-1
 244 294 l 1,88,-1
 263 256 l 1,89,90
 232 242 232 242 171 131 c 1,91,-1
 199 116 l 1,92,93
 127 3 127 3 90 3 c 1,94,-1
 71 54 l 1,95,-1
 44 68 l 1,96,-1
 -10 118 l 1,97,-1
 -10 131 l 1,98,-1
 -1 208 l 1,99,-1
 -10 221 l 1,100,-1
 -10 234 l 1,101,-1
 64 435 l 1,102,103
 90 653 90 653 137 653 c 1,104,105
 201 883 201 883 244 883 c 1,106,-1
 235 947 l 1,107,-1
 244 960 l 1,108,-1
 254 960 l 1,109,-1
 244 974 l 1,110,-1
 244 1023 l 1,111,112
 290 1023 290 1023 290 1126 c 1,113,114
 342 1168 342 1168 362 1217 c 1,115,-1
 335 1217 l 1,116,-1
 335 1228 l 1,117,-1
 380 1317 l 1,118,-1
 371 1382 l 1,119,120
 439 1411 439 1411 462 1651 c 1,121,122
 495 1689 495 1689 525 1689 c 2,18,-1
467 980 m 1,123,-1
 476 968 l 1,124,-1
 476 944 l 1,125,126
 432 900 432 900 421 812 c 1,127,-1
 403 812 l 1,128,129
 380 678 380 678 367 678 c 1,130,-1
 376 666 l 1,131,-1
 376 654 l 1,132,-1
 417 618 l 1,133,-1
 444 593 l 1,134,-1
 507 618 l 1,135,-1
 516 606 l 1,136,-1
 516 593 l 1,137,-1
 543 606 l 1,138,-1
 579 593 l 1,139,140
 618 604 618 604 643 690 c 1,141,142
 605 690 605 690 579 908 c 1,143,-1
 570 920 l 1,144,-1
 570 1004 l 1,145,-1
 546 1115 l 1,146,-1
 525 1130 l 1,147,-1
 467 980 l 1,123,-1
EndSplineSet
EndChar

StartChar: Egrave
Encoding: 200 200 136
Width: 899
GlyphClass: 1
Flags: W
LayerCount: 2
Fore
SplineSet
406 2010 m 1,0,-1
 438 1947 l 1,1,-1
 458 1930 l 1,2,-1
 455 1922 l 1,3,-1
 458 1917 l 1,4,-1
 466 1917 l 1,5,-1
 492 1838 l 1,6,-1
 506 1829 l 1,7,-1
 499 1813 l 1,8,-1
 516 1800 l 1,9,-1
 513 1792 l 1,10,-1
 506 1788 l 2,11,12
 504 1787 504 1787 502 1787 c 0,13,14
 485 1787 485 1787 427 1856 c 1,15,-1
 420 1881 l 1,16,-1
 411 1881 l 1,17,-1
 405 1877 l 1,18,-1
 400 1898 l 1,19,-1
 305 2004 l 1,20,21
 320 2038 320 2038 344 2053 c 0,22,23
 349 2056 349 2056 354 2056 c 0,24,25
 376 2056 376 2056 406 2010 c 1,0,-1
653 1617 m 1,26,-1
 662 1617 l 2,27,28
 682 1617 682 1617 682 1576 c 1,29,-1
 731 1590 l 1,30,-1
 750 1563 l 1,31,-1
 799 1576 l 1,32,33
 799 1536 799 1536 906 1522 c 1,34,-1
 945 1536 l 1,35,-1
 974 1481 l 1,36,-1
 974 1468 l 1,37,-1
 906 1481 l 1,38,-1
 886 1481 l 1,39,40
 886 1442 886 1442 867 1442 c 1,41,-1
 847 1468 l 1,42,-1
 828 1468 l 1,43,-1
 760 1401 l 1,44,-1
 740 1401 l 1,45,-1
 643 1415 l 1,46,47
 643 1360 643 1360 614 1360 c 1,48,-1
 604 1374 l 1,49,-1
 594 1374 l 1,50,-1
 370 1292 l 1,51,-1
 341 1292 l 1,52,-1
 273 1401 l 1,53,-1
 273 1442 l 2,54,55
 273 1522 273 1522 341 1522 c 1,56,57
 353 1603 353 1603 604 1603 c 1,58,-1
 614 1590 l 1,59,-1
 614 1576 l 1,60,61
 653 1584 653 1584 653 1617 c 1,26,-1
97 1590 m 1,62,63
 164 1590 164 1590 195 1495 c 1,64,-1
 195 1415 l 1,65,-1
 214 1306 l 1,66,-1
 205 1292 l 1,67,-1
 214 1211 l 1,68,-1
 205 940 l 1,69,-1
 214 954 l 1,70,-1
 224 954 l 1,71,-1
 234 940 l 1,72,-1
 399 981 l 1,73,-1
 429 968 l 1,74,-1
 458 981 l 1,75,-1
 477 954 l 1,76,77
 519 995 519 995 555 995 c 1,78,-1
 565 981 l 1,79,-1
 584 1008 l 1,80,81
 584 981 584 981 614 981 c 1,82,-1
 643 995 l 1,83,-1
 653 981 l 1,84,-1
 672 1008 l 1,85,-1
 799 900 l 1,86,-1
 750 873 l 1,87,-1
 760 805 l 2,88,89
 760 781 760 781 672 765 c 1,90,-1
 643 779 l 1,91,-1
 623 752 l 1,92,-1
 614 752 l 1,93,-1
 565 765 l 1,94,-1
 536 724 l 1,95,-1
 526 724 l 1,96,-1
 506 752 l 1,97,-1
 380 724 l 1,98,-1
 380 738 l 1,99,-1
 321 711 l 1,100,-1
 312 724 l 1,101,102
 312 684 312 684 282 684 c 1,103,104
 238 710 238 710 234 738 c 1,105,-1
 224 724 l 1,106,-1
 205 724 l 1,107,-1
 175 752 l 1,108,-1
 156 752 l 1,109,-1
 156 724 l 1,110,-1
 185 711 l 1,111,-1
 175 697 l 1,112,-1
 185 629 l 1,113,-1
 175 589 l 1,114,-1
 195 521 l 1,115,-1
 185 507 l 1,116,-1
 175 507 l 1,117,-1
 224 250 l 1,118,-1
 273 210 l 1,119,120
 273 233 273 233 516 305 c 1,121,122
 674 399 674 399 701 440 c 1,123,124
 789 440 789 440 828 507 c 1,125,126
 828 468 828 468 867 468 c 1,127,-1
 867 427 l 1,128,129
 832 427 832 427 779 332 c 1,130,-1
 740 305 l 1,131,-1
 731 318 l 1,132,-1
 721 305 l 1,133,-1
 721 291 l 1,134,-1
 740 264 l 1,135,-1
 740 250 l 1,136,137
 682 237 682 237 682 210 c 1,138,-1
 701 169 l 1,139,-1
 575 75 l 1,140,-1
 575 89 l 1,141,-1
 497 34 l 1,142,-1
 468 48 l 1,143,-1
 468 34 l 1,144,-1
 380 -6 l 1,145,-1
 351 7 l 1,146,-1
 341 -6 l 1,147,-1
 341 -20 l 1,148,149
 143 -20 143 -20 78 169 c 1,150,151
 19 401 19 401 19 548 c 1,152,-1
 29 561 l 1,153,-1
 29 575 l 1,154,155
 23 654 23 654 0 697 c 1,156,-1
 19 724 l 1,157,-1
 19 832 l 1,158,-1
 39 981 l 1,159,-1
 19 1022 l 1,160,-1
 58 1090 l 1,161,-1
 49 1157 l 1,162,-1
 58 1197 l 1,163,-1
 49 1211 l 1,164,-1
 49 1224 l 1,165,-1
 58 1279 l 1,166,-1
 49 1292 l 1,167,-1
 58 1347 l 1,168,-1
 49 1508 l 1,169,170
 62 1565 62 1565 97 1590 c 1,62,63
EndSplineSet
EndChar

